<?xml version="1.0" encoding="UTF-8"?> <!-- Generator: Adobe Illustrator 22.1.0, SVG Export Plug-In . SVG Version: 6.00 Build 0) --> <svg xmlns="http://www.w3.org/2000/svg" xmlns:xlink="http://www.w3.org/1999/xlink" version="1.1" id="Layer_1" x="0px" y="0px" width="600px" height="500px" viewBox="0 0 600 500" xml:space="preserve"> <g> <linearGradient id="SVGID_1_" gradientUnits="userSpaceOnUse" x1="-988.5233" y1="1211.0999" x2="-1425.8164" y2="1463.5712" gradientTransform="matrix(-1 0 0 -1 -902.7061 1623.9277)"> <stop offset="0" style="stop-color:#5A6EB3;stop-opacity:0.8"></stop> <stop offset="1" style="stop-color:#85CEE0;stop-opacity:0.7"></stop> </linearGradient> <path fill="url(#SVGID_1_)" d="M105.5,342.4c51.5,9.7,76,47.6,106.2,73.1c35.5,30,78.7,13.4,115.6,8.1 c66.3-9.5,88.9,60.4,161.9,51.1c69.9-8.9,97.1-96.4,53.7-146.5c-43.4-50.1-42-65.2-32-100.7c10-35.5,27.6-101.8-42.4-107.8 c-60.1-5.1-94.9-20.2-121.3-46.3c-26.5-26.1-123.9-98-169.4,11.2c-21.7,52.2-34.8,70.5-83.6,83.9C45.4,182,11.3,218.8,9.7,260.5 C8.3,300,36.7,329.5,105.5,342.4z"></path> <linearGradient id="SVGID_2_" gradientUnits="userSpaceOnUse" x1="-1076.719" y1="1263.3752" x2="-1373.7422" y2="1560.3984" gradientTransform="matrix(-1 0 0 -1 -902.7061 1623.9277)"> <stop offset="0" style="stop-color:#85CEE0;stop-opacity:0.6"></stop> <stop offset="1" style="stop-color:#5A6EB3;stop-opacity:0.8"></stop> </linearGradient> <path fill="url(#SVGID_2_)" d="M325.7,68.2c-41.5,30.3-87.8,34.3-136.5,24.6c-48.8-9.7-89.6-11.4-121.5,34.3 c-31.9,45.7-20,131.8,66.5,153c82.5,20.2,96.2,86.5,110.8,133.6c17.7,57.2,70.9,80.9,125.9,69.5c55-11.4,70-51.9,91.3-114.3 c21.3-62.4,46.4-70.1,83.3-88.8c45.3-22.9,83.7-92,0.9-131C438.3,98.1,446.5-19.9,325.7,68.2z"></path> <g> <g> <linearGradient id="SVGID_3_" gradientUnits="userSpaceOnUse" x1="-12474.6602" y1="-199.9407" x2="-12361.3105" y2="-199.9407" gradientTransform="matrix(-0.9986 -5.380000e-02 -5.380000e-02 0.9986 -12271.79 -316.0218)"> <stop offset="5.181350e-03" style="stop-color:#4B6230"></stop> <stop offset="1" style="stop-color:#779A41"></stop> </linearGradient> <path fill="url(#SVGID_3_)" d="M185.9,158.4c7.3,16,11.5,31.2,6.1,38c-0.3,0.4-0.7,0.8-1,1.1c-4.2,3.7-12.4,3.8-26.2-1.7 c-36.8-14.5-38.6-39.7-46-64.2c-7.3-24.2-33-20.1-33.6-20C144.8,90.8,173.4,131.2,185.9,158.4z"></path> <g> <linearGradient id="SVGID_4_" gradientUnits="userSpaceOnUse" x1="-3984.2075" y1="3186.5059" x2="-3984.2075" y2="3106.8022" gradientTransform="matrix(0.7495 -0.662 0.662 0.7495 1076.288 -4819.7329)"> <stop offset="5.181350e-03" style="stop-color:#4B6230"></stop> <stop offset="1" style="stop-color:#779A41"></stop> </linearGradient> <path fill="url(#SVGID_4_)" d="M191.9,196.4c-0.3,0.4-0.7,0.8-1,1.1c-6.9-4.2-20.2-13-26.4-22.9c-2.9-4.7-5.4-9.9-8-15.5 c-5-10.5-10.1-21.4-19-29.8l1-1.1c9.2,8.6,14.4,19.6,19.4,30.2c2.6,5.5,5.1,10.8,8,15.4C171.8,183.5,185.2,192.3,191.9,196.4z"></path> </g> </g> <g> <linearGradient id="SVGID_5_" gradientUnits="userSpaceOnUse" x1="-12463.8125" y1="-234.1544" x2="-12410.1572" y2="-234.1544" gradientTransform="matrix(-0.9986 -5.380000e-02 -5.380000e-02 0.9986 -12271.79 -316.0218)"> <stop offset="5.181350e-03" style="stop-color:#4B6230"></stop> <stop offset="1" style="stop-color:#779A41"></stop> </linearGradient> <path fill="url(#SVGID_5_)" d="M179.5,165c-0.4,1.1-0.7,1.7-0.7,1.7c-0.1-0.6-0.2-1.2-0.3-1.7c-4.9-25.2-11.5-27.8-31.2-49.8 c-20.1-22.5-8.6-43.5-8.6-43.5C206.1,91.1,184,153.7,179.5,165z"></path> <g> <linearGradient id="SVGID_6_" gradientUnits="userSpaceOnUse" x1="-2351.4912" y1="2682.585" x2="-2351.4912" y2="2604.323" gradientTransform="matrix(0.8707 -0.4917 0.4917 0.8707 913.1922 -3329.3003)"> <stop offset="5.181350e-03" style="stop-color:#4B6230"></stop> <stop offset="1" style="stop-color:#779A41"></stop> </linearGradient> <path fill="url(#SVGID_6_)" d="M179.5,165c-0.4,1.1-0.7,1.7-0.7,1.7c-0.1-0.6-0.2-1.2-0.3-1.7c2.2-21.8-10.9-47.3-15.1-51.9 c-4.3-4.7-6.9-11.3-7.9-13.7c-0.2-0.4-0.3-0.8-0.4-0.9l1-0.5c0.1,0.1,0.2,0.4,0.4,1c1,2.4,3.6,8.8,7.7,13.4 C169.4,118.2,181.5,143.8,179.5,165z"></path> </g> </g> <path fill="#F4F3F4" d="M475.8,155.9H187.9c-10.8,0-19.5-8.7-19.5-19.5V54.1c0-10.8,8.7-19.5,19.5-19.5h287.9 c10.8,0,19.5,8.7,19.5,19.5v82.4C495.3,147.2,486.5,155.9,475.8,155.9z"></path> <rect x="185.5" y="297.8" fill="#FFFFFF" width="122.5" height="4.1"></rect> <linearGradient id="SVGID_7_" gradientUnits="userSpaceOnUse" x1="321.2648" y1="280.7102" x2="146.3035" y2="280.7102"> <stop offset="0" style="stop-color:#EEBF65"></stop> <stop offset="1" style="stop-color:#DC3D57"></stop> </linearGradient> <rect x="185.5" y="278.7" fill="url(#SVGID_7_)" width="91" height="4.1"></rect> <linearGradient id="SVGID_8_" gradientUnits="userSpaceOnUse" x1="321.2655" y1="290.2752" x2="146.3036" y2="290.2752"> <stop offset="0" style="stop-color:#EEBF65"></stop> <stop offset="1" style="stop-color:#DC3D57"></stop> </linearGradient> <rect x="185.5" y="288.2" fill="url(#SVGID_8_)" width="98.3" height="4.1"></rect> <linearGradient id="SVGID_9_" gradientUnits="userSpaceOnUse" x1="321.2626" y1="299.841" x2="146.3044" y2="299.841"> <stop offset="0" style="stop-color:#EEBF65"></stop> <stop offset="1" style="stop-color:#DC3D57"></stop> </linearGradient> <rect x="185.5" y="297.8" fill="url(#SVGID_9_)" width="63.8" height="4.1"></rect> <g> <path fill="#F4F3F4" d="M301.5,350.6H125c-8,0-14.5-6.5-14.5-14.5V177c0-8,6.5-14.5,14.5-14.5h176.5c8,0,14.5,6.5,14.5,14.5 v159.2C315.9,344.1,309.5,350.6,301.5,350.6z"></path> <g> <g> <path fill="#95BEE6" d="M186.7,219.5c4.2-11.6,0.4-24.2-8.5-31.7c-2.1-1.8-4.5-3.3-7.2-4.5c-0.6-0.3-1.2-0.5-1.8-0.7 c-6.2-2.2-12.6-2.2-18.3-0.4c-8.4,2.6-15.4,9-18.6,17.9c-1,2.9-1.6,5.9-1.7,8.9c-0.4,12.2,7.1,23.7,19.2,28.1 C164.8,242.3,181.3,234.5,186.7,219.5z M152.2,230.1c-9.1-3.2-14.6-11.9-14.4-21c0.1-2.2,0.5-4.5,1.3-6.6 c2.4-6.7,7.7-11.4,13.9-13.4c4.3-1.4,9.1-1.4,13.8,0.3c0.5,0.2,0.9,0.3,1.4,0.5c2,0.9,3.8,2,5.4,3.4c6.7,5.7,9.5,15.1,6.4,23.8 C175.8,228.3,163.4,234.2,152.2,230.1z"></path> </g> <g> <path fill="#4672B7" d="M153,189.1l-2.2-6.9c-8.4,2.6-15.4,9-18.6,17.9c-1,2.9-1.6,5.9-1.7,8.9l7.2,0.2 c0.1-2.2,0.5-4.5,1.3-6.6C141.4,195.8,146.7,191,153,189.1z"></path> </g> <g> <path fill="#5781C1" d="M168.1,189.9l2.9-6.6c-0.6-0.3-1.2-0.5-1.8-0.7c-6.2-2.2-12.6-2.2-18.3-0.4l2.2,6.9 c4.3-1.4,9.1-1.4,13.8,0.3C167.2,189.5,167.7,189.7,168.1,189.9z"></path> </g> <g> <path fill="#7BA6D9" d="M178.2,187.7c-2.1-1.8-4.5-3.3-7.2-4.5l-2.9,6.6c2,0.9,3.8,2,5.4,3.4L178.2,187.7z"></path> </g> </g> <g> <rect x="268.6" y="278.1" fill="#7BA6D9" width="10" height="34.3"></rect> </g> <g> <rect x="253.7" y="287.8" fill="#7BA6D9" width="10" height="24.7"></rect> </g> <g> <rect x="283.1" y="262.2" fill="#7BA6D9" width="10" height="50.3"></rect> </g> <g> <polygon fill="#7BA6D9" points="291.5,237.1 291.3,236 264.8,240.4 256.3,258.6 227.7,260.6 218.5,274.2 196.7,273.7 196.6,274.8 219.1,275.3 228.3,261.6 257,259.7 265.6,241.3 "></polygon> </g> <path fill="#5781C1" d="M259.1,191.3h28.5c1.8,0,3.3-1.5,3.3-3.3l0,0c0-1.8-1.5-3.3-3.3-3.3h-28.5c-1.8,0-3.3,1.5-3.3,3.3l0,0 C255.9,189.9,257.3,191.3,259.1,191.3z"></path> <path fill="#7BA6D9" d="M259.1,202.7h28.5c1.8,0,3.3-1.5,3.3-3.3l0,0c0-1.8-1.5-3.3-3.3-3.3h-28.5c-1.8,0-3.3,1.5-3.3,3.3l0,0 C255.9,201.3,257.3,202.7,259.1,202.7z"></path> <path fill="#7BA6D9" d="M259.1,214.1h28.5c1.8,0,3.3-1.5,3.3-3.3l0,0c0-1.8-1.5-3.3-3.3-3.3h-28.5c-1.8,0-3.3,1.5-3.3,3.3l0,0 C255.9,212.6,257.3,214.1,259.1,214.1z"></path> <g> <polygon fill="#7BA6D9" points="207.5,197 191.2,197 191.2,196.3 207.3,196.3 215.8,187.8 226.4,187.8 226.4,188.4 216.1,188.4 "></polygon> </g> <g> <polygon fill="#7BA6D9" points="223,225.5 202,225.5 195.2,218.7 195.6,218.2 202.2,224.8 223,224.8 "></polygon> </g> <rect x="217.4" y="191.9" fill="#5781C1" width="21.8" height="2.7"></rect> <rect x="210.8" y="219.1" fill="#5781C1" width="17.5" height="2.7"></rect> </g> <g> <linearGradient id="SVGID_10_" gradientUnits="userSpaceOnUse" x1="58.9961" y1="315.9093" x2="122.5597" y2="315.9093"> <stop offset="0" style="stop-color:#85CEE0"></stop> <stop offset="1" style="stop-color:#5A6EB3"></stop> </linearGradient> <path fill="url(#SVGID_10_)" d="M64.5,231.9c5.5-2.6,10.9,14.8,10.9,14.8c9.3,12.3,22.3-4.1,21.1,14.3 c-2.2,32.2,37.1,10.1,18.9,43.7c-18.1,33.6,16,19,4.7,46.1c-11.3,27.1,3.3,59.4-13.6,46.2c0,0-14.9-32.7-30.3-42.9 c-15.4-10.1,9.2-22.1,4.4-35.9c-7-20-23.8-19.2-11.7-40.7C81.2,256.2,45.9,240.8,64.5,231.9z"></path> <g> <path fill="#FFFFFF" d="M112,384.8c-7.3-5.2-15.9-41.2-16.5-62.6c-0.3-11-3.5-15.6-6.4-19.6c-2.7-3.9-5.1-7.2-3.7-14.8 c2.6-14.6-4.3-20.9-4.4-21l0.8-0.9c0.3,0.3,7.5,6.8,4.8,22.1c-1.3,7.2,0.8,10.1,3.5,13.9c2.8,4,6.3,8.9,6.6,20.3 c0.6,23,9.3,57,15.9,61.7L112,384.8z"></path> </g> <g> <linearGradient id="SVGID_11_" gradientUnits="userSpaceOnUse" x1="105.6245" y1="351.3785" x2="163.1064" y2="351.3785"> <stop offset="0" style="stop-color:#85CEE0"></stop> <stop offset="1" style="stop-color:#5A6EB3"></stop> </linearGradient> <path fill="url(#SVGID_11_)" d="M114.7,387.4c-0.9,0-2-0.1-3.1-0.3c-2.8-0.6-4.7-2.1-5.5-4.4c-2-5.7,2.6-14.9,6.3-19.3 c0.1-0.1,6.3-7.7,5.6-18.3c-0.1-1.8-0.3-3.4-0.5-4.9c-0.5-4.2-0.8-7.2,1-9.2c1.6-1.8,4.6-2.5,10.2-2.6c9.8,0,13.6-4.1,16.8-7.3 c1.3-1.4,2.6-2.7,4.1-3.5l0,0c4.9-2.7,10-3.1,12.3-0.9c1.1,1,2,3,0.2,6.7c-1.6,3.4-3.7,5.5-5.4,7.2c-2.3,2.3-3.7,3.8-3,6.9 c0.2,0.7,0.4,1.4,0.6,2.2c1.5,5.2,3.2,11-5.6,15c-1.9,0.8-3.6,1.5-5.1,2.1c-6.2,2.4-9.9,3.9-14.1,12.7c-0.8,1.7-1.5,3.3-2.2,4.9 C124.1,381.8,121.6,387.4,114.7,387.4z M150.2,318.7c-1.3,0.7-2.5,1.9-3.8,3.3c-3.3,3.4-7.3,7.7-17.6,7.7c-5.1,0-8,0.7-9.3,2.2 c-1.4,1.6-1.1,4.4-0.7,8.3c0.2,1.5,0.3,3.1,0.5,4.9c0.7,11.1-5.6,18.8-5.9,19.1c-3.7,4.4-7.9,13.1-6.1,18.1 c0.7,1.9,2.2,3.2,4.6,3.7c8.3,1.7,10.6-3.5,14.4-12.1c0.7-1.6,1.4-3.2,2.2-4.9c4.4-9.3,8.5-10.9,14.7-13.3 c1.5-0.6,3.2-1.2,5-2.1c7.9-3.5,6.4-8.4,4.9-13.5c-0.2-0.7-0.4-1.5-0.6-2.2c-0.9-3.7,0.9-5.6,3.3-8c1.7-1.7,3.6-3.7,5.1-6.9 c0.8-1.7,1.5-3.9,0.1-5.3C159.2,315.8,154.6,316.3,150.2,318.7L150.2,318.7z"></path> </g> <g> <linearGradient id="SVGID_12_" gradientUnits="userSpaceOnUse" x1="110.5377" y1="359.7371" x2="153.6825" y2="359.7371"> <stop offset="0" style="stop-color:#85CEE0"></stop> <stop offset="1" style="stop-color:#5A6EB3"></stop> </linearGradient> <path fill="url(#SVGID_12_)" d="M111.8,394.5l-1.2-0.1c0.1-1.1,1.6-28,12.4-35.9c11.8-8.6,15.6-17.9,17.3-24.1 c2.1-7.3,12.8-9.3,13.2-9.4l0.2,1.2c-0.1,0-10.4,1.9-12.3,8.5c-1.8,6.4-5.7,15.9-17.8,24.8C113.3,367,111.8,394.2,111.8,394.5z"></path> </g> <linearGradient id="SVGID_13_" gradientUnits="userSpaceOnUse" x1="94.9586" y1="325.0179" x2="145.2035" y2="325.0179"> <stop offset="0" style="stop-color:#85CEE0"></stop> <stop offset="1" style="stop-color:#5A6EB3"></stop> </linearGradient> <path fill="url(#SVGID_13_)" d="M136.4,259c-7.7-2.6-6.1,12.2-9.3,23.1c-3.2,10.9-36,4.8-22.3,32.2c13.8,27.4-17.4,9.2-8.1,33.1 c9.3,23.9,0.8,49.5,10.9,43c10.1-6.5,5.7-36.6,16.2-40.2c10.5-3.6,12.2-7.7,1.8-17.5c-10.4-9.7,27.3-19.4,18-39 C134.4,274,145.3,262.1,136.4,259z"></path> <g> <path fill="#FFFFFF" d="M112.4,389.1c-1-4.1-9.2-40.1-1.5-44.4c6.8-3.8,6.6-18.8,5.6-32.8c-0.9-12.5,15.1-18.3,15.8-18.5 l0.4,1.1c-0.2,0.1-15.8,5.8-15,17.3c1.1,14.5,1.2,29.8-6.2,34c-5.8,3.3-0.5,32.2,2.1,43.1L112.4,389.1z"></path> </g> <linearGradient id="SVGID_14_" gradientUnits="userSpaceOnUse" x1="83.4288" y1="397.0889" x2="129.793" y2="397.0889"> <stop offset="0" style="stop-color:#E59148"></stop> <stop offset="1" style="stop-color:#F1CC53"></stop> </linearGradient> <polygon fill="url(#SVGID_14_)" points="129.8,376.3 118.8,417.9 94.4,417.9 83.4,376.3 "></polygon> <linearGradient id="SVGID_15_" gradientUnits="userSpaceOnUse" x1="83.4288" y1="397.0889" x2="129.793" y2="397.0889"> <stop offset="0" style="stop-color:#B37239"></stop> <stop offset="1" style="stop-color:#F1CC53"></stop> </linearGradient> <path fill="url(#SVGID_15_)" d="M129.8,376.3c0,0-24.1,4.5-24.1,41.5H94.4l-10.9-41.5H129.8z"></path> </g> <g> <polygon fill="#C0D2EE" points="196,18.1 196,21.6 161.7,21.6 161.7,55.9 158.1,55.9 158.1,18.1 "></polygon> </g> <rect x="478.8" y="7.8" fill="#C0D2EE" width="28" height="2"></rect> <rect x="478.8" y="11.5" fill="#C0D2EE" width="28" height="8.2"></rect> <rect x="459.7" y="14.6" fill="#C0D2EE" width="16.5" height="1.2"></rect> <rect x="459.7" y="16.4" fill="#C0D2EE" width="16.5" height="3.3"></rect> <rect x="506.2" y="7.8" fill="#C0D2EE" width="1.2" height="23.1"></rect> <g> <g> <rect x="163.8" y="322.4" fill="#DCD0C9" width="34.5" height="2"></rect> </g> <g> <rect x="168.4" y="329.7" transform="matrix(-1 -1.224647e-16 1.224647e-16 -1 339.8124 752.5931)" fill="#6E6966" width="3" height="93.1"></rect> </g> <g> <rect x="192.9" y="321.8" fill="#C6BBB5" width="24" height="2.9"></rect> </g> <g> <rect x="200.3" y="296.8" fill="#948C87" width="9.1" height="27.6"></rect> </g> <g> <rect x="151.4" y="324.4" fill="#A98E75" width="132.8" height="5.3"></rect> </g> <g> <path fill="#EAB35D" d="M125.9,292.4c0,0-1.5,20.4,2.5,22.8c2.5,1.5,12.4,6.7,12.1,7.6c-0.3,1-5.6,8.6-5.6,8.6 s-19.1-12.6-19.7-16.5c-0.6-3.9,0.9-29.8,3.6-31c2-0.9,3-0.2,5.5,1.7C127.8,288.1,125.9,292.4,125.9,292.4z"></path> </g> <g> <g> <g> <path fill="#464A72" d="M149.4,410.1c0,0-0.6,4.1-0.7,4.7c-0.1,0.6-6.6-0.4-6.6-0.4l-0.5-4.9 C141.6,409.6,148.6,409.6,149.4,410.1z"></path> </g> </g> </g> <g> <g> <g> <path fill="#303149" d="M148.8,414.4c0,0,2.1,2.5,4.1,3.6c2,1.1,5.1,1.5,6.3,2.6c0.9,0.8,3.1,4.3-5.2,4.2 c-8.3-0.1-12.3,0.5-13.2-0.8c-0.9-1.3,1.3-9.9,1.3-9.9S144,414.8,148.8,414.4z"></path> </g> </g> </g> <g> <g> <g> <path fill="#464A72" d="M191.3,410.2c0,0-0.6,4.1-0.7,4.7c-0.1,0.6-6.6-0.4-6.6-0.4l-0.5-4.9 C183.5,409.6,190.4,409.6,191.3,410.2z"></path> </g> </g> </g> <g> <g> <g> <path fill="#303149" d="M190.7,414.4c0,0,2.1,2.5,4.1,3.6c2,1.1,9.4,2,10.6,3.1c0.9,0.8,2.3,4.1-9.4,3.8 c-8.3-0.2-12.3,0.5-13.2-0.8c-0.9-1.3,1.3-9.9,1.3-9.9S185.8,414.9,190.7,414.4z"></path> </g> </g> </g> <g> <g> <g> <path fill="#303149" d="M128.3,338.9c0,0,23.8,4,29.1,4.9c5.4,0.8,34.5,8.1,38.1,10.3c2.9,1.8-1.5,43.9-2.6,60h-11.5 l-0.8-48.3c-13.7,0.3-23.6-3.2-33.6-1.7c-10,1.5-18.4,3.7-24.7-4.9C122.4,359.3,122.2,340.8,128.3,338.9z"></path> </g> </g> </g> <g> <g> <g> <path fill="#303149" d="M151.7,414.1l-11.2-0.7l-1.1-47.6c-5.9,0.1-7.9-0.2-12.7-0.8l-9-21c7.9,1.6,33.2,8,36.6,10 C157.2,355.8,152.8,398,151.7,414.1z"></path> </g> </g> </g> <g> <g> <g> <path fill="#DCA686" d="M139.3,249.9c0,0,8.7-2.4,12,4.4c3.3,6.8,1.8,19.6-2.6,20.8c-4.4,1.2-10.7-0.2-12.5-4.4 c-1.8-4.2-3.3-10.2-2.8-14.1C133.8,252.7,137,250.8,139.3,249.9z"></path> </g> </g> </g> <g> <g> <g> <path fill="#DCA686" d="M146.4,273.7c0,0-0.1,5.1,0.5,6.2c0.6,1.1-12.1,0.8-12.1,0.8s2-6.2,0.9-11.4 C134.5,264.1,146.4,273.7,146.4,273.7z"></path> </g> </g> </g> <g> <g> <g> <path fill="#3F4149" d="M135,267.4c0,0,0.7,1.4,4,1.2c3.3-0.2,7.6-4.2,9-4.5c1.4-0.4,1.5-1.1,1.5-1.1l0.7,1.3l1.4,0.2 c0,0-1-4,1.1-5.4c2.1-1.4-1-12.7-11.7-9.9c0,0-8.2,1.5-8.3,6.1C132.7,259.7,133.4,264.9,135,267.4z"></path> </g> </g> </g> <g> <g> <g> <path fill="#DCD0C9" d="M147.6,279.8c0,0,0-2.1-1-2.3c-0.9-0.2-10-1.4-11.1-1l-0.5,2.8C135,279.3,137.2,280.7,147.6,279.8z"></path> </g> </g> </g> <g> <g> <g> <path fill="#DCA686" d="M150.2,261.9c-0.2-1.7-2.2-3.7-3.3-1c-1.1,2.7,0.8,6.6,2,6.4C150.1,267,150.5,264.2,150.2,261.9z"></path> </g> </g> </g> <g> <g> <g> <path fill="#373958" d="M185.4,304.5C185.4,304.5,185.4,304.5,185.4,304.5C185.4,304.5,185.5,304.6,185.4,304.5z"></path> </g> </g> </g> <g> <g> <g> <path fill="#3F4149" d="M136.7,251.1c0,0-10.6-0.5-1.9,16.1L136.7,251.1z"></path> </g> </g> </g> <g> <g> <polygon fill="#8C8581" points="113.1,419.8 113.9,422 147.2,411.6 145.6,407.1 "></polygon> </g> </g> <g> <g> <rect x="144.6" y="373.8" fill="#8C8581" width="3.8" height="36.3"></rect> </g> </g> <g> <g> <rect x="135.3" y="371.9" fill="#5E5B56" width="22.4" height="2.1"></rect> </g> </g> <g> <g> <polygon fill="#8C8581" points="180.2,419.8 179.4,422 146,411.6 147.5,406.9 "></polygon> </g> </g> <g> <g> <polygon fill="#8C8581" points="156.7,421.7 156.7,424.3 146,411.6 147.5,406.9 "></polygon> </g> </g> <g> <g> <path fill="#B9AFAA" d="M183.3,422.9c0,1.7-1.4,3.1-3.1,3.1c-1.7,0-3.1-1.4-3.1-3.1c0-1.7,1.4-3.1,3.1-3.1 C181.9,419.7,183.3,421.1,183.3,422.9z"></path> </g> </g> <g> <g> <path fill="#B9AFAA" d="M156.9,422.9c0,1.7-1.4,3.1-3.1,3.1c-1.7,0-3.1-1.4-3.1-3.1c0-1.7,1.4-3.1,3.1-3.1 C155.5,419.7,156.9,421.1,156.9,422.9z"></path> </g> </g> <g> <g> <path fill="#B9AFAA" d="M116.2,422.9c0,1.7-1.4,3.1-3.1,3.1c-1.7,0-3.1-1.4-3.1-3.1c0-1.7,1.4-3.1,3.1-3.1 C114.8,419.7,116.2,421.1,116.2,422.9z"></path> </g> </g> <g> <path fill="#DCD0C9" d="M169.1,371.9h-44.9c-2.2,0-4-1.8-4-4l0,0c0-2.2,1.8-4,4-4h44.9c2.2,0,4,1.8,4,4l0,0 C173.1,370,171.3,371.9,169.1,371.9z"></path> </g> <g> <rect x="264.2" y="329.7" fill="#6E6966" width="3" height="93.1"></rect> </g> <g> <path fill="#B2A7A2" d="M239.4,310.1h-69.2c-2.5,0-4.6-2.1-4.6-4.6v-46.1c0-2.5,2.1-4.6,4.6-4.6h69.2c2.5,0,4.6,2.1,4.6,4.6 v46.1C244.1,308.1,242,310.1,239.4,310.1z"></path> </g> <g> <rect x="168.7" y="257.8" fill="#F4F6FC" width="72.3" height="43.7"></rect> </g> <g> <path fill="#8C8480" d="M237.8,305.6c0,1.2-1.3,2.2-2.9,2.2c-1.6,0-2.9-1-2.9-2.2c0-1.2,1.3-2.2,2.9-2.2 C236.5,303.3,237.8,304.3,237.8,305.6z"></path> </g> <g> <path fill="#948C87" d="M221.1,324.5v-1c0,0-1.4-6.1-11.2-6.1c-9.8,0-9.6,7.1-9.6,7.1H221.1z"></path> </g> <g> <g> <path fill="#DCA686" d="M200.2,318.3c0,0,2.1-0.2,2.9-0.6c0.8-0.5,5.4-3.6,6.5-3.1c1.1,0.5,8.4,2.7,8.1,3.8 c-0.3,1.1-0.9,1-1.4,0.8c-0.5-0.2-5.8-1.3-6.3-1.1c0,0,5.2,1.9,5.2,3.3c0,1.4-1.1,1.7-1.6,2.2c-0.5,0.5-1.1,1.8-2.4,1.9 c-1.3,0.1-7.9-2.2-9.2-2.3c-1.3-0.1-3.8,0.1-4-0.1C197.9,322.9,200.2,318.3,200.2,318.3z"></path> </g> </g> <g> <g> <g> <path fill="#EAB35D" d="M161.5,282.7c-6.8-1.2-13.9-2.9-13.9-2.9l-12.6-0.5c0,0-11.6,2.6-16.2,4.6c-0.4,0.2-0.4,10.3-1.6,13 l3.8,8c0,0,2.2,15.8,2.6,22.8c0.2,3.2-0.6,31.2-0.6,31.2s1.1,0.6,9.8,1.5c8.6,1,30.1-0.3,30.3-1.4c0.1-1-4.2-37.9-4.4-39.8 c-0.3-2.9,0.8-16.5,0.8-16.5c1.6,2.2,5.8,12,10.1,16.7c2.5,2.8,15.1,4.4,17.5,4.5c5.2,0.2,14.6,1.2,14.8,0.7 c0.2-0.3,0.8-8.4,0.2-8.5c-0.5-0.2-18-1.2-22.5-3.6c-1.6-0.9-6.5-11.5-6.5-11.5S165.2,284.4,161.5,282.7z"></path> </g> </g> </g> <g> <path fill="#DCD0C9" d="M135.4,358.1h-18.8c-4.9,0-8.9-4-8.9-8.9v-32.9c0-4.9,4-8.9,8.9-8.9h18.8c4.9,0,8.9,4,8.9,8.9v32.9 C144.3,354.1,140.3,358.1,135.4,358.1z"></path> </g> <g> <path fill="#DCD0C9" d="M137.8,369.8c-5.4,0-9.8-1.8-13-5.4c-7.3-8.1-6-22.2-5.9-22.8c0.1-1.1,1.1-1.9,2.2-1.8 c1.1,0.1,1.9,1.1,1.8,2.2c0,0.2-1.2,13,4.9,19.7c2.5,2.7,5.7,4,10,4c1.1,0,2,0.9,2,2C139.9,368.9,138.9,369.8,137.8,369.8z"></path> </g> <g> <g> <g> <path fill="#DDDEE6" d="M194.4,263.6h-19.8c-0.4,0-0.7-0.3-0.7-0.7v-1c0-0.4,0.3-0.7,0.7-0.7h19.8c0.4,0,0.7,0.3,0.7,0.7v1 C195,263.3,194.7,263.6,194.4,263.6z"></path> </g> </g> </g> <g> <g> <g> <path fill="#DDDEE6" d="M194.4,268.5h-19.8c-0.4,0-0.7-0.3-0.7-0.7v-1c0-0.4,0.3-0.7,0.7-0.7h19.8c0.4,0,0.7,0.3,0.7,0.7v1 C195,268.2,194.7,268.5,194.4,268.5z"></path> </g> </g> </g> <g> <g> <g> <path fill="#DDDEE6" d="M192.8,298h-16.7c-1.2,0-2.2-1-2.2-2.2v-21.6c0-1.2,1-2.2,2.2-2.2h16.7c1.2,0,2.2,1,2.2,2.2v21.6 C195,297,194,298,192.8,298z"></path> </g> </g> </g> <g> <g> <g> <path fill="#DDDEE6" d="M233.5,298h-30.7c-1.9,0-3.5-1.6-3.5-3.5v-29.7c0-1.9,1.6-3.5,3.5-3.5h30.7c1.9,0,3.5,1.6,3.5,3.5 v29.7C237,296.4,235.4,298,233.5,298z"></path> </g> </g> </g> </g> <g> <g> <g> <path fill="#7BA6D9" d="M266,83.9c-6.4-17.8-23.3-28.7-41.2-28.1c-4.3,0.1-8.7,0.9-13,2.5c-13,4.7-22.4,15-26.2,27.3 c-2.7,8.5-2.7,17.9,0.6,26.9c0.3,0.9,0.7,1.8,1,2.6c1.7,3.9,3.9,7.5,6.6,10.6c11.1,13.1,29.5,18.6,46.6,12.5 C262.4,130.2,273.9,105.9,266,83.9z M236.7,128.1c-12.8,4.6-26.6,0.4-35-9.3c-2-2.3-3.7-5-4.9-7.9c-0.3-0.6-0.5-1.3-0.8-2 c-2.4-6.8-2.4-13.8-0.4-20.2c2.9-9.2,9.9-17,19.7-20.5c3.2-1.2,6.5-1.8,9.8-1.9c13.4-0.4,26.2,7.8,30.9,21.1 C261.9,104,253.3,122.2,236.7,128.1z"></path> </g> </g> <g> <g> <path fill="#395A89" d="M195.6,88.7l-10.1-3.2c3.8-12.3,13.2-22.7,26.2-27.3c4.3-1.5,8.7-2.3,13-2.5l0.3,10.6 c-3.2,0.1-6.5,0.7-9.8,1.9C205.5,71.7,198.5,79.5,195.6,88.7z"></path> </g> </g> <g> <g> <path fill="#4773B2" d="M196.8,110.9l-9.7,4.2c-0.4-0.9-0.7-1.7-1-2.6c-3.2-9-3.2-18.4-0.6-26.9l10.1,3.2 c-2,6.4-2,13.4,0.4,20.2C196.3,109.6,196.5,110.2,196.8,110.9z"></path> </g> </g> <g> <g> <path fill="#5886C5" d="M193.6,125.7c-2.6-3.1-4.9-6.7-6.6-10.6l9.7-4.2c1.3,2.9,2.9,5.6,4.9,7.9L193.6,125.7z"></path> </g> </g> </g> <g> <g> <g> <rect x="282.8" y="86.5" fill="#DEDEDE" width="7.5" height="53.5"></rect> </g> <g> <rect x="301.4" y="97.3" fill="#DEDEDE" width="7.5" height="42.7"></rect> </g> <g> <rect x="320.1" y="89.3" fill="#DEDEDE" width="7.5" height="50.7"></rect> </g> <g> <rect x="338.7" y="105.1" fill="#DEDEDE" width="7.5" height="34.9"></rect> </g> <g> <rect x="357.4" y="91" fill="#DEDEDE" width="7.5" height="49"></rect> </g> <g> <rect x="376.1" y="83.6" fill="#DEDEDE" width="7.5" height="56.4"></rect> </g> <g> <rect x="394.7" y="80.5" fill="#DEDEDE" width="7.5" height="59.5"></rect> </g> <g> <rect x="282.8" y="106.4" fill="#E0665B" width="7.5" height="33.6"></rect> </g> <g> <rect x="301.4" y="113.2" fill="#E0665B" width="7.5" height="26.8"></rect> </g> <g> <rect x="320.1" y="108.2" fill="#E0665B" width="7.5" height="31.8"></rect> </g> <g> <rect x="338.7" y="118.1" fill="#E0665B" width="7.5" height="21.9"></rect> </g> <g> <rect x="357.4" y="109.2" fill="#E0665B" width="7.5" height="30.8"></rect> </g> <g> <rect x="376.1" y="104.6" fill="#E0665B" width="7.5" height="35.4"></rect> </g> <g> <rect x="394.7" y="102.7" fill="#E0665B" width="7.5" height="37.3"></rect> </g> </g> <g> <rect x="415.3" y="86.5" fill="#DEDEDE" width="7.5" height="53.5"></rect> </g> <g> <rect x="434" y="97.3" fill="#DEDEDE" width="7.5" height="42.7"></rect> </g> <g> <rect x="452.7" y="89.3" fill="#DEDEDE" width="7.5" height="50.7"></rect> </g> <g> <rect x="471.3" y="105.1" fill="#DEDEDE" width="7.5" height="34.9"></rect> </g> <g> <rect x="415.3" y="106.4" fill="#E0665B" width="7.5" height="33.6"></rect> </g> <g> <rect x="434" y="113.2" fill="#E0665B" width="7.5" height="26.8"></rect> </g> <g> <rect x="452.7" y="108.2" fill="#E0665B" width="7.5" height="31.8"></rect> </g> <g> <rect x="471.3" y="118.1" fill="#E0665B" width="7.5" height="21.9"></rect> </g> </g> <path fill="#7BA6D9" d="M281.4,60H476c1.6,0,2.9-1.3,2.9-2.9v-1.9c0-1.6-1.3-2.9-2.9-2.9H281.4c-1.6,0-2.9,1.3-2.9,2.9v1.9 C278.6,58.7,279.9,60,281.4,60z"></path> <path fill="#C0D2EE" d="M281.4,73.4H476c1.6,0,2.9-1.3,2.9-2.9v-1.9c0-1.6-1.3-2.9-2.9-2.9H281.4c-1.6,0-2.9,1.3-2.9,2.9v1.9 C278.6,72.1,279.9,73.4,281.4,73.4z"></path> <g> <path fill="#F4F3F4" d="M402.2,317.4h-73c-5,0-9.1-4.1-9.1-9.1V171.7c0-5,4.1-9.1,9.1-9.1h73c5,0,9.1,4.1,9.1,9.1v136.6 C411.3,313.3,407.2,317.4,402.2,317.4z"></path> </g> <g> <g> <rect x="326.4" y="255" fill="#7BA6D9" width="0.4" height="51.2"></rect> </g> <g> <rect x="345.8" y="255" fill="#7BA6D9" width="0.4" height="51.2"></rect> </g> <g> <rect x="365.2" y="255" fill="#7BA6D9" width="0.4" height="51.2"></rect> </g> <g> <rect x="384.6" y="255" fill="#7BA6D9" width="0.4" height="51.2"></rect> </g> <g> <rect x="404" y="255" fill="#7BA6D9" width="0.4" height="51.2"></rect> </g> </g> <linearGradient id="SVGID_16_" gradientUnits="userSpaceOnUse" x1="326.6315" y1="282.364" x2="404.2138" y2="282.364"> <stop offset="0" style="stop-color:#85CEE0"></stop> <stop offset="1" style="stop-color:#5A6EB3"></stop> </linearGradient> <path fill="url(#SVGID_16_)" d="M326.6,285.4c0,0,7.9,6.7,15.5-1.2c7.6-7.9,16.4-10.5,24.2-3.9c7.8,6.6,10.8-2.5,18.6-9.9 c7.8-7.5,7.7-11.7,19.2-11.7v47.5h-77.6V285.4z"></path> <rect x="346" y="250.7" fill="#7BA6D9" width="4.8" height="1.9"></rect> <rect x="326.4" y="250.7" fill="#7BA6D9" width="6.6" height="1.9"></rect> <rect x="365.4" y="250.7" fill="#7BA6D9" width="5.9" height="1.9"></rect> <rect x="384.6" y="250.7" fill="#7BA6D9" width="5.9" height="1.9"></rect> <rect x="398.3" y="250.7" fill="#7BA6D9" width="5.9" height="1.9"></rect> <linearGradient id="SVGID_17_" gradientUnits="userSpaceOnUse" x1="374.8877" y1="218.6939" x2="400.8229" y2="218.6939"> <stop offset="0" style="stop-color:#85CEE0"></stop> <stop offset="1" style="stop-color:#5A6EB3"></stop> </linearGradient> <rect x="374.9" y="217.1" fill="url(#SVGID_17_)" width="25.9" height="3.3"></rect> <linearGradient id="SVGID_18_" gradientUnits="userSpaceOnUse" x1="374.8877" y1="232.4451" x2="398.6953" y2="232.4451"> <stop offset="0" style="stop-color:#85CEE0"></stop> <stop offset="1" style="stop-color:#5A6EB3"></stop> </linearGradient> <rect x="374.9" y="230.8" fill="url(#SVGID_18_)" width="23.8" height="3.3"></rect> <linearGradient id="SVGID_19_" gradientUnits="userSpaceOnUse" x1="374.8877" y1="225.5706" x2="395.487" y2="225.5706"> <stop offset="0" style="stop-color:#85CEE0"></stop> <stop offset="1" style="stop-color:#5A6EB3"></stop> </linearGradient> <rect x="374.9" y="223.9" fill="url(#SVGID_19_)" width="20.6" height="3.3"></rect> <path fill="#7BA6D9" d="M351.6,212.4c0,2.5-2,4.5-4.5,4.5c-2.5,0-4.5-2-4.5-4.5c0-2.5,2-4.5,4.5-4.5 C349.6,207.8,351.6,209.9,351.6,212.4z"></path> <path fill="#7BA6D9" d="M355.3,227.2v8.6c-2.5,1.1-5.3,1.8-8.2,1.8c-2.9,0-5.7-0.6-8.2-1.8v-8.6c0-4.5,3.7-8.2,8.2-8.2 C351.6,218.9,355.3,222.6,355.3,227.2z"></path> <g> <linearGradient id="SVGID_20_" gradientUnits="userSpaceOnUse" x1="326.6315" y1="217.6628" x2="367.489" y2="217.6628"> <stop offset="0" style="stop-color:#D3D8DE"></stop> <stop offset="1" style="stop-color:#FFFFFF"></stop> </linearGradient> <path fill="url(#SVGID_20_)" d="M347.1,238.1c-2.9,0-5.8-0.6-8.4-1.8c-7.3-3.3-12-10.6-12-18.6c0-11.3,9.2-20.4,20.4-20.4 c11.3,0,20.4,9.2,20.4,20.4c0,8-4.7,15.3-12,18.6C352.8,237.5,350,238.1,347.1,238.1z M347.1,198.3c-10.7,0-19.4,8.7-19.4,19.3 c0,7.6,4.5,14.5,11.4,17.6c2.5,1.1,5.2,1.7,8,1.7c2.8,0,5.5-0.6,8-1.7c6.9-3.1,11.4-10.1,11.4-17.6 C366.4,207,357.7,198.3,347.1,198.3z"></path> </g> <g> <path fill="#7BA6D9" d="M387.6,209c-6.8,0-12.3-5.5-12.3-12.3c0-6.8,5.5-12.3,12.3-12.3c6.8,0,12.3,5.5,12.3,12.3 C399.9,203.5,394.4,209,387.6,209z M387.6,186.8c-5.4,0-9.9,4.4-9.9,9.9c0,5.4,4.4,9.9,9.9,9.9c5.4,0,9.9-4.4,9.9-9.9 C397.5,191.2,393,186.8,387.6,186.8z"></path> </g> <rect x="346.1" y="172.1" fill="#7BA6D9" width="18.6" height="3"></rect> <rect x="348.9" y="179.7" fill="#7BA6D9" width="15.9" height="3"></rect> <rect x="339.2" y="187.4" fill="#7BA6D9" width="25.5" height="3"></rect> <g> <path fill="#F4F3F4" d="M476.6,206.4h-57.2c-1.3,0-2.3-1-2.3-2.3v-39.5c0-1.3,1-2.3,2.3-2.3h57.2c1.3,0,2.3,1,2.3,2.3v39.5 C478.8,205.4,477.8,206.4,476.6,206.4z"></path> </g> <linearGradient id="SVGID_21_" gradientUnits="userSpaceOnUse" x1="422.0413" y1="175.5098" x2="443.607" y2="175.5098"> <stop offset="0" style="stop-color:#7BA6D9"></stop> <stop offset="1" style="stop-color:#5584C4"></stop> </linearGradient> <path fill="url(#SVGID_21_)" d="M442.3,177.1h-19c-0.7,0-1.3-0.6-1.3-1.3v-0.6c0-0.7,0.6-1.3,1.3-1.3h19c0.7,0,1.3,0.6,1.3,1.3 v0.6C443.6,176.5,443,177.1,442.3,177.1z"></path> <linearGradient id="SVGID_22_" gradientUnits="userSpaceOnUse" x1="422.0413" y1="168.4025" x2="438.9406" y2="168.4025"> <stop offset="0" style="stop-color:#7BA6D9"></stop> <stop offset="1" style="stop-color:#5584C4"></stop> </linearGradient> <path fill="url(#SVGID_22_)" d="M437.8,170h-14.6c-0.6,0-1.1-0.5-1.1-1.1V168c0-0.6,0.5-1.1,1.1-1.1h14.6c0.6,0,1.1,0.5,1.1,1.1 v0.9C438.9,169.5,438.4,170,437.8,170z"></path> <polygon fill="#7BA6D9" points="422,200.3 434.5,187.8 438.3,191.5 452,177.8 458.1,183.9 474,168 474,200.3 "></polygon> <polygon fill="#5988C6" points="473.9,200.3 473.9,175.5 457.4,191.9 451.6,186.1 441.7,195.9 434.3,192.9 422,200.3 "></polygon> <g> <g> <path fill="#3B3D5E" d="M436.6,416c0,0-4.6,6.5-4,7.5c0.6,1,5.5,1.2,8.4,0c2.9-1.2,3-8.8,4.4-12c0.6-1.4-0.6-5.4-2.3-5.7 c-1.7-0.3-3.5,0.6-3.5,0.6S441.3,411,436.6,416z"></path> </g> <g> <g> <path fill="#DCA686" d="M439.5,406.3c0,0-1,2.8-1.3,5.4c-0.3,2.2-3.3,6.8-3.1,7.4c0.1,0.6,3.9,1.1,5.5-0.4 c1.5-1.5,2.5-5.9,2.9-8.5c0.3-2.4,0.7-3.7,0.7-3.7S441,404.7,439.5,406.3z"></path> </g> </g> <g> <path fill="#3B3D5E" d="M476.6,416.1c0,0-4.4,6.4-3.8,7.4c0.6,1,5.5,1.2,8.4,0c2.9-1.2,3-8.8,4.4-12c0.6-1.4-0.6-5.4-2.3-5.7 c-1.7-0.3-3.7,0.6-3.7,0.6S481.4,411.1,476.6,416.1z"></path> </g> <g> <g> <path fill="#DCA686" d="M479.6,406.4c0,0-0.4,3-0.9,5.1c-0.6,2.1-3.6,7-3.4,7.5c0.1,0.6,3.9,1.1,5.5-0.4 c1.5-1.5,2.7-5.9,2.9-8.5c0.1-2.6-0.3-4.4-0.3-4.4S481.1,404.8,479.6,406.4z"></path> </g> </g> <g> <g> <path fill="#DCA686" d="M457.5,301.1c0,0-4,19.2-4.9,24c-0.9,4.8-3.4,28.2-3.7,32.2c-0.3,4-4.1,19-3.9,20.4 c0.2,1.4-5.7,30-5.7,30s2,1.7,4.1,0.2c1.1-0.8,12.9-26.7,12.9-33.8c0-9.8,7-22.6,7.9-24.8c8.3-20.4,6.7-26.6,7.8-28 c1.1-1.3,1.2,0.8,1.8,3.8c0.6,2.9,2,28.3,2.8,31.5c0.8,3.2,0.2,14.1,0.6,19.6c0.5,5.5,2.4,30.3,2.4,30.3s1.5,2.5,3.7,0.1 c0.5-0.5,3.7-27.7,3.8-34.2c0.1-6.5,0.2-15.5,0.4-18.4c1.7-27.1,5.8-31-0.7-50.1C474.7,267.9,457.5,301.1,457.5,301.1z"></path> </g> </g> <g> <path fill="#43476D" d="M484,295.7c0,0,11.3,16.4,6.4,51.4c0,0-26.7,3.8-41-4.4c0,0,5.9-36.1,8.1-41.7 C459.6,295.5,484,295.7,484,295.7z"></path> </g> <g> <polygon fill="#3B3D5E" points="445.5,410.9 445.5,417.7 444.6,417.7 444.6,412.5 "></polygon> </g> <g> <polygon fill="#3B3D5E" points="485.7,410.9 485.7,417.7 484.9,417.7 484.9,412.5 "></polygon> </g> <path fill="#DCA686" d="M470.7,222.8c0,0-7.5,7.6-5,17.4c2.6,9.8,6.7,9.8,11.2,5.6c4.5-4.2,7.2-8.6,7.8-13.6 C485.4,227.3,477.5,216,470.7,222.8z"></path> <path fill="#DCA686" d="M469.2,255.4c0,0,1.1-2.6,1.9-5.4c0.1-0.5,0.3-1,0.4-1.5c0.4-1.8,0.5-3.6,0.1-4.8 c-1.2-3.6,7.5-1.1,7.5-1.1s-1.7,9.4,0,12.6C480.8,258.3,469.2,255.4,469.2,255.4z"></path> <path fill="#E7D9D2" d="M491.3,259.9c-1.4-2.7-2.4-3.6-5.1-4.5c-1.5-0.5-8.1-2.2-8.1-2.2l-8-0.3c0,0-5.5,0.9-9.8,2.4 c-4.3,1.5-9.8,9.5-9.8,9.5s7.7,18.1,9.2,23.3c1.5,5.2,0.5,13.2,0.5,13.2c9.2,5,24-0.5,24-0.5c-1.1-4.1-1.2-8.8-0.6-12.2 c0.1-0.4,0.1-0.8,0.2-1.1c0.1-0.3,0.2-0.8,0.3-1.3c0,0,0,0,0-0.1c5.9,0.6,11.4,0.8,11.5-0.3C496.4,280.6,493.2,263.7,491.3,259.9 z M487.3,280.5c-0.2,0-0.7,0-1.3-0.1c0.7-1.8,1.4-3.4,1.4-3.4C487.8,278.2,489.4,280.9,487.3,280.5z"></path> <path fill="#CD7350" d="M473.1,228.3c0,0,3.6,6.6,5.8,8.9c2.2,2.4,2,4.2,2,4.2s8.7-10.8,2.5-17.3c-6.2-6.5-14.3-3.9-16.6,1.8 c-2.3,5.7-1.5,12.6-1.5,12.6S465.4,231.9,473.1,228.3z"></path> <path fill="#CD7350" d="M475.5,221.4c0,0-0.9-4.8,6.7-6.7c7.5-1.9,10.9,6.8,10,12.1c-0.9,5.3-7.4,18.7-3.9,20.5 c3.5,1.7,4.9-2,4.9-2s-1.1,6.6-5.9,5.1c-4.9-1.5-4.2-12.3-3.5-16.5C484.4,229.5,475.5,221.4,475.5,221.4z"></path> <path fill="#9A7761" d="M477.9,244.9c0,0.1-1.9,4.5-6.8,5.1c0.1-0.5,0.3-1,0.4-1.5C471.5,248.5,474.1,249,477.9,244.9z"></path> <path fill="#C8BCB6" d="M487.3,277.1c0,0-0.4,0.8-1.3,3.7c-1-8.4-0.5-12.7-0.5-12.7C485.6,272.6,487.3,277.1,487.3,277.1z"></path> <path fill="#E7D9D2" d="M476.7,220.4c0,0,5.3,1,8,5.4c0,0-0.5-3.9-3.2-5.1C478.8,219.6,476.7,220.4,476.7,220.4z"></path> <path fill="#C8BCB6" d="M484.2,286.3c-0.1,0.5-0.2,1-0.3,1.3c-0.1,0.4-0.2,0.7-0.2,1.1c-3.3-1.8-5.7-3.2-5.7-3.2 C478.9,285.7,484.2,286.3,484.2,286.3z"></path> <path fill="#DCA686" d="M478.6,253.4l-9.4,7.7l1-8.1C470.1,253,475.6,251.8,478.6,253.4z"></path> <polygon fill="#CFC3BC" points="471.9,259.7 469.2,261 478.4,251.9 "></polygon> <path fill="#4D517D" d="M484.8,285.7c-1.3,5.4,3.5,17.4,3.5,17.4l-9.5,3c-1.4,0.4-2.8-0.4-3.1-1.8c-1.3-5.9-4.3-20.4-4.6-28.5 c-0.5-10.3,7.1-22.5,7.1-22.5c13.3,2.3,9.7,22.5,9.7,22.5s-0.5,1.3-1.1,3.3c0,0,0,0,0,0c-0.2,0.5-0.3,1-0.5,1.6 C485.7,282.1,485.2,283.8,484.8,285.7z"></path> <path fill="#4D517D" d="M469.2,253.4l0.2-0.4c0,0-6.8,1-10.3,2.8c-3.5,1.7-10.1,10.7-10.1,10.7l8.7,11.5c0,8.8-1.4,24.5-1.4,24.5 l4,2.3c1.1,0.6,2.4-0.1,2.4-1.4c0.1-6,0.4-20.1,0.5-27c0.2-8.8,6.5-23.1,6.5-23.1C469.5,253.3,469.3,253.3,469.2,253.4z"></path> <path fill="#DCA686" d="M456.8,294.8c0,0,6.6,0.3,7.6,0c1-0.3,7.8-3.2,8.2-6.1c0.4-2.9-15.8,2.6-15.8,2.6V294.8z"></path> <polygon fill="#6E77B8" points="477.2,285.7 450.5,282.5 462.6,292.3 "></polygon> <polygon fill="#373958" points="462.6,292.3 477.2,287.4 477.2,285.7 462.1,290.5 "></polygon> <g> <path fill="#DCA686" d="M469.4,280.8c0,0-2.2,0-3.4-0.3c-1-0.2-3.3,0.1-3.9,0.6c-0.6,0.5-2.5,4.3-2.9,4.5 c-0.4,0.2,0.2,0.8,0.8,0.5c0,0,0.6,1.6,2,1c1.4-0.6,2.4-1.9,3.2-2.2c0.8-0.2,5.2-1.4,5.2-1.4S470.6,280.4,469.4,280.8z"></path> </g> <polygon fill="#F4E5DC" points="470.6,251.5 465.6,259.5 463.1,261 468.8,253 "></polygon> <polygon fill="#CFC3BC" points="465.6,259.5 469.2,261 470.1,253 470.6,251.5 "></polygon> <path fill="#4D517D" d="M457.6,291c0,0-0.3,3.4,0,4.1c0,0-16.4-1.6-17.9-3.9c-1.5-2.3-1.5-5.1-1.5-5.1L457.6,291z"></path> <polygon fill="#2B2B41" points="462.6,292.3 454.8,263.5 425.3,260.4 433.4,286.9 "></polygon> <polygon fill="#F4E5DC" points="478.4,251.9 471.9,259.7 475.5,262.9 479.3,253.5 "></polygon> <path fill="#42456A" d="M486.9,278.3c0,0-0.2,0.7-0.2,0.7c-0.2,0.5-0.3,1-0.5,1.6c-1.3,0.4-12.2-0.4-12.2-0.4 S483.1,278.1,486.9,278.3z"></path> <path fill="#4D517D" d="M486.3,280.4c-1.8-0.1-4.6-0.3-7-0.3c-3.7,0-9.9,0.4-9.9,0.4l0.7,3.9c0,0,11.1,1.8,17.2,2.2l0,0 c0,0,8,0.9,8.6-0.3c0.6-1.2-0.2-8.9-1.5-15.8c-1.3-6.9-2.6-10.9-4.2-13c-1.6-2.1-10-3.8-10-3.8l7.1,23.3c0,0,1,2.1,1,3 c0,0.3-0.2,0.4-0.5,0.5c-0.2,0-0.6,0-1.1-0.1L486.3,280.4z"></path> </g> </g> </g> <g> </g> <g> </g> <g> </g> <g> </g> <g> </g> <g> </g> </svg> 