<svg xmlns="http://www.w3.org/2000/svg" version="1.1" viewBox="0 0 1600 1600" width="200" height="200">
<path transform="translate(798,94)" d="m0 0c1.83 0.0508 1.83 0.0508 4 1 1.86 2.67 1.86 2.67 3.75 6.19 0.694 1.27 1.39 2.54 2.08 3.81 0.531 0.986 0.531 0.986 1.07 1.99 1.78 3.27 3.66 6.48 5.53 9.7 3.44 5.94 3.44 5.94 4.56 9.31 0.99 0.33 1.98 0.66 3 1 1.16 1.74 1.16 1.74 2.29 3.98 2.68 5.07 5.8 9.7 9.09 14.4 3.54 5.1 7.03 10.2 10.2 15.5 3.03 4.87 6.64 9.1 10.4 13.4 3.19 3.69 5.92 7.49 8.55 11.6 2.12 3.08 4.64 5.75 7.16 8.51 4.22 4.8 8.08 9.89 12 14.9 1.17 1.5 2.35 2.99 3.54 4.47 0.637 0.799 1.27 1.6 1.93 2.42 0.826 1.03 0.826 1.03 1.67 2.08 1.14 1.67 1.14 1.67 1.14 3.67 0.99 0.33 1.98 0.66 3 1 1.36 1.71 1.36 1.71 2.75 3.94 2.13 3.32 4.29 6.59 6.56 9.81 2.75 3.9 5.47 7.82 8.19 11.8 0.773 1.12 1.55 2.23 2.32 3.35 1.31 1.89 2.62 3.78 3.92 5.67 3.93 5.65 7.98 11.2 12.1 16.7 2.98 4.04 5.82 8.14 8.62 12.3 3.76 5.5 7.93 10.5 12.3 15.5 3.35 3.84 6.29 7.76 9.01 12.1 1.2 1.84 2.49 3.48 3.92 5.14 2.31 2.75 2.31 2.75 3.64 5.02 2.01 3.28 4.38 6.19 6.8 9.17 4.75 5.92 8.91 12.1 12.9 18.5 1.91 3.09 1.91 3.09 4.23 5.84 1.75 2.22 1.75 2.22 1.75 4.22 0.99 0.33 1.98 0.66 3 1 1.79 2.05 3.43 4.08 5.06 6.25 0.447 0.574 0.893 1.15 1.35 1.74 2.45 3.21 4.3 6.14 5.58 10h2c1.12 1.55 1.12 1.55 2.44 3.75 2.55 3.97 5.37 7.28 8.62 10.7 6.59 6.93 12 14.7 17.5 22.5 0.968 1.37 1.95 2.74 2.95 4.09 3.51 4.77 3.51 4.77 3.51 6.97 0.99 0.33 1.98 0.66 3 1 1.61 2.07 3.1 4.14 4.56 6.31 4.02 5.8 8.31 11.3 12.9 16.6 2.69 3.21 5.29 6.49 7.87 9.8 8.19 10.5 16.4 20.9 25.4 30.7 2.74 3.13 5.27 6.39 7.81 9.69 4.14 5.36 8.5 10.2 13.4 14.9 4.34 4.13 8.01 8.65 11.8 13.3 4.41 5.44 8.79 10.3 14.2 14.8 3.24 2.93 5.81 6.35 8.51 9.77 3.54 4.39 7.48 8.43 11.4 12.5 4.17 4.38 4.17 4.38 4.17 6.6 0.577 0.24 1.16 0.48 1.75 0.727 2.7 1.53 4.23 3.29 6.25 5.65 3.57 4.08 7.27 7.95 11.1 11.8 3.87 3.83 7.61 7.72 11.1 11.9 2.15 2.51 4.34 4.99 6.54 7.46 0.749 0.844 1.5 1.69 2.27 2.56 1.76 2.07 1.76 2.07 3.92 3v2c0.99 0.33 1.98 0.66 3 1 1.68 1.71 1.68 1.71 3.44 3.81 1.94 2.3 3.84 4.46 6 6.56 1.56 1.62 1.56 1.62 1.56 3.62 0.99 0.33 1.98 0.66 3 1 1.69 1.98 3.36 3.98 5 6 0.66 0.33 1.32 0.66 2 1v2c0.593 0.255 1.19 0.51 1.8 0.773 2.43 1.35 3.7 2.71 5.45 4.85 4.19 4.96 8.72 9.57 13.5 14 1.27 1.39 1.27 1.39 1.27 3.39 0.99 0.33 1.98 0.66 3 1 1.72 2 1.72 2 3.5 4.44 2.11 2.89 3.48 4.55 6.5 6.56v2c0.601 0.255 1.2 0.51 1.82 0.772 2.43 1.37 3.45 2.6 5.04 4.88 2.96 4.12 6.1 8.05 9.32 12 2.27 2.79 4.54 5.58 6.81 8.38 0.498 0.612 0.995 1.22 1.51 1.85 6.63 8.19 12.6 16.6 18.4 25.5 1.55 2.34 3.17 4.63 4.79 6.92 8.98 12.8 16.2 25.9 21.3 40.7 0.639 1.87 1.32 3.73 2.09 5.56 1.13 2.94 1.79 5.86 2.46 8.94 0.692 3.19 1.38 6.23 2.5 9.3 1.42 4.62 1.95 9.29 2.57 14.1 0.248 1.9 0.499 3.81 0.754 5.71 0.162 1.25 0.162 1.25 0.326 2.53 0.167 1.94 0.167 1.94 1.36 2.95 0.498 2.07 0.947 4.16 1.38 6.25 2.56 12.3 2.56 12.3 5.65 24.4 1.29 5.13 1.6 10.3 1.97 15.6 0.505 6.97 1.29 13.8 2.5 20.6 0.898 5.53 1.43 11.1 2 16.7 0.127 1.21 0.255 2.43 0.386 3.68 0.586 5.59 1.16 11.2 1.72 16.8 0.0896 0.885 0.179 1.77 0.271 2.68 0.164 1.63 0.325 3.26 0.48 4.89 0.072 3.51 0.072 3.51 1.65 6.42 1.17 6.51 1.05 12.9 0.938 19.5-0.0444 3.33-0.0444 3.33 0.542 5.88 0.909 4.55 0.986 9.16 1.21 13.8 0.0599 0.991 0.12 1.98 0.182 3 0.281 5.87-0.063 11-1.51 16.7-0.535 3.05 0.545 5.22 1.64 8.07 1 7.17-1.1 12.5-4 19-0.577 1.39-1.14 2.79-1.69 4.19-0.346 0.857-0.346 0.857-0.699 1.73-0.728 2.24-0.728 2.24-0.961 5.32-0.768 4.42-2.33 7.75-4.4 11.7-0.363 0.707-0.727 1.41-1.1 2.14-2.49 4.8-5.09 9.46-8.15 13.9-0.712 1.06-0.712 1.06-1.44 2.13-3.83 5.59-7.85 11-11.9 16.5-0.792 1.09-0.792 1.09-1.6 2.19-0.499 0.671-0.999 1.34-1.51 2.03-0.448 0.607-0.895 1.21-1.36 1.84-0.402 0.432-0.804 0.865-1.22 1.31h-2c-0.165 0.866-0.33 1.73-0.5 2.62-1.82 4.09-3.82 5.32-7.41 7.8-4.19 3.14-7.18 7.38-10.3 11.5-0.578 0.681-1.16 1.36-1.75 2.06h-2c-0.0954 0.574-0.191 1.15-0.289 1.74-2.69 8.56-13 15-19.7 20.3-0.942 0.773-1.88 1.55-2.86 2.34l-5.15 4.22c-2 1.43-2 1.43-4 1.43-0.24 0.588-0.48 1.18-0.727 1.78-1.53 2.66-3.18 3.91-5.65 5.72-2.46 1.81-4.66 3.53-6.79 5.72-1.84 1.78-1.84 1.78-3.84 1.78v2c-1.29 1.34-1.29 1.34-3.19 2.94-0.728 0.617-1.46 1.23-2.21 1.87-0.86 0.723-1.72 1.45-2.61 2.19-1.03 0.886-2.05 1.77-3.07 2.66-5.73 4.95-11.5 9.63-17.8 13.8-2.22 1.52-2.22 1.52-4.23 3.64-1.89 1.89-1.89 1.89-4.58 3.2-4.58 2.33-8.31 5.48-12.3 8.69-2.27 1.8-4.54 3.59-6.81 5.38-0.601 0.473-1.2 0.946-1.82 1.43-4.73 3.72-9.53 7.34-14.4 10.9-3.24 2.43-6.43 4.9-9.63 7.38-4.68 3.63-9.45 7.09-14.4 10.4-1.89 1.37-3.4 2.81-5.02 4.47-6.66 5.74-13.8 10.8-21 15.8-3.04 2.12-5.99 4.23-8.86 6.57-2.11 1.64-2.11 1.64-4.11 1.64-0.33 0.99-0.66 1.98-1 3-1.5 1.18-1.5 1.18-3.44 2.31-0.721 0.431-1.44 0.861-2.18 1.3-0.785 0.456-1.57 0.913-2.38 1.38-6.89 4.03-13.3 8.27-19.5 13.2-1.15 0.907-2.3 1.81-3.45 2.71-1.15 0.902-2.3 1.81-3.44 2.72-2.86 2.24-5.07 3.51-8.57 4.34-0.33 0.99-0.66 1.98-1 3-1.38 0.973-2.76 1.94-4.19 2.83-4.4 2.83-8.52 6.11-12.6 9.42-2.25 1.75-2.25 1.75-4.31 2.75-2.07 0.941-2.07 0.941-3.77 2.86-5.15 5.1-11.6 8.82-17.7 12.6-4.28 2.69-8.24 5.6-12.2 8.75-5.52 4.31-11.3 8.23-17.3 11.8-4.06 2.39-7.71 5.06-11.4 8.01-3.16 2.46-6.41 4.75-9.68 7.05-4.26 3-8.33 6.08-12.2 9.55-8.84 7.38-8.84 7.38-12.7 7.38-0.33 0.99-0.66 1.98-1 3-2 0.667-4 1.33-6 2-0.33 0.99-0.66 1.98-1 3-1.64 1.05-3.31 2.04-5 3-2.08 1.56-4.14 3.14-6.19 4.75-4.7 3.66-9.45 7.16-14.4 10.5-2.01 1.47-3.86 2.99-5.73 4.62-3.61 3.13-7.39 5.95-11.2 8.77-6.12 4.52-12 9.27-17.7 14.3-3.62 3.15-7.29 6.13-11.2 8.92-1.62 1.17-1.62 1.17-3.09 2.76-1.46 1.43-1.46 1.43-4.21 2.68-3.59 1.93-5.85 4.18-8.64 7.1-1.74 1.79-3.49 3.32-5.61 4.65h-2c-0.227 0.639-0.454 1.28-0.688 1.94-0.65 1.02-0.65 1.02-1.31 2.06-1.67 0.333-3.33 0.667-5 1-0.276 0.601-0.552 1.2-0.836 1.82-1.56 2.93-3.45 3.87-6.29 5.55-4.1 2.51-7.98 5.11-11.8 8.03-5.87 4.48-11.9 8.78-18 13-3.96 2.75-7.77 5.66-11.6 8.62-7.69 5.98-15.5 11.4-24.6 15-1.29 0.728-2.58 1.46-3.88 2.19-4.46 2.18-8.24 3.1-13.1 1.81-3.98-2.28-7.42-5.15-11-8-2.33-1.7-4.7-3.35-7.06-5-4.99-3.53-9.79-7.23-14.5-11.1-3.34-2.66-6.8-5.14-10.3-7.64-4.5-3.27-8.94-6.62-13.4-9.98-0.643-0.484-1.29-0.969-1.95-1.47-0.939-0.708-0.939-0.708-1.9-1.43-1.93-1.42-3.9-2.78-5.88-4.14-0.995-0.746-1.99-1.49-3.02-2.26v-2c-0.66-0.186-1.32-0.371-2-0.562-2.77-1.33-4.23-2.45-6.44-4.5-5.63-5.13-12.1-8.92-18.6-12.9-0.99-0.66-1.98-1.32-3-2v-2c-0.828-0.104-0.828-0.104-1.67-0.211-3.26-1.1-5.09-3.06-7.58-5.41-0.99-0.924-1.98-1.85-2.97-2.77-0.917-0.86-1.83-1.72-2.78-2.61-6.5-5.92-13.4-11.4-20.2-16.9-0.96-0.78-0.96-0.78-1.94-1.58-1.22-0.992-2.46-1.98-3.69-2.95-1.43-1.14-2.81-2.35-4.17-3.56v-2c-0.681-0.206-1.36-0.412-2.06-0.625-3.93-1.84-6.77-4.44-9.94-7.38-0.514-0.473-1.03-0.946-1.56-1.43-1.19-1.14-2.33-2.35-3.44-3.57v-2l-1.73-0.812c-2.34-1.23-4.39-2.61-6.52-4.19-1.06-0.773-1.06-0.773-2.14-1.56-0.531-0.474-1.06-0.949-1.61-1.44v-2c-0.598-0.289-1.2-0.578-1.81-0.875-2.19-1.12-2.19-1.12-5.19-3.12v-2c-0.556-0.237-1.11-0.474-1.68-0.719-2.86-1.58-4.99-3.56-7.38-5.78-2.6-2.41-4.99-4.53-7.94-6.5v-2c-0.874-0.402-0.874-0.402-1.77-0.812-2.26-1.2-4.04-2.53-5.98-4.19-0.614-0.516-1.23-1.03-1.86-1.56-1.39-1.44-1.39-1.44-1.39-3.44-0.557-0.227-1.11-0.454-1.69-0.688-2.95-1.68-4.94-3.89-7.31-6.31-0.825-0.66-1.65-1.32-2.5-2-7.05-5.64-7.05-5.64-8.5-10-1.31-0.707-2.65-1.37-4-2-1.45-1.12-2.87-2.29-4.25-3.5-1.06-0.913-1.06-0.913-2.14-1.84-1.61-1.66-1.61-1.66-1.61-3.66-0.572-0.244-1.14-0.487-1.73-0.738-2.67-1.49-4.4-3.24-6.52-5.45-2.85-2.92-5.71-5.72-8.81-8.38-2.77-2.37-5.38-4.84-7.94-7.44-4.77-4.83-9.83-9.26-15.1-13.5-2.21-1.92-3.91-3.65-5.75-5.88-2.68-3.22-5.59-5.88-8.77-8.59-8.94-7.71-17.4-15.9-25.7-24.3-0.844-0.839-1.69-1.68-2.56-2.54-4.89-4.91-9.58-9.93-14.1-15.2-0.673-0.777-1.35-1.55-2.04-2.36-0.523-0.605-1.05-1.21-1.59-1.83-1.97-2.25-3.95-4.38-6.06-6.5-2.31-2.31-4.27-4.76-6.31-7.31-2.53-2.57-5.09-5.09-7.68-7.61l-2.64-2.58-2.68-2.61c-2.01-2.21-2.01-2.21-2.01-4.21-0.99-0.33-1.98-0.66-3-1v-2l-4-2v-2l-1.72-0.699c-2.86-1.63-4.56-3.63-6.71-6.11-3.51-4.04-7.16-7.84-11-11.6-1.46-1.43-2.93-2.86-4.39-4.3l-1.52-1.47c-1.26-1.24-2.47-2.54-3.67-3.84v-2l-1.94-0.812c-2.06-1.19-2.06-1.19-3.06-4.19-0.598-0.289-1.2-0.578-1.81-0.875-2.91-1.49-4.21-3.54-6.19-6.12-2.18-2.23-4.4-4.41-6.63-6.59-3.72-3.67-7.22-7.44-10.6-11.4-2.16-2.43-4.47-4.69-6.77-6.99-6.05-6.4-11.9-12.9-17.2-19.8-1.75-2.23-1.75-2.23-3.98-4.31-1.78-1.84-1.78-1.84-1.78-3.84h-2c-4-4.47-4-4.47-4-7h-2c-1.17-1.41-2.34-2.82-3.49-4.25-5.51-6.4-12.7-11.2-19.4-16.2-16-11.9-16-11.9-19.1-16.6 0.412-0.681 0.825-1.36 1.25-2.06 0.923-1.55 1.84-3.1 2.7-4.69 2.01-3.68 4.07-6.27 7.05-9.25 1.31-2 2.55-4.03 3.75-6.1 1.26-1.92 2.59-3.32 4.25-4.9 1.13-1.28 2.26-2.58 3.38-3.88 3.36-3.85 6.89-7.45 10.6-11 4.61-4.49 4.61-4.49 8.43-9.63 0.536-0.825 1.07-1.65 1.62-2.5h2c0.227-0.516 0.454-1.03 0.688-1.56 2.55-4.73 5.35-8.81 9.56-12.2 3.05-2.48 5.38-5.17 7.81-8.25 4.32-5.44 9.08-10.3 14.1-15.1 3.21-3.13 6.14-6.29 8.87-9.86 5.59-6.74 11.8-12.9 18-19 1.67-1.67 3.33-3.33 5-5 1.2-1.2 2.4-2.4 3.59-3.59l1.93-1.93c1.96-1.96 3.92-3.92 5.88-5.88 0.616-0.617 1.23-1.23 1.87-1.87 1.5-1.5 3.01-2.99 4.52-4.48 1.79-1.82 3.42-3.64 5.02-5.62 2.2-2.62 4.52-4.85 7.12-7.06 2.74-2.32 5.13-4.69 7.44-7.44 2.46-2.89 5.01-5.44 7.88-7.94 5.42-4.77 10.5-9.84 15.6-14.9 0.833-0.829 1.67-1.66 2.52-2.51 0.794-0.796 1.59-1.59 2.41-2.41 1.07-1.07 1.07-1.07 2.16-2.16 2.13-2.2 2.13-2.2 4.18-4.88 1.94-2.39 3.16-2.98 5.86-4.29 1.69-1.64 3.35-3.31 5-5 1.67-1.33 3.33-2.67 5-4 2.5-2.44 4.94-4.94 7.38-7.44 2.55-2.49 5.21-4.79 7.93-7.09 2.35-2.04 4.52-4.24 6.7-6.47 3.77-3.87 7.63-7.8 12-11h2v-2c1.99-1.34 3.99-2.68 6-4l2.31-2.31c2.93-2.93 6.06-5.35 9.35-7.86 2.25-1.77 4.39-3.61 6.52-5.52 3.1-2.76 6.36-5.01 9.81-7.31 0.767-0.768 1.53-1.54 2.32-2.33 2.64-2.64 5.39-4.96 8.3-7.3 3.6-2.86 3.6-2.86 6.98-5.98 1.59-1.59 3.3-2.79 5.15-4.08 3.8-2.78 6.68-5.91 9.61-9.58 1.77-1.87 3.33-2.66 5.64-3.73 1.71-1.62 3.37-3.3 5-5 4.1-4.21 8.31-8.2 12.8-12 2.67-2.33 5.31-4.7 7.93-7.08l2.7-2.45c2.6-2.42 5.1-4.92 7.61-7.43 4.97-4.53 4.97-4.53 7.98-5.91 2.39-1.29 3.63-2.73 5.34-4.84 2.81-3.33 5.73-6.17 9.11-8.93 1.59-1.29 1.59-1.29 2.94-2.72 3.08-3.02 6.57-5.58 9.95-8.25 2.61-2.28 4.56-4.63 6.69-7.35 1.28-1.18 2.59-2.33 3.94-3.44 2.49-2.11 4.64-4.15 6.62-6.75 2.48-2.86 4.46-4.1 7.74-5.82 3.57-2.08 6.08-5.19 8.57-8.43 2.25-2.72 4.67-4.83 7.38-7.07 1.62-1.39 3.09-2.83 4.55-4.37 2.19-2.12 2.19-2.12 4.19-2.12v-2c1.66-1.02 3.32-2.02 5-3 0.33-0.66 0.66-1.32 1-2 1.11-0.659 1.11-0.659 2.25-1.33 3.96-2.4 7.03-5.6 10.4-8.8 2.4-1.86 2.4-1.86 6.4-1.86 0.309-0.835 0.309-0.835 0.625-1.69 3.35-5.63 10.2-10.1 16.4-11.9 2.1-0.427 4.2-0.783 6.33-1.1 4.69-0.371 4.69-0.371 8.62-2.31 14-1.16 26.8 8.51 37.3 16.7 2.33 1.69 4.81 2.84 7.41 4.07 5.31 2.71 10.3 6 15.3 9.19 1.32 0.83 1.32 0.83 2.66 1.68 4.3 2.78 7.75 5.65 11.3 9.32 4.74 4.03 9.59 7.8 14.8 11.2 3.51 2.27 6.31 4.77 9.19 7.81 0.763 0.557 1.53 1.11 2.31 1.69 0.835 0.65 0.835 0.65 1.69 1.31v2c0.583 0.268 1.17 0.536 1.77 0.812 2.26 1.2 4.04 2.53 5.98 4.19 0.614 0.516 1.23 1.03 1.86 1.56 1.39 1.44 1.39 1.44 1.39 3.44 0.562 0.268 1.12 0.536 1.7 0.812 2.45 1.27 4.74 2.68 7.05 4.19 0.799 0.516 1.6 1.03 2.42 1.56 0.905 0.712 0.905 0.712 1.83 1.44v2c0.639 0.268 1.28 0.536 1.94 0.812 2.06 1.19 2.06 1.19 3.06 4.19 1.31 0.703 2.65 1.36 4 2 2.07 1.71 4.02 3.52 6 5.34 1.93 1.6 3.72 2.64 6 3.66v2c0.574 0.266 1.15 0.531 1.74 0.805 6.7 3.54 12.3 9.11 17.9 14.2 6.02 5.3 12.4 10.2 18.9 14.8 0.461 0.405 0.923 0.81 1.4 1.23v2c0.88 0.4 0.88 0.4 1.78 0.809 2.27 1.22 3.89 2.52 5.79 4.25 4.29 3.86 8.78 7.44 13.3 11 0.701 0.633 1.4 1.27 2.12 1.92v2c1.32 0.66 2.64 1.32 4 2v2c0.557 0.227 1.11 0.454 1.69 0.688 2.95 1.68 4.92 3.91 7.31 6.31 5.24 4.62 10.6 8.84 16.6 12.4 5.09 3.13 8.99 6.86 13.1 11.2 6.17 6.4 13.2 11.7 20.3 17.1 1.01 0.77 2.01 1.54 3.05 2.33l2.89 2.18c0.695 0.602 1.39 1.2 2.11 1.82v2c0.552 0.248 1.1 0.495 1.67 0.75 2.78 1.49 5.11 3.29 7.58 5.25 1.34 1.05 1.34 1.05 2.7 2.12 0.675 0.619 1.35 1.24 2.05 1.88v2c0.763 0.268 1.53 0.536 2.31 0.812 2.58 1.14 3.96 2 5.69 4.19v2c0.804 0.268 1.61 0.536 2.44 0.812 1.27 0.588 1.27 0.588 2.56 1.19 0.33 0.99 0.66 1.98 1 3h2v2c0.539 0.229 1.08 0.459 1.63 0.695 3.07 1.69 5.6 3.9 8.24 6.18 2.93 2.53 5.85 4.94 9.08 7.08 3.54 2.37 6.66 5.05 9.86 7.86 7.95 6.89 16.2 13.2 24.7 19.4 0.819 0.593 1.64 1.19 2.48 1.8 0.767 0.531 1.53 1.06 2.32 1.61 0.553 0.459 1.11 0.918 1.68 1.39v2c0.536 0.229 1.07 0.459 1.62 0.695 3.1 1.7 5.7 3.89 8.38 6.18 0.567 0.482 1.13 0.964 1.72 1.46 4.58 3.95 8.87 8.13 13.1 12.5 2.75 2.81 5.56 5.48 8.56 8.03 7.33 6.28 13.4 13.3 14.6 23.2 0.0905 2.54 0.13 5.08 0.125 7.62 0.00258 1.29 0.00516 2.58 0.00781 3.91-0.106 2.76-0.407 4.84-1.13 7.46 0.0309 1.76 0.0309 1.76 0.0625 3.56-0.0625 3.44-0.0625 3.44-2.06 6.44-0.103 0.619-0.206 1.24-0.312 1.88-1.56 4.82-6.7 8.24-10.7 11.1-1.66 0.681-3.33 1.35-5 2-2.05 1.29-4.02 2.61-6 4l-2.39 1.68c-1.74 1.22-3.48 2.44-5.23 3.66-4.1 2.87-8.18 5.58-12.6 7.98-6.58 3.6-12.9 7.67-19.1 11.9-2.53 1.61-5 2.72-7.77 3.84-2.41 1.11-4.6 2.46-6.85 3.85-3.89 2.39-7.77 4.29-12 6.06-2.94 1.36-5.59 3.07-8.3 4.83-6.61 4.17-6.61 4.17-9.86 4.17v2c-1.11 0.536-2.23 1.07-3.38 1.62-4.13 2.06-8.04 4.4-12 6.79-5.58 3.33-11.3 6.45-17.2 9.27-2.49 1.15-2.49 1.15-4.06 2.88-1.44 1.44-1.44 1.44-3.76 2.34-2.71 1.11-4.66 2.41-6.99 4.16-4.32 3.11-8.77 5.71-13.4 8.25-6.75 3.69-13 7.85-19.2 12.4-2.97 2.18-6.01 4.23-9.09 6.26-1.01 0.701-2.02 1.4-3.06 2.12-2.65 1.69-5.03 2.74-7.94 3.88-5.4 2.92-10.5 6.24-15.6 9.61-2.36 1.39-2.36 1.39-4.36 1.39v2c-2.18 1.52-2.18 1.52-5.31 3.38-1.19 0.713-2.38 1.43-3.57 2.14-0.655 0.393-1.31 0.785-1.99 1.19-3.95 2.4-7.85 4.88-11.8 7.35-0.82 0.519-1.64 1.04-2.48 1.57-1.59 1-3.17 2.01-4.76 3.02-1.81 1.15-3.63 2.29-5.44 3.43-4.39 2.77-8.7 5.61-12.9 8.61-10.3 7.31-10.3 7.31-13.8 7.31v2c-1.57 1.18-1.57 1.18-3.69 2.44-0.728 0.436-1.46 0.871-2.21 1.32-0.695 0.41-1.39 0.82-2.11 1.24-1.42 0.897-1.42 0.897-2.88 1.81-2.12 1.19-2.12 1.19-4.12 1.19-0.33 0.99-0.66 1.98-1 3-1.62 1.35-1.62 1.35-3.72 2.71-0.768 0.505-1.54 1.01-2.33 1.53-0.81 0.52-1.62 1.04-2.45 1.58-1.17 0.763-1.17 0.763-2.36 1.54-1.58 1.03-3.16 2.06-4.75 3.09-5.66 3.68-11.2 7.37-16.6 11.5-8.73 6.36-18.1 10.7-28.4 14.1-0.667 0.22-1.33 0.44-2.02 0.667-3.83 1.16-6.59 1.6-10.4 0.333-2.05-1.26-4.04-2.61-6-4-1.39-0.919-2.79-1.84-4.19-2.75-7.47-4.98-14.7-10.4-21.8-15.8-2.15-1.59-4.35-3.09-6.56-4.6-4.48-3.1-8.71-6.45-12.9-9.88-4.88-3.95-9.82-7.72-15-11.3-3.08-2.13-6.11-4.32-9.12-6.54-1.02-0.749-2.05-1.5-3.1-2.27-0.75-0.633-1.5-1.27-2.27-1.92v-2c-0.584-0.273-1.17-0.547-1.77-0.828-3.67-1.93-6.75-4.59-9.98-7.17-0.697-0.547-1.39-1.09-2.11-1.66-0.988-0.789-0.988-0.789-2-1.59-0.904-0.719-0.904-0.719-1.83-1.45-0.433-0.428-0.867-0.856-1.31-1.3v-2c-0.518-0.22-1.04-0.441-1.57-0.668-3.39-1.86-6.29-4.23-9.3-6.64-0.599-0.474-1.2-0.947-1.82-1.44-1.78-1.41-3.54-2.83-5.31-4.25-0.588-0.462-1.18-0.924-1.78-1.4-1.44-1.15-2.84-2.37-4.22-3.6v-2c-0.739-0.255-1.48-0.51-2.24-0.773-2.91-1.29-4.64-2.68-6.95-4.85-4.14-3.82-8.47-7.29-12.9-10.7-0.617-0.549-1.23-1.1-1.87-1.66v-2c-0.525-0.214-1.05-0.428-1.59-0.648-3.37-1.89-6.1-4.43-8.97-6.98-5.09-4.45-10.3-8.52-15.8-12.4-3.73-2.78-7.11-5.9-10.5-9.07-2.15-2.02-2.15-2.02-5.09-3.88v-2c-0.557-0.25-1.11-0.5-1.69-0.758-2.7-1.45-4.93-3.19-7.31-5.12-0.846-0.678-1.69-1.36-2.56-2.05-2.28-1.94-4.43-3.85-6.44-6.07v-2h-2c-2.49-3.74-2.64-6.67-2-11 1.05-2.85 2.46-5.39 4-8 0.382-0.679 0.763-1.36 1.16-2.06 0.933-1.66 1.89-3.3 2.84-4.94h2c0.227-0.722 0.454-1.44 0.688-2.19 3.26-6.98 11-12.2 17.8-15.5 4.53-2.4 6.88-6.76 9.61-10.9 2.09-2.61 2.69-2.97 5.89-3.36 2.7 1.13 5.18 2.31 7.75 3.69 1.02 0.529 1.02 0.529 2.05 1.07 1.37 0.714 2.74 1.43 4.11 2.15 2.13 1.12 4.27 2.21 6.42 3.3l1.92 0.97c1.91 0.94 1.91 0.94 4.68 1.89 0.681 0.309 1.36 0.619 2.06 0.938 0.33 0.99 0.66 1.98 1 3 1.31 0.713 2.65 1.37 4 2 6.27 4.82 11.7 10.7 17.2 16.3 7.86 7.96 15.8 14.8 25 21.2 2.57 1.78 4.67 3.31 6.58 5.81 2.93 3.54 6.46 6.01 10.2 8.65 3.96 2.92 7.08 6.17 10.3 9.91 2.94 3.47 6.05 6.78 9.16 10.1 0.982 1.05 0.982 1.05 1.98 2.13 3.4 3.62 6.84 7.04 10.6 10.2 3.9 3.3 6.45 7.01 9.25 11.2 2.24 3.06 4.85 5.27 7.76 7.66 7.83 6.76 16.2 16.9 17.3 27.5 0.0302 2.97-0.0386 5.93-0.166 8.9-0.506 8.88-0.506 8.88 1.88 17.3 1.82 1.33 1.82 1.33 4 1 2.15-1.9 2.15-1.9 4-4h2c0.227-0.701 0.454-1.4 0.688-2.12 1.14-2.51 2.11-3.96 3.88-6 2.58-2.68 2.58-2.68 3.44-5.88 0.99-0.66 1.98-1.32 3-2 1.03-2.8 1.03-2.8 1.81-6.06 1.8-6.26 4.39-10.7 8.19-15.9 2.05-3.32 3.87-6.73 5.56-10.2 1.44-2.75 1.44-2.75 2.81-4.05 2.19-2.28 3.52-4.82 5.06-7.57 2.26-4.03 4.63-7.56 7.56-11.1 5.41-7.22 10.5-14.4 14.6-22.4 1.34-2.53 2.79-4.95 4.29-7.38 3.09-5.06 5.63-10.3 8.16-15.7 1.5-2.75 2.94-4.93 4.85-7.37 3.15-4.08 5.36-8.32 7.5-13 0.383-0.819 0.765-1.64 1.16-2.48 2.91-6.32 5.43-12.7 7.87-19.3 6.08-15.9 6.08-15.9 11.5-21.4 0.648-2.57 0.648-2.57 1-5h2c0.0928-1.86 0.0928-1.86 0.188-3.75 0.556-5.27 2.54-9.57 4.67-14.4 1.47-3.7 1.85-6.92 2.14-10.9 0.33-0.66 0.66-1.32 1-2 0.712-7.14-0.534-13.1-3-19.8-0.313-0.869-0.626-1.74-0.949-2.63-2.82-7.52-6.51-13.9-11.1-20.6-1.13-1.81-2.25-3.62-3.38-5.44-6.33-9.9-13.3-19.4-20.6-28.6-0.624-0.798-1.25-1.6-1.89-2.42-11-13.9-23.3-25.5-37.1-36.6-0.776-0.645-1.55-1.29-2.35-1.95-10.7-8.83-22.2-16.8-34.6-23-1.32-0.677-2.63-1.35-3.95-2.03-1.41-0.72-2.82-1.44-4.24-2.16-0.98-0.5-0.98-0.5-1.98-1.01-9.36-4.69-16.2-6.84-26.8-4.8-3.2 1.61-3.2 1.61-6 4-1.74 0.984-3.49 1.94-5.25 2.88-4.38 2.36-8.65 4.84-12.9 7.44-2.2 1.3-4.41 2.54-6.66 3.75-7.34 3.97-13.9 8.01-20.2 13.5-3.68 3.03-7.55 5.73-11.5 8.45-6.09 4.23-11.9 8.61-17.5 13.5-2 1.55-2 1.55-4 1.55-0.33 0.99-0.66 1.98-1 3-2.19 1.8-2.19 1.8-5 3.75-4.48 3.15-8.79 6.43-13 9.9-1.97 1.35-1.97 1.35-4.1 1.79-0.926 0.277-0.926 0.277-1.87 0.559-0.7 1.32-1.36 2.65-2 4-1.92 1.64-1.92 1.64-4.19 3.25-3.92 2.93-6.94 6.04-10.1 9.77-5.14 5.83-11.5 10.4-17.7 15-0.696 0.552-1.39 1.1-2.11 1.67-1.89 1.33-1.89 1.33-3.89 1.33-0.402 0.959-0.402 0.959-0.812 1.94-1.19 2.06-1.19 2.06-4.19 3.06-0.33 0.99-0.66 1.98-1 3-0.969 0.309-1.94 0.619-2.94 0.938-3.17 0.724-3.17 0.724-4.25 3.12-0.402 0.959-0.402 0.959-0.812 1.94-0.99 0.33-1.98 0.66-3 1-0.33 0.99-0.66 1.98-1 3-1.56 1.39-1.56 1.39-3.44 2.69-0.617 0.437-1.23 0.874-1.87 1.32-1.69 0.988-1.69 0.988-3.69 0.988-0.402 0.959-0.402 0.959-0.812 1.94-1.19 2.06-1.19 2.06-4.19 3.06-0.33 0.99-0.66 1.98-1 3-1.56 1.39-1.56 1.39-3.44 2.69-0.617 0.437-1.23 0.874-1.87 1.32-1.69 0.988-1.69 0.988-3.69 0.988v2c-1.55 1.19-1.55 1.19-3.75 2.56-5.13 3.29-9.93 6.95-14.7 10.7-2.5 1.76-2.5 1.76-4.5 1.76-0.33 0.99-0.66 1.98-1 3-1.88 1.57-3.83 3.06-5.81 4.5l-3.21 2.34-2.98 2.16-2.26 1.78c-1.74 1.22-1.74 1.22-3.74 1.22-0.33 0.99-0.66 1.98-1 3l-2.25 0.875c-3.46 1.41-5.14 3.46-7.75 6.12-4.07 3.3-8.38 6.27-12.7 9.25-7.79 5.43-15.3 11.3-22.6 17.3l-2.2 1.81c-1.43 1.18-2.86 2.36-4.28 3.55-0.649 0.535-1.3 1.07-1.97 1.62-0.866 0.721-0.866 0.721-1.75 1.46-1.49 1.03-1.49 1.03-3.49 1.03-0.33 0.99-0.66 1.98-1 3-1.35 0.935-2.71 1.86-4.1 2.73-2.19 1.46-4.22 3.05-6.28 4.7-0.862 0.691-1.72 1.38-2.61 2.09-2.23 1.83-4.43 3.68-6.62 5.56-7.57 6.43-14.9 11.8-24 15.9-3.28 1.56-5.14 2.47-6.88 5.73-0.173 0.742-0.345 1.49-0.523 2.25 1.29 0.909 1.29 0.909 2.61 1.84 7.73 5.47 15.3 11.1 22.8 16.9 7.6 5.92 15.2 11.8 23.1 17.4 3.17 2.32 6.27 4.72 9.36 7.14 1.52 1.19 3.04 2.37 4.58 3.54 4.17 3.19 7.9 6.47 11.6 10.2 2.1 1.69 4.24 3.32 6.38 4.96 3.1 2.41 6.15 4.86 9.19 7.35 0.537 0.433 1.07 0.865 1.63 1.31 1.31 1.08 2.56 2.22 3.81 3.38v2l1.62 0.688c3.13 1.73 5.65 4 8.38 6.31l3 2v2c0.681 0.186 1.36 0.371 2.06 0.562 3.4 1.66 5.27 3.68 7.86 6.38 5.51 5.47 11.7 10.2 18.1 14.6 4.41 3.03 8.3 6.41 12.2 10 3.05 2.77 6.18 5.44 9.33 8.09 4.22 3.55 8.41 7.11 12.5 10.8 1.3 1.15 2.61 2.29 3.92 3.42 3.78 3.28 7.37 6.65 10.9 10.2 2.39 2.09 4.79 4.17 7.21 6.23l1.79 1.77v2l1.62 0.688c3.2 1.77 5.67 3.85 8.38 6.31v2c0.525 0.205 1.05 0.41 1.59 0.621 3.47 1.98 6.1 4.68 8.97 7.44 5.18 4.9 10.4 9.52 16 13.9 2.4 2 2.4 2 5 4.61 1.93 1.92 3.57 3.29 5.84 4.71 2.78 1.9 4.48 3.79 6.38 6.56 2.95 4.21 6.46 6.53 10.7 9.33 4.33 3.14 8.17 7.13 10.5 12 1.22 2.39 2.53 2.74 4.93 3.83 1.75 1.5 1.75 1.5 3 3v2c0.866 0.402 0.866 0.402 1.75 0.812 5.7 3.01 5.7 3.01 7.14 6.09 1.28 2.42 2.65 3.63 4.77 5.36 4.25 3.6 8.01 7.51 11.8 11.6 1.31 1.41 2.62 2.82 3.93 4.23 0.935 1.01 0.935 1.01 1.89 2.03 3.49 3.72 7.11 7.29 10.7 10.9 1.67 1.67 3.33 3.33 5 5l1.86 1.79c0.646 0.628 1.29 1.26 1.96 1.9 0.605 0.581 1.21 1.16 1.83 1.76 1.36 1.55 1.36 1.55 1.36 3.55 0.99 0.33 1.98 0.66 3 1 0.918 1.36 1.83 2.73 2.71 4.11 3.83 5.59 8.55 12 15.3 13.9 2.74-0.422 4.51-0.924 7-2 1.15-0.483 1.15-0.483 2.32-0.977 6.7-3.08 12.1-7.23 17.7-12 0.69-0.59 1.38-1.18 2.09-1.79 2.69-2.34 5.35-4.7 7.98-7.11 4.19-3.81 8.47-7.28 13.1-10.6 4.34-3.19 7.67-6.39 11-10.5 2.94-3.15 6.46-5.42 9.98-7.89 5.72-4.17 11.2-8.87 15.7-14.4 2.19-2.7 4.45-4.57 7.19-6.69 1.18-1.18 1.18-1.18 2.38-2.38 2.49-2.49 5.07-4.75 7.78-7 1.47-1.29 2.87-2.66 4.24-4.05 2.49-2.46 5.05-4.6 7.79-6.76 4.81-3.89 9.15-8.05 13.5-12.5 2.69-2.7 5.52-5.17 8.42-7.64 2.02-1.79 3.86-3.69 5.73-5.64 3.82-3.88 8-6.98 12.4-10.1 2.58-1.83 5.11-3.7 7.62-5.63 0.678-0.519 1.36-1.04 2.05-1.57 2.19-1.79 2.19-1.79 4.49-4.16 2.56-2.55 5.21-4.81 8.02-7.07 2.98-2.41 5.96-4.82 8.88-7.31 3.55-2.89 7.25-5.38 11.2-7.62 2.91-1.87 5.02-4.09 7.44-6.56 4.38-4.01 8.94-7.77 13.6-11.5 3.21-2.6 6.25-5.22 9.12-8.19 4.99-5.13 10.7-8.96 16.8-12.8 4.32-2.71 8.37-5.61 12.4-8.8 3.07-2.46 6.22-4.82 9.36-7.19 2.08-1.63 2.08-1.63 3.85-4.58 1.99-1.01 3.99-2.01 6-3 2.53-1.68 4.95-3.49 7.38-5.31 0.658-0.489 1.32-0.978 1.99-1.48 1.3-0.964 2.59-1.93 3.88-2.9 1.48-1.11 2.97-2.2 4.47-3.29 3.69-2.51 3.69-2.51 6.28-6.02 1.13-0.289 2.27-0.578 3.44-0.875 3.61-0.706 3.61-0.706 4.75-3.12 0.268-0.66 0.536-1.32 0.812-2 1.94-1.06 1.94-1.06 4-2 1.01-0.994 2-2 3-3 7.55-6.44 15.1-12.2 23.8-17 3.79-2.19 6.63-4.33 9.41-7.73 6.06-7.33 13.9-12.9 22.8-16.2 1.65-1.4 1.65-1.4 3-3 4.69-4 4.69-4 7-4v-2c2.07-1.6 4.15-3.09 6.31-4.56 6.49-4.52 12.6-9.32 18.7-14.4 0.637-0.525 1.27-1.05 1.93-1.59 6.87-5.8 13.1-12.3 19.4-18.7 1.44-1.46 2.9-2.91 4.35-4.36 10.2-10.3 20-21.5 21.1-36.5 0.211-1.82 0.211-1.82 1.21-2.82 0.271-1.37 0.49-2.76 0.684-4.15 0.123-0.84 0.246-1.68 0.373-2.55 0.253-1.78 0.503-3.56 0.75-5.34 0.187-1.26 0.187-1.26 0.377-2.55 0.163-1.16 0.163-1.16 0.33-2.35 0.487-2.07 0.487-2.07 2.49-5.07 2.72-12.7 2.44-26 2.48-38.9 0.0195-3.5 0.0817-7 0.145-10.5 0.166-17.5-2.25-32.2-11.9-47.1-4.63-7.39-4.63-7.39-5.69-10.6h-2c-0.959-1.42-1.91-2.84-2.83-4.28-1.98-2.91-4.43-5.37-6.86-7.91-14.5-15.5-14.5-15.5-16.3-20.8h-2c-1.16-1.4-2.32-2.81-3.46-4.24-1.64-1.87-3.38-3.41-5.28-5.01-4.04-3.48-7.61-7.24-11.2-11.2-6.07-6.59-12.4-12.8-19-18.9-4.13-3.83-8.19-7.72-12.1-11.7-3.46-3.5-7.01-6.79-10.8-9.98-3.5-3.15-6.77-6.51-10.1-9.87-2.28-2.32-4.4-4.27-7.12-6.09v-2c-0.841-0.352-0.841-0.352-1.7-0.712-2.86-1.6-4.81-3.57-7.13-5.9-0.466-0.467-0.931-0.934-1.41-1.42-1.54-1.54-3.06-3.09-4.59-4.64-1.07-1.08-2.15-2.16-3.22-3.24-2.83-2.84-5.65-5.69-8.47-8.54-4.5-4.54-9.01-9.08-13.5-13.6-1.56-1.57-3.13-3.15-4.69-4.73-4.74-4.78-9.52-9.46-14.7-13.8-2.3-1.97-4.47-4.06-6.62-6.2-0.763-0.749-1.53-1.5-2.31-2.27-1.69-1.92-1.69-1.92-1.69-3.92-0.552-0.223-1.1-0.446-1.67-0.676-3.06-1.74-5.14-3.98-7.58-6.51-3.78-3.86-7.62-7.56-11.7-11.1-3.24-2.78-6.39-5.67-9.56-8.54-2.91-2.6-5.88-5.11-8.88-7.6-1.59-1.61-1.59-1.61-2.62-3.74-0.88-2.22-0.88-2.22-3.97-2.86-1.44-1.43-1.44-1.43-3-3.31-3.56-4.2-7.26-8.26-11-12.3-9-9.74-9-9.74-9-12.4-0.599-0.251-1.2-0.503-1.82-0.762-2.48-1.4-3.51-2.72-5.12-5.05-1.84-2.57-3.64-4.88-5.94-7.06-0.701-0.701-1.4-1.4-2.12-2.12v-2c-0.543-0.197-1.09-0.394-1.64-0.598-3.36-2-5.58-4.86-8.04-7.84-0.525-0.625-1.05-1.25-1.59-1.89-1.58-1.88-3.15-3.78-4.72-5.67-0.881-1.05-1.76-2.11-2.64-3.16-6.25-7.54-6.25-7.54-8.67-11.3-1.56-2.56-1.56-2.56-3.52-4.35-3.37-3.43-6.03-7.36-8.86-11.2-2.27-2.91-4.71-5.38-7.32-7.97-1.74-2.13-3.45-4.26-5.12-6.44-0.975-1.25-1.95-2.51-2.93-3.76-0.738-0.952-0.738-0.952-1.49-1.92-2.24-2.89-4.51-5.76-6.77-8.63-3.09-3.92-6.16-7.86-9.21-11.8-8.02-10.4-8.02-10.4-16.6-20.4-2.16-2.41-4.19-4.91-6.22-7.43-4.05-5.01-8.34-9.72-12.8-14.4-1.87-2.21-1.87-2.21-1.87-4.21-0.557-0.218-1.11-0.436-1.69-0.66-3.08-1.79-4.97-4.09-7.31-6.78-5.63-6.3-11.6-12.1-18-17.6-0.801-0.685-0.801-0.685-1.62-1.38-1.59-1.34-3.2-2.64-4.82-3.93-0.947-0.759-1.89-1.52-2.87-2.3-2.58-1.69-2.58-1.69-5.24-0.852-2.62 1.57-4.92 3.26-7.27 5.21-0.868 0.709-1.74 1.42-2.63 2.15-0.844 0.694-1.69 1.39-2.56 2.1-4.64 3.75-8.31 6.1-14 8-1.11 1.88-1.11 1.88-2 4-1.64 1.37-3.31 2.7-5 4-2.45 2.39-4.84 4.83-7.22 7.29-3.71 3.62-7.65 6.92-11.6 10.3-2.78 2.35-5.46 4.71-7.98 7.34-2.19 2.12-2.19 2.12-4.19 2.12-0.33 0.99-0.66 1.98-1 3h-2c-0.247 0.593-0.495 1.19-0.75 1.8-1.44 2.54-2.9 3.74-5.25 5.45-0.701 0.521-1.4 1.04-2.12 1.58-1.88 1.17-1.88 1.17-3.88 1.17-0.33 0.99-0.66 1.98-1 3-1.67 1.65-1.67 1.65-3.75 3.38-5.2 4.42-9.76 9.12-14.1 14.4-1.87 1.97-3.76 3.69-5.82 5.46-3.99 3.47-7.76 7.12-11.5 10.9-0.643 0.644-1.29 1.29-1.95 1.95-2.03 2.03-4.05 4.07-6.07 6.1-1.37 1.37-2.73 2.74-4.1 4.11-3.06 3.07-6.11 6.14-9.16 9.21-1.45 1.46-2.91 2.91-4.37 4.36-2.4 2.42-4.52 4.98-6.65 7.65-1.7 1.73-3.36 2.5-5.53 3.55-0.578 0.722-1.15 1.44-1.75 2.19-3.55 4.44-7.96 7.89-12.3 11.5-3.39 2.89-6.46 5.79-9.32 9.21-4 4.72-8.75 8.3-13.6 12.1-4.3 3.44-7.92 7-11.4 11.2-2.21 2.48-4.7 4.53-7.23 6.68-3.47 3.09-6.71 6.41-9.96 9.74-3.29 3.35-6.77 6.35-10.4 9.35-1.69 1.64-3.36 3.31-5 5-1.02 1.03-2.03 2.06-3.05 3.09-0.53 0.535-1.06 1.07-1.6 1.62-4.7 4.74-9.42 9.36-14.5 13.7-2.08 1.83-4.01 3.77-5.96 5.74-3.15 3.19-6.31 6.16-9.88 8.88h-2l-0.648 1.66c-1.81 3.13-4.3 5.33-6.98 7.71-0.539 0.488-1.08 0.975-1.63 1.48-3.51 3.14-7.12 6.07-10.9 8.82-1.85 1.36-3.57 2.81-5.29 4.32-8.39 7.27-17.5 14.9-29 15.2-0.858 0.0284-1.72 0.0567-2.6 0.0859-1.78 0.0517-3.57 0.0961-5.35 0.133-5.63 0.202-9.48 1.1-14.5 3.57l-3.04 0.969c-3.36 1.17-6.21 2.73-9.27 4.53-1.05 0.608-2.1 1.22-3.18 1.84-2.6 1.41-2.6 1.41-3.51 3.66-5.76 2.86-12.6 4.23-19 3-2.02-3.04-2.32-4.19-2.62-7.69-0.112-1.21-0.112-1.21-0.227-2.45-0.049-0.615-0.098-1.23-0.148-1.86-4.76-0.259-8.19 0.556-12.6 2.25-5.54 2.08-11.1 3.99-16.8 5.76-4.85 1.84-9.04 4.89-13.4 7.71-6.39 3.63-13.5 5.87-20.4 8.34-1.94 0.698-3.88 1.4-5.82 2.1-0.851 0.306-1.7 0.611-2.58 0.926-1.72 0.634-3.42 1.29-5.12 1.97-1.66 0.662-3.34 1.26-5.04 1.81-2.46 0.874-2.46 0.874-3.06 3-1.86 3.16-4.31 3.87-7.63 5.32l-3.46 1.54c-2.42 0.973-4.63 1.7-7.16 2.27-0.66 0.33-1.32 0.66-2 1-0.312-3.31-0.312-3.31 0-7 2.19-1.62 2.19-1.62 5-3 1.71-1.62 3.37-3.29 5-5 0.846-0.825 1.69-1.65 2.56-2.5 2.45-2.43 2.45-2.43 4.44-5 2.17-2.71 4.55-5.05 7-7.5 1.77-1.99 3.52-4.01 5.25-6.04 1.2-1.35 2.45-2.66 3.74-3.93 2.03-2.06 3.79-4.19 5.57-6.47 6.34-8 12.9-15.8 19.8-23.4 2.41-2.67 4.6-5.38 6.69-8.31 2.64-3.63 5.7-6.35 9.12-9.24 7.45-6.51 12.9-15.8 17.8-24.2l1.04-1.4h2l0.812-2.44c0.392-0.846 0.784-1.69 1.19-2.56 0.99-0.33 1.98-0.66 3-1 0.268-0.742 0.536-1.48 0.812-2.25 1.59-3.68 4.08-5.29 7.19-7.75 0.66-0.99 1.32-1.98 2-3 0.887-0.392 1.77-0.784 2.69-1.19 3.85-2.11 5.94-4.55 8.71-7.89 1.75-2.1 3.66-3.99 5.6-5.92 1.34-1.66 2.68-3.33 4-5 11.9-14.9 11.9-14.9 15.3-18.3 2.69-2.72 5.11-5.55 7.54-8.51 3.49-4.23 7.04-8.41 10.7-12.5 1.23-1.42 2.41-2.88 3.58-4.36 1.88-2.31 1.88-2.31 4.12-4.5 5.6-5.73 10.4-12.1 14.8-18.8 4.02-5.75 7.97-11.1 13-16 0.915-1.26 1.81-2.53 2.69-3.81 1.14-1.58 1.14-1.58 2.31-3.19h2c0.24-0.71 0.48-1.42 0.727-2.15 1.47-3.29 3.33-5.65 5.65-8.41l2.34-2.82c2.29-2.62 2.29-2.62 4.39-4.65 1.98-1.9 1.98-1.9 3.27-4.29 2.57-4.26 5.96-7.8 9.24-11.5 2.31-2.64 4.33-5.08 6.13-8.11 0.412-0.681 0.825-1.36 1.25-2.06h2c0.247-0.742 0.495-1.48 0.75-2.25 1.25-2.75 1.25-2.75 2.92-4.39 3.31-3.34 6.06-7.05 8.89-10.8 0.577-0.751 1.15-1.5 1.75-2.28 2.31-3.03 4.51-5.99 6.47-9.26 1.22-2.03 1.22-2.03 3.22-3.03 0.743-1.24 0.743-1.24 1.5-2.5 1.5-2.5 1.5-2.5 3.5-3.5 0.392-0.66 0.784-1.32 1.19-2 2.59-4.28 5.72-8.08 8.81-12 1.76-2.25 3.5-4.5 5.25-6.75 0.424-0.543 0.848-1.09 1.29-1.64 1.8-2.33 3.48-4.63 4.95-7.18 1.83-2.92 4.05-5.02 6.52-7.42 1.48-1.75 2.94-3.52 4.38-5.31 2.66-3.3 5.35-6.54 8.19-9.69 3.51-3.95 6.52-8.23 9.59-12.5 2.06-2.76 4.38-5.07 6.85-7.47 0.916-1.24 1.81-2.49 2.69-3.75 2.31-3.25 2.31-3.25 4.31-4.25l1.44-2.88c1.43-2.85 2.38-3.98 4.56-6.12 1.83-2.36 3.6-4.74 5.38-7.14 0.535-0.615 1.07-1.23 1.62-1.86h2c0.247-0.557 0.495-1.11 0.75-1.69 1.48-2.73 3.28-4.91 5.25-7.31 0.921-1.23 1.84-2.46 2.75-3.69 2.37-3.18 4.82-6.29 7.31-9.38 2.31-2.86 4.54-5.73 6.62-8.75 2.31-3.19 2.31-3.19 4.75-5.56 2.83-2.9 4.83-5.97 7.03-9.36 2.69-3.98 5.9-7.46 9.11-11 4.14-4.65 7.95-9.5 11.7-14.5 2.9-3.79 5.93-7.4 9.11-11 2.19-2.52 4.16-5.18 6.13-7.88 2.34-3.15 4.82-6.18 7.32-9.21 4.46-5.44 8.42-11 12.2-17 2.07-2.93 4.41-5.24 6.96-7.76 1.31-1.7 2.58-3.43 3.81-5.19 4.72-6.61 9.73-12.9 15-19.1 2.03-2.49 3.6-4.9 5.19-7.69 0.826-1.38 1.66-2.75 2.5-4.12 0.402-0.663 0.804-1.33 1.22-2.01 1.28-1.87 1.28-1.87 2.64-3.21 2.42-2.45 4.34-5.24 6.32-8.03 0.44-0.617 0.88-1.23 1.33-1.87 3.62-5.14 6.93-10.4 10.2-15.8 1.59-2.61 3.26-5.13 5-7.65 4.99-7.42 8.46-15.7 12.2-23.8 6.92-14.9 6.92-14.9 8.6-16.6z" fill="#2B2D2E"/>
</svg>