<svg xmlns="http://www.w3.org/2000/svg" version="1.1" viewBox="0 0 1600 1600" width="300" height="300">
<path transform="translate(0)" d="m0 0h1600v1600h-1600v-1600z" fill="#0F2533"/>
<path transform="translate(0)" d="m0 0h1600v1600h-1600v-1600zm761 46c-8.24 10.6-10.1 20.7-9 34 0.752 3.77 1.73 7.37 3 11-1.9 1.9-5.21 1.56-7.76 1.83-1.43 0.158-2.87 0.317-4.3 0.475-0.755 0.0823-1.51 0.165-2.29 0.249-13.7 1.5-27.1 3.38-40.6 6.06-1.83 0.344-3.68 0.616-5.52 0.878-4.49 0.645-8.9 1.54-13.3 2.45-1.69 0.342-3.39 0.685-5.08 1.03l-2.6 0.529c-1.56 0.314-3.12 0.622-4.68 0.92-9.25 1.78-18.4 3.98-27.6 6.15-0.925 0.219-1.85 0.437-2.8 0.662-19.5 4.63-38.8 9.78-57.6 16.7-3.1 1.14-6.21 2.24-9.32 3.34-27.2 9.61-53.7 20.4-79.4 33.6-1.46 0.754-2.93 1.5-4.4 2.25-13.6 6.94-26.9 14.4-40 22.2-2.32 1.38-4.65 2.75-6.99 4.12-8.06 4.75-15.9 9.81-23.6 15.1-2.18 1.48-4.36 2.95-6.55 4.42-14.5 9.78-28.6 20-42.3 30.9-3.08 2.45-6.18 4.86-9.32 7.22-9.1 6.86-17.8 14-26.4 21.5-1.87 1.65-3.76 3.28-5.65 4.91-4.1 3.59-8.09 7.31-12.1 11-3.05 2.83-6.13 5.59-9.29 8.29-2.28 1.97-4.05 3.78-6 6.12-2 2.39-3.77 4.15-6.12 6.12-5.06 4.32-9.41 9.26-13.8 14.2-1.58 1.74-3.19 3.46-4.8 5.18-5.74 6.11-11.3 12.3-16.6 18.8-2.26 2.81-4.58 5.56-6.91 8.31-4.65 5.56-9.06 11.3-13.4 17.1-2.86 3.78-5.77 7.5-8.75 11.2-4.06 5.06-7.82 10.3-11.5 15.6-0.678 0.979-1.36 1.96-2.05 2.97-11 15.9-21.8 32.1-31.5 48.8-1.09 1.86-2.21 3.71-3.33 5.55-6.95 11.5-13.1 23.4-19.2 35.4-1.22 2.39-2.46 4.77-3.7 7.14-5.08 9.79-9.28 19.9-13.4 30.1-1.73 4.23-3.54 8.42-5.41 12.6-11 24.7-19.7 51.4-26.1 77.6-1.33 5.49-2.86 10.9-4.52 16.3-1.82 5.97-3.03 11.8-3.85 18-0.483 3.18-1.21 6.2-2.03 9.31-0.905 3.44-1.63 6.71-1.94 10.2-0.312 3.54-1.03 6.81-1.94 10.2-2.22 8.52-3.5 17.2-4.22 26-0.344 2.29-0.344 2.29-1.28 5.84-1.34 5.22-1.94 10.5-2.56 15.8-0.127 1.07-0.253 2.14-0.384 3.25-1.38 12.1-2.29 24.2-3.12 36.4-0.566-0.139-1.13-0.279-1.71-0.422-12.5-2.94-23.8-2.72-35.3 3.42-9.66 6.11-16.7 14.8-20.3 25.7-2.32 10.6-3.81 22.8 2.27 32.3 6.94 10.6 16.4 19.4 28.9 22.8 5.02 1.03 9.11 1.47 14.1 0.219 1.96-0.362 3.92-0.716 5.88-1.06 1.71-0.312 3.42-0.624 5.12-0.938 2.15 9.95 3.46 20 4.82 30.1 0.315 2.32 0.636 4.63 0.958 6.94 0.0928 0.698 0.186 1.4 0.281 2.12 0.62 4.43 1.67 8.59 2.94 12.9 0.31 1.6 0.588 3.2 0.824 4.81l0.417 2.71c0.147 0.963 0.295 1.93 0.446 2.92 5.58 34.6 15.1 67.8 26.4 101 1.28 3.77 2.53 7.56 3.73 11.4 8.07 25.4 19.2 49.5 31.2 73.3l1.68 3.35c10.2 20.2 21.4 39.7 33.9 58.6 1.43 2.16 2.85 4.33 4.28 6.51 8.87 13.5 18 26.8 28.3 39.3 2.02 2.53 3.89 5.14 5.76 7.79 3.32 4.62 6.93 8.8 10.8 13 2.29 2.54 4.44 5.16 6.59 7.83 4.41 5.45 9.12 10.6 13.9 15.7 2.21 2.37 4.36 4.79 6.47 7.25 3.87 4.48 8.09 8.6 12.3 12.8 0.75 0.758 1.5 1.52 2.27 2.3 3.52 3.49 7.12 6.88 10.7 10.3 0.75 0.705 1.5 1.41 2.27 2.14 1.52 1.43 3.05 2.86 4.57 4.28 1.35 1.26 2.69 2.52 4.04 3.79 6.31 5.93 12.7 11.6 19.5 17.1 3.68 3.03 7.17 6.27 10.7 9.53 1.82 1.86 1.82 1.86 4 1.65l1 3c1.65 1.33 1.65 1.33 3.75 2.56 5.36 3.42 10.3 7.27 15.3 11.2l2.92 2.27 2.26 1.8c1.66 1.39 1.66 1.39 3.74 1.2v2c6.9 6.37 16.2 12.8 25 16v2c2.43 1.65 4.86 3.18 7.38 4.69 4.56 2.78 9.06 5.54 13.4 8.69 6.51 4.66 13.5 8.61 20.3 12.7 3.97 2.36 7.88 4.78 11.8 7.24 5.3 3.27 10.7 6.08 16.3 8.8 2.62 1.28 5.19 2.62 7.74 4.02 25.4 13.8 52 24.9 79.1 34.9 1.43 0.533 1.43 0.533 2.88 1.08 13.8 5.13 27.9 9.12 42.1 12.9 1.4 0.381 2.8 0.762 4.2 1.14 12.5 3.37 25 6.22 37.7 8.98 2.94 0.646 5.88 1.29 8.82 1.94 1.89 0.415 3.77 0.83 5.66 1.24 4.95 1.09 9.88 2.22 14.8 3.39 5.7 1.33 11.4 2.2 17.2 2.92 1.86 0.242 3.72 0.484 5.59 0.727 0.866 0.111 1.73 0.222 2.62 0.337 4.48 0.578 8.84 1.17 13.2 2.25 6.8 1.55 13.8 2.1 20.7 2.8 2.57 0.266 5.14 0.546 7.71 0.829 1.7 0.185 3.4 0.37 5.1 0.555 0.794 0.0877 1.59 0.175 2.41 0.266 3.78 0.403 7.47 0.716 11.3 0.609v2h2l-1 3.31c-2.36 9.75-1.21 18.6 3 27.7 5.85 9.53 15.1 18.3 26.1 21.2 11.3 2.1 22 1.2 32.1-4.5 8.43-5.87 16.9-14.4 18.8-24.8 0.59-7.87 0.922-16.3-1-24 1.91-0.0909 1.91-0.0909 3.87-0.184 1.67-0.0844 3.34-0.169 5.01-0.254 0.842-0.0393 1.68-0.0786 2.55-0.119l2.44-0.127c0.744-0.0367 1.49-0.0733 2.25-0.111 1.97-0.105 1.97-0.105 3.88-1.21 3.18-0.234 6.35-0.392 9.53-0.518 3.78-0.19 7.37-0.611 11.1-1.4 5.36-1.1 10.7-2 16.1-2.86 2.06-0.332 4.13-0.665 6.19-0.997 1.06-0.171 2.13-0.342 3.22-0.518 22.2-3.57 22.2-3.57 44.4-7.47 0.963-0.174 1.93-0.348 2.92-0.527 7.51-1.41 14.9-3.26 22.3-5.16 2.3-0.588 4.61-1.17 6.92-1.75 4.12-1.03 8.24-2.08 12.4-3.12 1.68-0.426 3.36-0.849 5.04-1.27 10.8-2.72 21.4-5.79 31.9-9.43 2.75-0.908 5.5-1.8 8.25-2.69 28.5-9.32 56.4-19.8 83.8-32.3 0.984-0.452 1.97-0.905 2.98-1.37 12.8-5.9 25.2-12.2 37.4-19.2 1.75-0.993 3.5-1.98 5.25-2.96 25.1-14.1 49.3-30.2 72.3-47.5 0.601-0.453 1.2-0.905 1.82-1.37 6.29-4.75 12.5-9.64 18.6-14.6 2.35-1.87 4.74-3.69 7.14-5.5 6.17-4.67 12.1-9.59 17.9-14.7 3.02-2.65 6.05-5.28 9.17-7.82 0.561-0.459 1.12-0.918 1.7-1.39 1.52-1.24 3.05-2.47 4.58-3.7l2.1-1.93v-2l1.75-0.758c2.54-1.41 4.18-3.02 6.18-5.12 2.29-2.37 4.47-4.45 7.06-6.5l2-1.62v-2c0.899-0.393 0.899-0.393 1.82-0.793 2.31-1.28 3.48-2.47 5.12-4.52 2.51-3.11 5.22-5.89 8.06-8.69 9.75-9.64 18.9-19.4 27.6-30 2.06-2.5 4.15-4.95 6.27-7.4 13.4-15.5 24.8-32.6 36.2-49.6 0.555-0.831 1.11-1.66 1.68-2.52 25.5-38.3 47.7-78.9 64.3-122 0.645-1.67 1.29-3.34 1.94-5 5.08-13.1 9.75-26.2 14.1-39.5 0.3-0.923 0.601-1.85 0.91-2.8 4.96-15.3 9.37-30.7 13.3-46.2 0.907-3.52 1.89-7.01 2.9-10.5 4.88-17 7.79-34.3 10.7-51.7 1.16-6.95 2.39-13.9 3.8-20.8 1.12-5.47 2.01-10.9 2.58-16.4l0.248-2.25c0.194-1.77 0.38-3.54 0.564-5.31l2.21 0.656c6.79 1.81 13.1 2.67 20.1 2.72 1.11 0.0203 1.11 0.0203 2.24 0.041 5.35-0.0431 9.57-1.27 14.4-3.42 1.01-0.419 1.01-0.419 2.04-0.847 10.9-4.64 18.5-13.9 23-24.6 3.85-11.1 2.51-22.3-2.02-32.9-4.62-9.11-11.8-17.1-21-21.7l-1.86-0.926c-8.45-3.67-17.5-3.87-26.1-1.07-4.16 1.27-7.64 2.26-12 2-1.11-2.22-1.18-3.57-1.28-6.04-0.0374-0.81-0.0748-1.62-0.113-2.46l-0.105-2.57c0.102-10.8 0.102-10.8-2.5-20.9-0.264-3.2-0.444-6.39-0.605-9.59-0.158-3.83-0.158-3.83-1.39-7.41-0.307-1.99-0.569-4-0.812-6-2.12-16.6-4.48-33.1-8.36-49.4-0.477-2.07-0.916-4.15-1.24-6.25-0.753-4.27-1.81-8.44-2.88-12.6-0.229-0.899-0.457-1.8-0.692-2.72-0.485-1.9-0.972-3.81-1.46-5.71-0.727-2.84-1.45-5.68-2.17-8.52-4.48-17.6-9.6-35-15.5-52.1-0.229-0.666-0.458-1.33-0.694-2.02-7.59-22-16.3-43.6-26.2-64.6-0.459-0.978-0.917-1.96-1.39-2.96-12.4-26.3-25.9-51.9-41.5-76.4-0.947-1.49-1.88-2.98-2.82-4.47-12.3-19.6-25.9-38-40.2-56.2-3.17-4.03-6.32-8.07-9.36-12.2-0.407-0.554-0.814-1.11-1.23-1.68-1.17-1.6-2.33-3.2-3.49-4.8-0.633-0.762-1.27-1.52-1.92-2.31h-2l-0.738-1.7c-1.5-2.74-3.33-4.75-5.45-7.05-2.85-3.1-5.65-6.22-8.38-9.44-2.23-2.57-4.52-4.81-7.12-7-4.93-4.17-9.15-8.95-13.5-13.7-3.38-3.71-6.79-7.25-10.7-10.4-2.38-1.94-4.33-4.02-6.31-6.38-6.8-7.95-15-14.5-23.1-21-2.77-2.3-5.41-4.7-8.05-7.15-8.5-7.81-17.6-14.8-27.1-21.3-3-2.12-5.9-4.36-8.79-6.61-11-8.55-22.5-16.4-34.1-24.1-2.16-1.43-4.3-2.88-6.44-4.33-2.99-2-6.03-3.86-9.12-5.69-3.46-2.04-6.74-4.22-10-6.56-4.22-3-8.55-5.53-13.1-7.95-3.18-1.68-6.32-3.43-9.46-5.18-13.3-7.42-26.7-14.7-40.5-21.4-1.03-0.503-1.03-0.503-2.07-1.02-24.4-11.9-49.4-22-74.9-31-1.12-0.393-2.23-0.786-3.38-1.19-25.7-8.96-51.8-16.6-78.4-22.3-3.33-0.741-6.62-1.62-9.92-2.5-11.6-2.95-23.5-4.94-35.3-7-1.5-0.263-1.5-0.263-3.03-0.531-15.9-2.75-31.9-4.81-47.9-6.81-0.825-0.103-1.65-0.206-2.5-0.312-1.55-0.194-3.11-0.386-4.66-0.576-3.66-0.456-7.27-0.987-10.9-1.77 0.228-1.21 0.456-2.41 0.691-3.66 0.291-1.61 0.581-3.23 0.871-4.84 0.151-0.791 0.303-1.58 0.459-2.4 1.9-10.8-0.129-21.3-6.4-30.4-1.18-1.6-2.39-3.19-3.62-4.75-1.13-1.5-1.13-1.5-2.27-3.02-5.48-6.48-14.8-10.8-23.2-11.6-15-0.612-27.6 3.99-37.5 15.6z" fill="#F8FCFD"/>
<path transform="translate(796,150)" d="m0 0c6.87 4.33 10.2 11.5 14.1 18.4 0.755 1.31 1.51 2.62 2.27 3.93 1.89 3.28 3.77 6.57 5.63 9.87 1.51 2.66 3.03 5.32 4.54 7.97 3.19 5.6 6.34 11.2 9.49 16.9 0.563 1 1.13 2.01 1.71 3.04 2.35 4.2 4.71 8.41 7.06 12.6 5.53 9.89 11.1 19.8 16.7 29.6 1.01 1.78 2.02 3.56 3.02 5.34 6.81 12 13.8 24 20.9 35.8 3.44 5.78 6.85 11.6 10.2 17.4 6.51 11.5 13.6 22.7 20.9 33.7 0.405 0.618 0.811 1.24 1.23 1.87 0.789 1.2 1.58 2.4 2.38 3.6 3.79 5.79 5.77 11 5.02 17.9-2.25 4.34-4.45 7.1-9 9-7.73 1.02-13.3-2.57-19.3-7.1-1.48-1.17-2.96-2.34-4.43-3.52-1.59-1.26-3.18-2.52-4.78-3.77-0.773-0.615-1.55-1.23-2.34-1.86-7.8-6.19-15.7-12.2-23.9-17.9-5.06-3.59-9.94-7.39-14.8-11.3-2.46-1.96-4.91-3.83-7.53-5.58v-2c-1.98-0.66-3.96-1.32-6-2-1.73 1.04-1.73 1.04-3 3 0.276 3.15 0.276 3.15 1.38 6.75 0.282 1.04 0.282 1.04 0.569 2.11 1.95 7.09 4.16 14.1 6.34 21.1 2.45 7.95 4.6 16 6.59 24 1.41 5.62 3.14 11 5.22 16.4 0.939 2.64 1.64 5.27 2.29 8 1.9 7.91 4.31 15.7 6.68 23.4 1.06 3.5 2.11 7.01 3.16 10.5 4.68 15.7 4.68 15.7 9.54 31.4 1.62 5.12 3.09 10.3 4.5 15.4 2.5 9.17 5.33 18.2 8.17 27.3 3.19 10.2 6.28 20.4 9.34 30.7 2.29 7.66 4.6 15.3 6.93 23 4.02 13.2 8.01 26.4 11.9 39.6 1.78 6.09 3.64 12.2 5.56 18.2 1.12 3.54 2.19 7.08 3.2 10.6 0.328 1.15 0.328 1.15 0.662 2.32 0.416 1.47 0.827 2.94 1.23 4.41 1.13 3.95 2.49 7.25 4.79 10.7 6.07-0.135 9.79-2.47 14.8-5.82 8.57-5.78 17.4-11.1 26.4-16.2 12.1-6.96 24.2-14.1 36.2-21.4 3.78-2.28 7.56-4.55 11.3-6.83 1.09-0.654 2.17-1.31 3.29-1.98 1.02-0.605 2.04-1.21 3.09-1.83 0.609-0.374 1.22-0.747 1.84-1.13 4.83-2.9 4.83-2.9 8.09-2.62 0.681 0.247 1.36 0.495 2.06 0.75-0.59 4.29-2.11 7.28-4.32 11-0.338 0.572-0.676 1.14-1.02 1.73-1.11 1.87-2.22 3.73-3.34 5.59-0.774 1.3-1.55 2.61-2.32 3.91-1.57 2.65-3.15 5.3-4.72 7.95-3.27 5.5-6.49 11-9.71 16.6-7.07 12.1-14.2 24.3-21.4 36.3-0.372 0.621-0.743 1.24-1.13 1.88-1.99 3.31-4.03 6.57-6.12 9.81-2.19 3.05-2.19 3.05-1.94 6.25 6.7 2.71 13.5 4.46 20.5 6.19 10.2 2.58 20.2 5.59 30.2 9.03 6.69 2.29 13.4 4.28 20.2 5.99 3.06 0.799 6.02 1.78 9.02 2.79 1.74 0.457 3.5 0.894 5.25 1.31 18.7 4.62 37.2 10.3 55.8 15.7 1.07 0.312 2.14 0.625 3.25 0.946 3.87 1.13 7.74 2.26 11.6 3.39 5.6 1.64 11.2 3.27 16.8 4.89 2.69 0.78 5.39 1.56 8.08 2.34 0.668 0.193 1.34 0.387 2.02 0.586 7.88 2.28 15.8 4.6 23.6 6.98 7.2 2.18 14.4 4.24 21.7 6.25 26.5 7.35 52.7 15.4 78.9 23.7 7.2 2.29 13.4 4.17 21 3.9-0.326-6.95-3.39-11.8-6.88-17.8-0.876-1.52-0.876-1.52-1.77-3.06-1.77-3.07-3.56-6.13-5.35-9.19-0.999-1.72-2-3.44-2.99-5.17-1.81-3.13-3.62-6.26-5.43-9.38-16.7-28.9-16.7-28.9-15.6-36.4 2.14-4.37 4.72-7.19 9.03-9.36 4.74-1.53 8.9-0.518 13.4 1.39 6.65 3.46 12.9 7.68 19.1 11.8 3.87 2.56 7.78 4.89 11.9 7.08 5.34 2.87 10.4 6.05 15.5 9.36 19.2 12.4 39.1 23.6 58.9 34.9 15.9 9.05 31.7 18.2 47.2 27.8 0.985 0.611 1.97 1.22 2.99 1.85 18.3 11.5 18.3 11.5 21 19.1 0.494 4.98-0.0403 8.68-3 12.8-9.59 7.19-20 13.2-30.2 19.4-17 10.3-33.9 20.7-50.6 31.3-5.84 3.7-11.7 7.33-17.6 11-8.71 5.37-17.3 10.9-25.9 16.5-3.35 2.2-6.73 4.35-10.1 6.49-5.57 3.54-11 7.22-16.5 11-1.43 0.976-1.43 0.976-2.88 1.97-6.35 4.34-12.7 8.71-19 13.1-4.63 3.15-8.76 3.26-14.3 2.54-4.09-1.73-6.42-3.91-8.5-7.81-1.44-9.16 2.32-15.3 6.81-23 0.94-1.65 0.94-1.65 1.9-3.32 4.4-7.65 9.01-15.1 13.8-22.6 3.18-4.94 6.12-9.94 8.82-15.2 1.18-2.13 1.18-2.13 2.82-4.18 2.03-2.91 1.56-5.51 1.36-8.95-7.41 1.52-14.5 3.61-21.8 5.88-2.2 0.685-4.41 1.37-6.61 2.05-3.27 1.02-6.55 2.04-9.82 3.06-9.01 2.8-18.1 5.42-27.2 8-8.54 2.44-17 5.07-25.4 7.92-3.7 1.23-7.38 2.28-11.1 3.27-8.27 2.24-16.5 4.68-24.7 7.15-1.44 0.433-2.87 0.865-4.31 1.29-8.41 2.52-16.7 5.24-24.9 8.24-4.43 1.56-8.91 2.83-13.4 4.06-6.73 1.87-13.4 3.87-20 6.12-6.31 2.15-12.7 4.12-19.1 5.97-6.99 2.03-13.9 4.24-20.9 6.47-5.03 1.62-10.1 3.18-15.1 4.67-3.12 0.962-6.22 2-9.32 3.04-3.74 1.25-7.49 2.47-11.2 3.69-0.817 0.266-1.63 0.532-2.47 0.805-9.55 3.11-19.1 6.21-28.7 9.3-0.685 0.222-1.37 0.444-2.08 0.672-3.76 1.22-7.53 2.43-11.3 3.64-0.877 0.283-1.75 0.567-2.66 0.858-5.73 1.83-5.73 1.83-7.97 1.83 0.334 6.35 3.66 10.8 7 16 0.591 0.936 1.18 1.87 1.79 2.83 1.73 2.73 3.47 5.45 5.21 8.17 0.826 1.3 1.65 2.59 2.48 3.89 2.16 3.38 4.34 6.75 6.52 10.1 5.83 8.98 11.6 18 17.4 27 0.488 0.765 0.975 1.53 1.48 2.32 1.4 2.22 2.78 4.44 4.15 6.68 0.724 1.18 0.724 1.18 1.46 2.39 0.459 0.78 0.917 1.56 1.39 2.36 0.413 0.696 0.827 1.39 1.25 2.11 1.05 2.51 1.06 4.44 0.896 7.14-4.75-0.531-7.95-1.85-12-4.32-0.56-0.335-1.12-0.669-1.7-1.01-1.78-1.07-3.56-2.15-5.33-3.23-1.16-0.699-2.33-1.4-3.49-2.1-6.9-4.14-13.7-8.37-20.6-12.6-11.3-6.94-22.7-13.6-34.2-20.2-1.9-1.09-3.8-2.19-5.7-3.29-3.12-1.8-6.24-3.59-9.36-5.38-0.981-0.569-1.96-1.14-2.97-1.72-0.924-0.527-1.85-1.05-2.8-1.6-0.816-0.469-1.63-0.939-2.47-1.42-2.47-1.18-4.68-1.72-7.38-2.13-7.57 16-12.5 33.3-18 50.1-2.27 6.85-4.56 13.7-6.84 20.6-2.43 7.27-4.85 14.5-7.26 21.8-5.5 16.6-11.1 33.1-16.7 49.6-3.87 11.2-7.66 22.5-11.4 33.8-2.78 8.37-5.63 16.7-8.52 25.1-7.76 22.4-15.1 44.9-21.8 67.7-0.218 0.74-0.436 1.48-0.661 2.24-0.617 2.1-1.23 4.2-1.84 6.3-0.35 1.2-0.7 2.4-1.06 3.64-0.744 2.72-1.36 5.42-1.87 8.2 2.22 0.879 2.22 0.879 5 1 2.82-1.6 2.82-1.6 5.62-4.06 1.15-0.936 2.31-1.87 3.47-2.8 0.625-0.507 1.25-1.01 1.89-1.54 3.63-2.89 7.39-5.61 11.1-8.35 1.63-1.2 3.26-2.4 4.89-3.59 1.23-0.903 1.23-0.903 2.49-1.82 3.3-2.43 6.59-4.86 9.89-7.3 3.13-2.31 6.27-4.62 9.41-6.93 1.42-1.05 2.85-2.09 4.27-3.14 1.89-1.39 3.78-2.77 5.67-4.15 1.05-0.767 2.09-1.53 3.17-2.32 4.24-2.74 8.09-5.14 13.3-4.74 0.928 0.248 1.86 0.495 2.81 0.75 1.05 0.0619 1.05 0.0619 2.12 0.125 3.92 1.83 5.17 6.04 6.63 9.85 1.45 6.11-1.14 10.4-4.23 15.5-1.16 1.85-2.34 3.68-3.53 5.5-0.742 1.16-1.48 2.32-2.22 3.48-1.5 2.34-3 4.67-4.52 6.99-3.44 5.31-6.65 10.8-9.88 16.2-2.82 4.74-5.67 9.47-8.51 14.2-1.3 2.17-2.61 4.35-3.91 6.52-7.73 12.9-7.73 12.9-9.6 16-1.24 2.07-2.49 4.15-3.73 6.22-3.15 5.25-6.3 10.5-9.45 15.7-11.4 19-22.7 38.1-33.8 57.3-5.08 8.82-10.2 17.6-15.4 26.4-0.656 1.1-1.31 2.2-1.99 3.34-0.602 0.982-1.2 1.96-1.82 2.98-0.501 0.821-1 1.64-1.52 2.49-2.38 3.13-5.15 5.44-8.67 7.2-1.95 0.0195-1.95 0.0195-4.25-0.188-1.12-0.0831-1.12-0.0831-2.27-0.168-6.26-1.63-9.51-5.58-12.8-10.9-0.381-0.613-0.762-1.23-1.16-1.86-3.13-5.09-6.05-10.3-8.95-15.5-3.06-5.51-6.27-10.9-9.52-16.3-4.11-6.81-8.18-13.6-12.2-20.5-2.34-3.99-4.69-7.98-7.06-12-4.92-8.28-9.82-16.6-14.5-25-3.18-5.71-6.54-11.3-10-16.8-3.87-6.12-7.62-12.3-11.4-18.5-5.86-9.69-11.8-19.3-17.8-28.9-0.917-1.47-0.917-1.47-1.85-2.97-2.83-4.53-5.68-9.05-8.58-13.5-1-1.58-2-3.16-3-4.73-0.45-0.683-0.901-1.37-1.36-2.07-3.12-4.97-5.13-10.1-5.32-16.1 1.66-4.54 3.92-7.25 7.88-10 4.48-1.43 7.78-2.03 12.2-0.0742 12 6.81 22.7 16.2 33.6 24.6 4.91 3.76 9.92 7.39 14.9 11 2.62 1.91 5.23 3.84 7.82 5.79 0.888 0.663 0.888 0.663 1.79 1.34 1.31 0.996 2.6 2.01 3.88 3.04 0.705 0.556 1.41 1.11 2.14 1.68 0.936 0.754 0.936 0.754 1.89 1.52 2.07 1.44 2.07 1.44 5.86 1.1-0.534-6.88-2-12.8-4.21-19.4-0.324-0.98-0.648-1.96-0.982-2.97-0.694-2.1-1.39-4.19-2.09-6.28-1.85-5.52-3.67-11-5.49-16.6-0.364-1.1-0.729-2.2-1.1-3.33-3.12-9.42-6.11-18.9-9.06-28.4-4.5-14.4-9.2-28.8-14.1-43.1-0.493-1.45-0.985-2.91-1.48-4.36-7.32-21.6-14.8-43.1-22.2-64.6-4.66-13.4-9.26-26.8-13.7-40.3-3.42-10.3-6.84-20.6-10.4-30.9-0.608-1.78-1.21-3.55-1.82-5.33-2.24-6.51-4.71-12.9-7.45-19.2-0.933-2.36-0.933-2.36-0.933-4.36-6.28 2.69-12.3 5.66-18.4 8.88-0.773 0.409-1.55 0.817-2.34 1.24-10.7 5.66-21.3 11.5-31.8 17.4-1.15 0.638-2.31 1.28-3.5 1.93-5.87 3.25-11.7 6.57-17.4 10-4.91 2.96-9.88 5.83-14.8 8.71-2.1 1.22-4.2 2.45-6.3 3.67-1.37 0.799-1.37 0.799-2.77 1.61-1.79 1.05-3.56 2.13-5.31 3.24-2.3 1.29-2.3 1.29-4.49 1.1-1.81-0.812-1.81-0.812-3.81-2.81 4.89-7.91 9.8-15.8 15-23.5 3.44-5.1 6.76-10.3 10-15.5 3.2-5.17 6.48-10.3 9.88-15.3 3.96-5.89 7.82-11.8 11.6-17.8 0.517-0.806 1.03-1.61 1.57-2.44 3.54-5.44 3.54-5.44 5.93-11.4-0.33-0.99-0.66-1.98-1-3-0.715-0.119-1.43-0.237-2.17-0.359-2.94-0.665-5.4-1.66-8.14-2.89-4.53-1.93-9.04-3.55-13.8-4.98-6.44-1.98-12.9-4.03-19.3-6.12-1.36-0.445-1.36-0.445-2.75-0.898-1.89-0.619-3.79-1.24-5.68-1.86-5.06-1.66-10.1-3.31-15.2-4.96-1.02-0.332-2.04-0.665-3.08-1.01-37.8-12.5-37.8-12.5-75.8-24.1-6.75-1.97-13.5-4.07-20.2-6.18-2.12-0.668-4.25-1.33-6.38-1.99-0.716-0.223-1.43-0.446-2.17-0.676-1.36-0.423-2.72-0.847-4.08-1.27-3.82-1.19-7.61-2.43-11.4-3.7-4.27-1.33-8.57-2.6-12.9-3.8-9-2.51-17.9-5.34-26.8-8.21-5.87-1.89-11.7-3.7-17.7-5.36-7.71-2.19-15.2-4.91-22.8-7.62-11.6-4.21-11.6-4.21-23.4-8.12-1.17-0.374-2.35-0.748-3.56-1.13-2.81-0.694-5.13-0.904-8-0.742 0.273 6.94 3.39 11.3 7.19 17 1.28 1.95 2.55 3.91 3.83 5.86l1.99 3.05c3.83 5.94 7.46 12 11.1 18.1 0.538 0.89 1.08 1.78 1.63 2.7 0.527 0.874 1.05 1.75 1.6 2.65 1.77 2.86 3.61 5.66 5.46 8.47 3.57 5.59 5.32 10.5 5.2 17.2-1.9 4.17-4.19 6.54-8 9-5.39 1.22-10 0.387-14.8-2.38-1.77-1.18-3.52-2.39-5.25-3.62-1.05-0.75-2.1-1.5-3.18-2.27-1.75-1.25-3.49-2.51-5.23-3.77-5.04-3.64-10.3-6.94-15.5-10.2-4.68-2.89-9.29-5.88-13.9-8.95-5.1-3.42-10.2-6.78-15.4-10.1-3.08-1.95-6.15-3.91-9.21-5.88-0.574-0.369-1.15-0.738-1.74-1.12-3.56-2.29-7.1-4.59-10.6-6.91-8.07-5.28-16.2-10.5-24.5-15.4-5.27-3.13-10.4-6.46-15.5-9.82-6.42-4.21-12.9-8.33-19.4-12.3l-2.22-1.35c-1.46-0.883-2.91-1.77-4.37-2.65-25.9-15.7-25.9-15.7-28.2-20.3-0.238-2.17-0.238-2.17-0.312-4.75l-0.113-2.55c0.911-5.79 4.74-9.31 9.24-12.6 0.617-0.436 1.23-0.872 1.87-1.32 0.663-0.476 1.33-0.952 2.01-1.44 5.89-4.16 12-7.81 18.3-11.4 5.65-3.25 11.2-6.66 16.8-10.1 10.5-6.41 21.1-12.7 31.7-18.9 8.84-5.13 17.6-10.4 26.4-15.7 2.54-1.53 5.08-3.06 7.62-4.58 1.17-0.699 2.33-1.4 3.5-2.1 3.92-2.35 7.84-4.69 11.8-7.03 11.4-6.8 22.7-13.7 33.9-20.9 16.9-11 16.9-11 24.4-9.66 4.77 2.24 6.99 5.03 9.43 9.51 1.66 7.27-0.872 13.3-4.62 19.4-0.374 0.639-0.749 1.28-1.13 1.94-1.21 2.05-2.44 4.09-3.68 6.13-4.55 7.53-8.99 15.1-13.4 22.8-0.986 1.71-0.986 1.71-1.99 3.46-1.29 2.25-2.59 4.5-3.88 6.75-1.48 2.57-2.97 5.14-4.47 7.7-0.375 0.645-0.749 1.29-1.14 1.95-0.939 1.62-1.88 3.23-2.83 4.84-1.17 2.25-1.77 4.09-2.32 6.54 9.53 0.852 17.4-1.3 26.3-4.38 3.24-1.13 6.49-2.21 9.75-3.3 1.72-0.575 3.44-1.15 5.16-1.73 9.11-3.06 18.3-5.9 27.5-8.72 1.74-0.536 3.48-1.07 5.22-1.61 2.74-0.846 5.49-1.69 8.23-2.54 12.2-3.75 24.3-7.52 36.5-11.3 1.81-0.563 1.81-0.563 3.67-1.14 25.8-8.02 51.7-16.1 77.5-24.2 8.72-2.73 17.5-5.45 26.2-8.17 11.7-3.64 23.4-7.29 35-11 1.11-0.349 2.22-0.699 3.37-1.06 7.04-2.22 14.1-4.44 21.1-6.67 2.25-0.715 4.51-1.43 6.76-2.14 3.11-0.981 6.22-1.97 9.32-2.96 0.931-0.292 1.86-0.584 2.82-0.885 0.848-0.272 1.7-0.545 2.57-0.825 0.739-0.235 1.48-0.469 2.24-0.711 2.02-0.695 2.02-0.695 3.82-2.75-5.21-10.3-10.9-20.2-17-29.9-3.91-6.24-7.64-12.6-11.3-19-4.39-7.75-8.88-15.4-13.5-23.1-2.6-4.29-5.17-8.59-7.75-12.9-0.794-1.32-0.794-1.32-1.6-2.66-0.492-0.818-0.984-1.64-1.49-2.48-0.44-0.732-0.88-1.46-1.33-2.22-2.05-3.49-2.16-5.76-2.07-9.82 4.23 0.536 7.36 1.46 11.1 3.56 0.949 0.538 1.9 1.08 2.88 1.63 5.4 3.19 10.7 6.5 16.1 9.81 3.32 2.02 6.66 4.01 10 6 0.849 0.505 0.849 0.505 1.71 1.02 6.84 4.07 13.7 8.11 20.7 12 11.5 6.42 22.8 13.1 33.9 20.1 0.952 0.604 1.9 1.21 2.88 1.83 0.838 0.535 1.68 1.07 2.54 1.62 2.06 1.25 4.12 2.36 6.29 3.4 0.21-0.894 0.419-1.79 0.635-2.71 2.92-12.1 6.51-23.9 10.2-35.8 1.2-3.88 2.39-7.77 3.58-11.7 0.448-1.46 0.448-1.46 0.905-2.95 2.11-6.9 4.15-13.8 6.16-20.8 3.67-12.7 7.53-25.2 11.4-37.8 0.709-2.3 1.42-4.6 2.13-6.9 4.02-13 8.06-26.1 12.1-39.1 4.63-14.9 9.15-29.8 13.6-44.8 1.29-4.31 2.59-8.61 3.91-12.9 5.08-16.5 9.93-33.1 14.5-49.8 2.78-10.1 5.73-20.2 8.81-30.2 0.733-2.38 1.46-4.76 2.19-7.15 0.472-1.54 0.944-3.08 1.42-4.62 0.215-0.7 0.429-1.4 0.65-2.12 0.932-3.03 1.89-6.04 2.91-9.04 0.868-2.69 1.07-4.73 0.986-7.55-0.018-0.781-0.0361-1.56-0.0547-2.37-0.0232-0.58-0.0464-1.16-0.0703-1.76-5.06 1.55-8.47 4.65-12.4 8-6.24 5.18-12.6 10-19.3 14.7-3.15 2.21-6.23 4.51-9.3 6.83-4.81 3.64-9.69 7.15-14.6 10.6-3.13 2.21-6.13 4.49-9.05 6.97-10.2 8.63-10.2 8.63-15.3 8.92-4.48-0.652-8-2.7-11.1-6-2.24-4.38-2.96-9.16-2-14 1.11-2.41 1.11-2.41 2.59-5.03 0.546-0.969 1.09-1.94 1.65-2.94 2.9-5.01 5.88-9.96 8.89-14.9 6.23-10.3 12.3-20.7 18.2-31.2 3.25-5.73 6.51-11.4 9.77-17.2 0.345-0.605 0.691-1.21 1.05-1.83 4.36-7.64 8.76-15.3 13.2-22.8 3.21-5.43 6.34-10.9 9.46-16.4 4.53-7.97 9.17-15.9 13.9-23.7 3.58-5.91 6.91-11.9 10.2-18 0.894-1.66 1.79-3.32 2.68-4.97 0.445-0.824 0.89-1.65 1.35-2.5 2.05-3.79 4.13-7.57 6.21-11.3 1.22-2.21 2.43-4.42 3.64-6.64 1.93-3.53 3.9-7.04 5.86-10.6 0.601-1.1 1.2-2.21 1.82-3.34 4.49-7.92 10.1-16.8 20.4-14.7z" fill="#FBFCFE"/>
<path transform="translate(793 365)" d="m0 0c2.85 1.21 4.16 2.4 6.06 4.88 2.44 7.47 2.63 15.1 3.06 22.9 0.471 8.05 0.964 16.1 1.94 24.1 0.248 2.55 0.486 5.09 0.719 7.64 0.248 2.37 0.248 2.37 0.773 4.71 0.474 2.47 0.741 4.84 0.918 7.34 0.0685 0.926 0.137 1.85 0.208 2.81 0.0734 1.01 0.147 2.02 0.222 3.07 1.16 15.2 2.7 30.4 4.25 45.6 0.403 3.95 0.801 7.91 1.2 11.9 0.309 3.08 0.621 6.15 0.934 9.23 0.148 1.46 0.295 2.92 0.441 4.38 0.202 2.02 0.409 4.04 0.617 6.05 0.116 1.14 0.232 2.29 0.352 3.47 0.292 2.89 0.292 2.89 1.37 5.81 0.0443 1.35 0.0393 2.71 0 4.06-0.0649 5.68 0.128 11.5 1.54 17 0.645 2.63 0.465 5.19 0.465 7.9 0.33 0.99 0.66 1.98 1 3v7c0.232 0.866 0.232 0.866 0.469 1.75 0.916 3.88 0.931 7.88 1.14 11.8 0.174 3.01 0.434 5.52 1.39 8.4 0.253 2.11 0.462 4.23 0.648 6.34 0.175 1.94 0.175 1.94 0.353 3.92 0.091 1.03 0.091 1.03 0.184 2.09 0.324 3.67 0.66 7.34 0.998 11 0.0684 0.742 0.137 1.48 0.207 2.25 0.596 6.39 1.31 12.8 2.05 19.1 1.58 13.8 2.89 27.6 4.04 41.5 0.745 8.84 1.58 17.6 2.9 26.4 2.81 19.6 0.521 32.4-9.57 50.1-2.93 5.33-5.25 10.9-7.62 16.5-3.7 8.52-7.55 17-11.5 25.3-1.65 3.47-3.24 6.96-4.77 10.5-0.647 1.47-1.32 2.93-2 4.38-0.371 0.798-0.743 1.6-1.12 2.42-0.335 0.708-0.67 1.42-1.02 2.14-0.96 2.31-0.96 2.31-0.734 6.04 10.4-3.25 20.1-7.74 30-12.3 7.76-3.63 15.6-7.09 23.5-10.4 5.93-2.52 11.8-5.12 17.7-7.79 6.71-3.04 13.5-6.01 20.2-8.88 1.17-0.495 1.17-0.495 2.36-1 0.735-0.308 1.47-0.616 2.23-0.933 0.637-0.267 1.27-0.535 1.93-0.81 11.5-4.46 22.5-2.93 34.4-0.944 1.67 0.261 1.67 0.261 3.38 0.527 4.63 0.74 9.21 1.51 13.8 2.7 3.13 0.793 5.97 1.24 9.18 1.46 2.73 0.196 5.38 0.439 8.08 0.894 3.56 0.587 7.12 1.04 10.7 1.48 1.42 0.174 2.83 0.349 4.25 0.523 2.21 0.27 4.41 0.54 6.62 0.81 2.15 0.262 4.29 0.527 6.44 0.792 1.28 0.156 2.55 0.312 3.87 0.473 1.99 0.271 3.97 0.579 5.94 0.976 3.07 0.609 6.13 0.927 9.25 1.25 1.39 0.148 2.79 0.296 4.18 0.444 1.11 0.117 1.11 0.117 2.24 0.237 15.8 1.68 31.5 3.64 47.2 5.75 0.992 0.132 1.98 0.264 3 0.401 2.83 0.378 5.66 0.76 8.49 1.14 0.844 0.113 1.69 0.227 2.56 0.344 3.87 0.528 7.68 1.15 11.5 1.93 1.44 0.157 2.88 0.288 4.32 0.395 1.27 0.0997 1.27 0.0997 2.57 0.201 0.922 0.0715 1.84 0.143 2.8 0.217 14.6 1.19 29 2.98 43.5 4.74 2.73 0.325 5.46 0.638 8.2 0.94 4.45 0.491 8.9 1.02 13.4 1.56 3.53 0.423 7.07 0.843 10.6 1.26 0.928 0.11 1.86 0.22 2.81 0.334 11 1.3 22 2.5 33 3.5 0.984 0.0891 1.97 0.178 2.98 0.27 4.75 0.426 9.5 0.839 14.3 1.24 1.72 0.15 3.44 0.3 5.17 0.45 0.778 0.0613 1.56 0.123 2.36 0.186 5.03 0.445 9.24 0.922 12.9 4.58 1.12 2.12 1.12 2.12 1.25 4.19-1.79 3.08-4.88 3.86-8.12 4.94-3 0.662-6.01 1.02-9.06 1.37-0.962 0.118-1.92 0.235-2.91 0.357-3.67 0.442-7.35 0.861-11 1.28-1.17 0.133-1.17 0.133-2.36 0.268-13.5 1.54-27.1 3.03-40.6 4.52-8.23 0.903-16.5 1.81-24.7 2.72-2.85 0.314-5.71 0.627-8.56 0.939-1.74 0.192-3.49 0.385-5.23 0.577-0.784 0.0852-1.57 0.17-2.38 0.258-4.1 0.454-8.14 1.02-12.2 1.73-1.52 0.21-3.04 0.411-4.56 0.601-0.855 0.107-1.71 0.215-2.59 0.325-1.37 0.17-1.37 0.17-2.77 0.344-0.968 0.121-1.94 0.242-2.93 0.367-3.15 0.393-6.3 0.785-9.45 1.18-2.17 0.271-4.34 0.542-6.52 0.813-9.76 1.22-19.5 2.42-29.3 3.59-0.756 0.0903-1.51 0.181-2.29 0.274-3.44 0.411-6.88 0.817-10.3 1.22-6.29 0.747-12.5 1.66-18.7 2.85-4.02 0.703-8.05 1.08-12.1 1.45-5.68 0.556-11.2 1.26-16.8 2.5-3.64 0.676-7.3 1.05-11 1.43-7.06 0.741-14.1 1.63-21.1 2.62-0.906 0.127-1.81 0.254-2.75 0.385-0.846 0.122-1.69 0.244-2.56 0.369-1.12 0.162-1.12 0.162-2.27 0.326-2.18 0.344-2.18 0.344-4.98 1.36-1.69 0.167-3.38 0.295-5.08 0.402-5.2 0.4-10.3 1.03-15.5 1.79-0.747 0.11-1.49 0.22-2.27 0.334-3.1 0.459-6.19 0.925-9.29 1.39-2.29 0.346-4.59 0.685-6.88 1.02-0.687 0.106-1.37 0.212-2.08 0.322-7.81 1.14-13.7 1.33-21-2.12-0.648-0.3-1.3-0.601-1.96-0.91-2.11-0.98-4.2-1.98-6.3-2.98-1.47-0.689-2.95-1.38-4.43-2.06-2.25-1.05-4.5-2.09-6.74-3.15-6.86-3.22-13.8-6.3-20.7-9.35-7.2-3.18-14.4-6.39-21.5-9.67-4.42-2.02-8.84-4.02-13.3-6.02-0.872-0.393-1.74-0.785-2.64-1.19-2.55-1.14-5.11-2.26-7.67-3.37-0.746-0.335-1.49-0.67-2.26-1.01-5.18-2.22-9.8-3.02-15.4-3.42 1.49 4.92 3.54 9.32 5.88 13.9 0.685 1.35 1.37 2.7 2.05 4.05 0.344 0.675 0.687 1.35 1.04 2.05 3.4 6.69 6.68 13.4 9.9 20.2 3.28 6.87 6.57 13.7 9.89 20.6 0.316 0.653 0.632 1.31 0.958 1.98 1.26 2.6 2.51 5.19 3.77 7.78 0.88 1.81 1.76 3.62 2.64 5.44 0.759 1.56 0.759 1.56 1.53 3.16 2.32 4.96 3.6 8.52 3.53 14.1-0.00967 1.57-0.00967 1.57-0.0195 3.17-0.168 2.64-0.168 2.64-1.17 4.64v3.19c0 3.73-0.428 7.13-1 10.8-0.173 1.5-0.34 3-0.5 4.5-0.614 5.62-1.44 11.2-2.4 16.7-1.25 7.48-2.24 15-3.22 22.5-0.183 1.39-0.367 2.78-0.551 4.17-0.443 3.36-0.885 6.72-1.32 10.1-1.59-0.0522-1.59-0.0522-3.22-0.105-10.8-0.487-10.8-0.487-20.8 3.11-3.75 3.86-5.32 7.77-5.62 13.1 0.191 3.35 0.668 5.61 2.69 8.31 6.14 5.35 10.7 5.9 18.6 5.47 2.36 0.0898 2.36 0.0898 4.36 2.09 0.167 1.81 0.167 1.81 0.0469 4-0.0425 0.806-0.0851 1.61-0.129 2.44-0.0554 0.844-0.111 1.69-0.168 2.56-0.04 0.813-0.0799 1.63-0.121 2.46-0.233 3.98-0.634 7.8-1.52 11.7-1.65 8.07-2.38 16.3-3.27 24.4-0.199 1.8-0.398 3.61-0.597 5.41-0.415 3.76-0.826 7.53-1.24 11.3-0.523 4.8-1.05 9.61-1.59 14.4-0.412 3.72-0.819 7.43-1.22 11.2-0.194 1.77-0.389 3.54-0.586 5.31-0.275 2.48-0.544 4.96-0.811 7.44-0.081 0.719-0.162 1.44-0.245 2.18-0.471 4.45-0.611 8.81-0.54 13.3-0.0111 2.33-0.363 4.44-0.908 6.7-1.3 5.91-2.02 11.8-2.73 17.9-0.134 1.08-0.268 2.16-0.406 3.27-0.541 4.53-1.05 8.98-0.996 13.5 0.0244 3.18-0.273 5.84-0.91 8.94-0.96 5.29-1.33 10.5-1.56 15.8-0.731 15.7-0.731 15.7-3.92 19.5-1.58 1.31-1.58 1.31-4.02 1.81-2.56-0.5-2.56-0.5-4.66-2.67-2.1-3.12-2.57-4.94-2.98-8.65-0.148-1.24-0.295-2.49-0.448-3.77-0.0751-0.699-0.15-1.4-0.228-2.12-0.271-2.5-0.568-5-0.869-7.5-0.747-6.26-1.46-12.5-2.17-18.8-0.269-2.35-0.539-4.71-0.808-7.06-0.717-6.27-1.43-12.5-2.14-18.8-0.445-3.91-0.891-7.82-1.34-11.7-3.45-30.2-6.82-60.4-9.92-90.7-3.02-29.2-6.7-58.4-10.4-87.6-0.177-1.41-0.177-1.41-0.357-2.85-0.556-4.43-1.11-8.86-1.67-13.3-0.887-7.03-1.76-14.1-2.42-21.1-0.394-3.99-1.05-7.95-1.69-11.9-0.13-0.844-0.26-1.69-0.395-2.56-0.191-1.21-0.191-1.21-0.387-2.44-0.114-0.722-0.228-1.44-0.346-2.19-0.31-1.9-0.31-1.9-1.37-3.81-4.44 0.542-7.62 1.62-11.5 3.81-1.15 0.637-2.29 1.27-3.48 1.93-0.64 0.359-1.28 0.719-1.94 1.09-3.97 2.23-7.97 4.42-12 6.61-0.919 0.505-1.84 1.01-2.79 1.53-5.56 3.04-11.2 5.99-16.8 8.87-0.644 0.329-1.29 0.657-1.95 0.996-1.32 0.673-2.64 1.35-3.96 2.02-11.3 5.75-22.3 11.7-33.2 18.2-7.29 4.33-14.7 8.3-22.3 12.2-6.09 3.14-11.9 6.56-17.6 10.3-2.6 1.46-4.66 2.07-7.59 2.46-0.33-0.66-0.66-1.32-1-2 0.666-0.886 1.33-1.77 2.02-2.68 6.49-8.69 12.5-17.6 18.3-26.7 2.96-4.61 5.98-9.18 8.98-13.8 5.86-8.94 11.7-17.9 17.3-27 5.2-8.28 10.5-16.5 15.9-24.6 1.3-1.99 2.6-3.99 3.9-5.99 1.04-1.59 1.04-1.59 2.11-3.21 0.579-0.887 1.16-1.77 1.75-2.69 3.56-4.89 7.41-7.47 12.8-10.1 0.693-0.34 1.39-0.68 2.1-1.03 6.09-2.96 12.3-5.73 18.5-8.43 4.02-1.75 7.94-3.61 11.8-5.59 5.91-2.9 11.9-5.55 17.9-8.26 2.95-1.34 5.9-2.67 8.85-4.01 1.1-0.498 1.1-0.498 2.22-1.01 4.63-2.1 9.25-4.22 13.9-6.35 1.11-0.512 2.21-1.02 3.36-1.55 2.06-0.953 4.12-1.91 6.18-2.87 0.908-0.42 1.82-0.839 2.75-1.27 0.785-0.365 1.57-0.731 2.38-1.11 1.91-0.772 1.91-0.772 3.91-0.772-2.28-4.82-5.39-6.76-10-9.06-0.741-0.382-1.48-0.763-2.24-1.16-7.7-3.89-15.6-7.31-23.5-10.8-11.4-5.02-22.6-10.5-33.8-16-1.41-0.69-2.81-1.38-4.22-2.07-0.681-0.334-1.36-0.669-2.06-1.01-5.93-2.9-11.9-5.68-17.9-8.43-9.92-4.79-14.5-11.3-20.2-20.5-0.725-1.16-1.45-2.31-2.18-3.46-4.39-6.96-8.7-14-13-21-5.16-8.53-10.4-17-15.8-25.3-2.76-4.23-5.47-8.48-8.15-12.8-7.8-12.5-16-24.7-24.2-36.9-3.69-5.5-3.69-5.5-3.31-7.71 0.206-0.598 0.413-1.2 0.625-1.81 3.6 0.99 6.61 2.28 9.73 4.28 0.704 0.448 1.41 0.895 2.13 1.36 0.705 0.45 1.41 0.899 2.14 1.36 22.6 14 45.5 27.4 68.8 40.2 8.79 4.86 17.5 9.83 26.2 14.8 0.71 0.403 1.42 0.807 2.15 1.22 1.85 1.05 3.69 2.1 5.54 3.15 1.06 0.607 2.13 1.21 3.23 1.84 2.15 1.24 4.29 2.51 6.42 3.79 1.06 0.638 2.13 1.28 3.23 1.93 0.929 0.566 1.86 1.13 2.82 1.71 2.59 1.33 4.75 1.94 7.62 2.35 0.0735-1.45 0.0735-1.45 0.148-2.94 0.0752-1.35 0.151-2.71 0.227-4.06 0.0696-1.3 0.139-2.6 0.211-3.94 0.345-4.91 0.985-9.79 1.61-14.7 0.981-7.68 1.77-15.4 2.55-23.1 0.171-1.67 0.342-3.34 0.513-5.01 1.05-10.3 2.06-20.7 3.05-31 2.66-27.8 5.58-55.5 8.88-83.1 3.2-26.9 5.88-53.8 8.34-80.7 0.209-2.29 0.419-4.59 0.629-6.88 0.255-2.78 0.505-5.57 0.752-8.35 0.697-7.67 1.6-15.3 2.65-22.9 0.507-3.78 0.896-7.55 1.22-11.3 0.121-1.35 0.242-2.71 0.363-4.06 0.179-2.05 0.357-4.09 0.533-6.14 0.675-7.79 1.53-15.5 2.9-23.2 0.531-3.25 0.727-6.47 0.857-9.75 0.347-5.5 0.875-10.9 3.56-15.8 3-2 3-2 4.94-1.88z" fill="#0F2533"/>
<path transform="translate(1199,391)" d="m0 0c1.12 0.26 2.25 0.521 3.41 0.789 29 7.83 52.4 25 67.7 51.1 13.1 22.8 15.3 45.4 14.9 71.2-0.00516 1.05-0.0103 2.09-0.0156 3.17-1.13 25.4-16.5 49.3-34.3 66.5-23.6 20.6-52.4 29.8-83.5 27.7-31.3-2.46-59.7-18-80.2-41.8-18.4-23.5-27.9-52.6-24.7-82.5 0.454-2.39 1.05-4.7 1.69-7.05 0.245-1.16 0.49-2.32 0.742-3.52 6.07-28.1 22.2-52.5 46.3-68.3 5.18-3.19 10.7-5.8 16.2-8.35 1.53-0.721 3.03-1.49 4.53-2.27 20.2-10.2 45.5-11.9 67.2-6.57z" fill="#FBFCFE"/>
<path transform="translate(476 399)" d="m0 0c1.71 0.827 3.43 1.62 5.16 2.42 6.58 3.11 12.1 6.72 17.7 11.5 1.26 1.07 1.26 1.07 2.55 2.15 4.67 4.03 4.67 4.03 6.45 5.85v2h2v2h2c8.1 8.75 15 19.9 19.2 31 0.519 1.37 1.06 2.72 1.62 4.07 5.19 12.7 5.7 25.2 5.7 38.7 0.00281 0.829 0.00562 1.66 0.00851 2.51-0.0125 32.7-11.4 58-34.1 81.2-23.7 22.5-53.9 28.6-85.6 27.8-9.52-0.382-18.1-2.91-26.9-6.35-0.738-0.278-1.48-0.556-2.24-0.842-13.2-5.04-25.5-12.5-35.8-22.2v-2c-0.554-0.217-1.11-0.433-1.68-0.656-16.3-9.45-25.3-34.7-30.3-51.7-1.99-7.82-2.71-15.6-3.01-23.6-0.0529-1.13-0.106-2.27-0.16-3.43-0.723-27.7 11.5-55.5 30.2-75.6 33.5-34.1 83.2-46.2 127-24.9z" fill="#FCFDFF"/>
<path transform="translate(787)" d="m0 0h813v1600h-1600v-717l2-1c1.8 3.83 2.2 6.78 2 11h-1v7l2-2c1.21 4.67 1.09 9.21 1 14 0.99 0.33 1.98 0.66 3 1 0.054 1.62 0.0928 3.25 0.125 4.88l0.0703 2.74c-0.195 2.38-0.195 2.38-2.2 4.38-0.197 2.97-0.266 5.84-0.249 8.81-0.00261 0.928-0.00521 1.86-0.0079 2.81-0.00635 3.15 0.0017 6.29 0.00955 9.44-0.00159 2.26-0.00405 4.53-0.00732 6.79-0.00644 6.25-3.21e-4 12.5 0.00776 18.8 0.00588 6.04 0.00241 12.1-8.29e-4 18.1-0.00629 12.4-0.00309 24.7 0.00559 37.1 0.00861 12.3 0.0135 24.6 0.0133 36.8-7.65e-6 0.764-1.53e-5 1.53-2.32e-5 2.31-4.09e-5 3.1-1.07e-4 6.2-2.06e-4 9.3-9.07e-4 29.1 0.00905 58.3 0.0244 87.4 0.0136 25.8 0.0199 51.6 0.0192 77.5-4.04e-5 1.65-8.08e-5 3.31-1.21e-4 4.96-3.05e-5 1.23-3.05e-5 1.23-6.17e-5 2.48-1.01e-4 4.11-1.91e-4 8.23-2.7e-4 12.3-1.67e-5 0.812-3.34e-5 1.62-5.06e-5 2.46-3.67e-4 21.6 0.00419 43.2 0.0104 64.9 2.2e-4 0.771 4.41e-4 1.54 6.67e-4 2.34 8.88e-4 3.1 0.00178 6.2 0.00269 9.3 0.00314 10.7 0.00467 21.4 0.00511 32.2 6.02e-4 13.9 0.00469 27.7 0.0144 41.6 0.00461 6.67 0.00768 13.3 0.00641 20-0.00112 7.27 0.00269 14.5 0.0124 21.8 0.00144 1.12 0.00289 2.25 0.00438 3.41 0.0289 16.1 0.273 32.3 0.869 48.4 0.0244 0.706 0.0488 1.41 0.074 2.14 0.0652 1.86 0.138 3.72 0.21 5.58-0.0209 2.59-0.358 4.51-1.02 6.98l0.5 2.75c0.62 4.03 0.124 7.23-0.5 11.2l2 1v2h-3v14h3l0.367 1.79c1.04 5.04 1.04 5.04 2.88 9.83 1.12 3.53-0.0084 5.98-1.25 9.38l-1 1c-0.368 2.33-0.702 4.66-1 7h-2v-7l-1 14c5.9 3.01 5.9 3.01 11.9 3.19l2.93-0.082c0.724-0.0348 1.45-0.0696 2.2-0.105 0.268 0.639 0.536 1.28 0.812 1.94 1.07 2.39 1.07 2.39 4.19 3.06 4.99 0.459 4.99 0.459 9.31-1.69 2.69-1.31 2.69-1.31 4.68-0.798 0.779 0.29 1.56 0.581 2.36 0.88 6.26 2 12.1 2.02 18.7 1.98 1.29 0.00406 2.57 0.00812 3.9 0.0123 3.56 0.0108 7.12 0.00305 10.7-0.00783 3.88-0.00853 7.76 3.9e-4 11.6 0.00706 6.79 0.00929 13.6 0.00744 20.4-0.00173 10.1-0.0136 20.2-0.01 30.3-0.00304 18 0.0119 36.1 0.00684 54.1-0.00528 15.8-0.0105 31.6-0.0151 47.4-0.0137 1.05 8.4e-5 2.1 1.68e-4 3.18 2.55e-4 4.25 3.52e-4 8.51 7.36e-4 12.8 0.00117 39.9 0.00397 79.8-0.00876 120-0.0295 35.4-0.0184 70.9-0.0242 106-0.0187 2.28 3.46e-4 4.55 6.93e-4 6.83 0.00104 1.12 1.71e-4 2.25 3.42e-4 3.41 5.18e-4 5.66 8.54e-4 11.3 0.00168 17 0.00247 1.68 2.36e-4 1.68 2.36e-4 3.39 4.76e-4 29.6 0.00399 59.3-0.00149 88.9-0.00999 3.19-9.07e-4 6.38-0.00181 9.57-0.00272 2.12-6.01e-4 4.23-0.00121 6.35-0.00183 14.7-0.00422 29.5-0.0048 44.2-0.00289 19 0.00245 38-0.00165 57-0.0172 10-0.00804 20.1-0.0107 30.1-0.00536 6.71 0.00298 13.4-0.00135 20.1-0.0115 3.82-0.00561 7.64-0.00816 11.5-0.00183 19.7 0.125 19.7 0.125 39.3-1.82 5.29-0.811 10.2-0.681 15.5 0.0612 4.86 0.624 9.66 0.6 14.5 0.555 1.42-0.00568 1.42-0.00568 2.87-0.0115 3.01-0.0121 6.02-0.0308 9.03-0.051 3.97-0.0267 7.94-0.0466 11.9-0.0625 0.901-0.0083 1.8-0.0166 2.73-0.0251 0.855-0.0033 1.71-0.00661 2.59-0.01 0.742-0.00524 1.48-0.0105 2.25-0.0159 2.46 0.114 2.46 0.114 5.38 0.613 5.24 0.759 10.5 0.636 15.8 0.624 1.18 0.00115 2.36 0.00231 3.58 0.0035 3.28 0.00219 6.55-1.02e-4 9.83-0.00428 3.56-0.00344 7.13-0.00106 10.7 5.77e-4 6.25 0.00207 12.5 4.31e-4 18.7-0.00364 9.29-0.00603 18.6-0.00634 27.9-0.00546 15.6 0.00131 31.2-0.00203 46.9-0.00802 15.5-0.00592 30.9-0.00977 46.4-0.0109 0.962-6.87e-5 1.92-1.37e-4 2.91-2.08e-4 4.88-3.38e-4 9.77-6.4e-4 14.7-9.27e-4 34.6-0.0021 69.2-0.00884 104-0.0183 33.6-0.00918 67.2-0.0163 101-0.0205 1.04-1.32e-4 2.07-2.63e-4 3.14-3.99e-4 10.4-0.00132 20.8-0.00259 31.2-0.00384 21.2-0.00254 42.4-0.00536 63.6-0.00835 0.974-1.37e-4 1.95-2.75e-4 2.95-4.16e-4 65.1-0.0092 130-0.025 195-0.0419 1.45-2.79 2.3-4.97 2.63-8.11 0.126-1.13 0.126-1.13 0.254-2.29l0.238-2.36c0.0864-0.793 0.173-1.59 0.262-2.4 0.211-1.95 0.413-3.9 0.613-5.85h2l-1.06-2.25c-0.983-2.88-0.97-3.96 0.0625-6.75h-3c-0.33 1.32-0.66 2.64-1 4-0.0539-1.96-0.0927-3.92-0.125-5.88l-0.0703-3.3c0.195-2.82 0.195-2.82 2.2-4.82 0.99 0.33 1.98 0.66 3 1v-6c-0.66-0.33-1.32-0.66-2-1 0.163-0.783 0.325-1.57 0.493-2.37 0.641-4.58 0.638-9.05 0.621-13.7 1.46e-4 -0.996 2.92e-4 -1.99 4.43e-4 -3.02-6.95e-4 -3.28-0.00847-6.56-0.0163-9.84-0.00187-2.28-0.00329-4.56-0.00429-6.83-0.00381-5.99-0.0136-12-0.0247-18-0.0102-6.11-0.0148-12.2-0.0198-18.3-0.0107-12-0.0278-24-0.0488-36-1.37 1.14-1.37 1.14-1.11 4.18 1.5e-4 1.45 0.00593 2.89 0.0159 4.34 0.00146 0.789 0.00292 1.58 0.00443 2.39 0.00382 1.72 0.00995 3.45 0.0181 5.17 0.0128 2.74 0.0193 5.49 0.0241 8.23 0.0134 6.83 0.0373 13.7 0.0614 20.5 0.0199 5.75 0.0355 11.5 0.0456 17.2 0.00637 2.67 0.0189 5.34 0.0317 8.01 0.0333 11.3-0.376 22.6-1.09 33.9h-1v-461h1c0.0103 0.647 0.0206 1.29 0.0312 1.96 0.108 6.72 0.223 13.4 0.341 20.1 0.0434 2.51 0.0851 5.02 0.125 7.53 0.0576 3.6 0.121 7.2 0.186 10.8 0.0167 1.13 0.0334 2.25 0.0506 3.42 0.0199 1.04 0.0399 2.08 0.0604 3.15 0.0155 0.919 0.0311 1.84 0.0471 2.79 0.0193 2.26 0.0193 2.26 1.16 4.21 0.33-60.1 0.66-120 1-182h-2c0.00222 0.627 0.00444 1.25 0.00673 1.9 0.106 31.4 0.0695 62.7-1.01 94.1h-1c-0.0233-10.4-0.041-20.9-0.0518-31.3-0.00519-4.85-0.0122-9.69-0.0236-14.5-0.011-4.69-0.0169-9.38-0.0194-14.1-0.00183-1.78-0.0054-3.55-0.0109-5.33-0.07-23.8-0.07-23.8 1.11-31.8 0.66-0.66 1.32-1.32 2-2 0.0926-2.66 0.0646-5.21-0.0586-7.87-0.0411-1.18-0.0411-1.18-0.083-2.39-0.0889-2.54-0.191-5.08-0.296-7.61-0.915-22.9-0.915-22.9 0.438-31.1 0.33-0.33 0.66-0.66 1-1 0.0752-1.69 0.0831-3.38 0.0625-5.07-0.00773-1.04-0.0155-2.09-0.0234-3.16-0.0257-2.2-0.0518-4.39-0.0781-6.59-0.0429-5.84 0.143-11.4 1.04-17.2-0.66 1.32-1.32 2.64-2 4-0.0272-1.9-0.0465-3.79-0.0625-5.69-0.0116-1.06-0.0232-2.11-0.0352-3.2 0.0977-3.11 0.0977-3.11 0.578-5.51 0.704-3.53 0.822-7.02 0.895-10.6 0.0374-0.699 0.0748-1.4 0.113-2.12 0.07-4.12-0.32-5.68-3.01-8.88-0.817-0.66-1.63-1.32-2.48-2-0.33 0.66-0.66 1.32-1 2-2.29 0.414-2.29 0.414-5.06 0.625-0.919 0.0748-1.84 0.15-2.79 0.227-0.71 0.049-1.42 0.098-2.15 0.148v-3c-0.33-0.99-0.66-1.98-1-3 0.707-1.73 0.707-1.73 1.81-3.62 5.32-10.1 5.42-20.9 2.16-31.7-2.45-6.69-5.98-12.1-10.8-17.3-1.14-1.41-1.14-1.41-1.14-3.41 11.5 1.38 11.5 1.38 15.1 5.19 0.959 0.897 0.959 0.897 1.94 1.81 2.71-0.14 2.71-0.14 5-1 1.23-4.45 1.36-8.78 1.56-13.4 0.0632-1.45 0.0632-1.45 0.128-2.92 0.493-12.5 0.452-25.1 0.433-37.6-0.00439-3.67-0.00285-7.33-0.0021-11 5.2e-4 -6.32-0.00257-12.6-0.00824-19-0.00819-9.14-0.0107-18.3-0.012-27.4-0.00218-14.8-0.00881-29.7-0.0183-44.5-0.0092-14.4-0.0163-28.8-0.0205-43.2-3.94e-4 -1.34-3.94e-4 -1.34-7.96e-4 -2.7-0.00131-4.47-0.00257-8.93-0.00381-13.4-0.0103-37-0.0279-73.9-0.0503-111-1.05 14.7-1.14 29.4-1.11 44.2 2.83e-4 2.59 1.23e-4 5.19-4.43e-4 7.78-5.2e-4 5.55 0.00257 11.1 0.00824 16.6 0.00818 8.02 0.0107 16 0.012 24.1 0.00218 13 0.00881 26 0.0183 39.1 0.0092 12.6 0.0163 25.3 0.0205 37.9 3.94e-4 1.17 3.94e-4 1.17 7.96e-4 2.37 0.00131 3.92 0.00257 7.84 0.00381 11.8 0.0103 32.4 0.0279 64.8 0.0503 97.3h-1c-1.17-14.9-1.13-29.8-1.11-44.8 8.42e-4 -2.78 1.67e-4 -5.56-4.43e-4 -8.34-5.21e-4 -5.95 0.00258-11.9 0.00824-17.9 0.00817-8.61 0.0107-17.2 0.012-25.8 0.00218-14 0.00882-27.9 0.0183-41.9 0.0092-13.6 0.0163-27.1 0.0205-40.7 2.63e-4 -0.838 5.25e-4 -1.68 7.96e-4 -2.54 0.00131-4.2 0.00257-8.41 0.00381-12.6 0.0103-34.8 0.0279-69.6 0.0503-104h1c0.33 1.98 0.66 3.96 1 6 0.0251-0.66 0.0501-1.32 0.0759-2 0.117-3.02 0.239-6.04 0.362-9.06 0.059-1.56 0.059-1.56 0.119-3.15 0.171-4.14 0.352-8.19 0.975-12.3 0.689-5.15 0.573-10.3 0.531-15.4-0.00451-1.07-0.00902-2.13-0.0137-3.23-0.0117-2.61-0.0281-5.22-0.0488-7.83h-1c-0.0269-1.65-0.0463-3.29-0.0625-4.94-0.0116-0.917-0.0232-1.83-0.0352-2.78 0.0977-2.29 0.0977-2.29 1.1-3.29 0.102-2.51 0.139-4.99 0.125-7.5 0.00387-0.683 0.00773-1.37 0.0117-2.07-0.0066-3.52-0.17-6.94-0.638-10.4-0.66-5.78-0.631-11.5-0.612-17.3-1.49e-4 -1.22-2.98e-4 -2.44-4.51e-4 -3.69 5.72e-4 -3.36 0.00561-6.72 0.0126-10.1 0.0064-3.63 0.00695-7.26 0.00818-10.9 0.00288-6.28 0.00931-12.6 0.0181-18.8 0.0126-9.09 0.0186-18.2 0.0229-27.3 0.00706-14.8 0.0179-29.5 0.0317-44.3 8.28e-4 -0.882 0.00166-1.76 0.00251-2.67 0.0059-6.26 0.0119-12.5 0.018-18.8 0.00693-7.16 0.0138-14.3 0.0205-21.5 8.28e-4 -0.883 0.00166-1.77 0.00251-2.67 0.0137-14.7 0.0234-29.4 0.0304-44.1 0.00448-9.07 0.0125-18.1 0.0251-27.2 0.00841-6.21 0.0133-12.4 0.0154-18.6 0.00135-3.58 0.00437-7.17 0.0118-10.7 0.00797-3.88 0.00826-7.76 0.00778-11.6 0.00359-1.14 0.00719-2.28 0.0109-3.45-0.00137-1.04-0.00275-2.07-0.00416-3.14 9.22e-4 -0.896 0.00184-1.79 0.00279-2.71-0.117-2.28-0.523-4.2-1.12-6.39-0.0787-1.59-0.108-3.18-0.0977-4.77 0.00483-1.33 0.00483-1.33 0.00977-2.7 0.00838-0.92 0.0168-1.84 0.0254-2.79 0.00451-0.936 0.00902-1.87 0.0137-2.84 0.0118-2.3 0.0282-4.61 0.0488-6.91h2c-0.158-0.711-0.317-1.42-0.48-2.16-0.516-2.82-0.724-5.5-0.836-8.36-0.0419-1.02-0.0838-2.04-0.127-3.1l-0.119-3.2c-0.0648-1.61-0.0648-1.61-0.131-3.26-0.106-2.64-0.208-5.29-0.307-7.93-0.66-0.33-1.32-0.66-2-1 0.33 9.57 0.66 19.1 1 29-2.63-2.63-2.29-3.92-2.38-7.59-0.0512-1.67-0.0512-1.67-0.104-3.37-0.0264-1.17-0.0529-2.33-0.0801-3.54-0.0598-2.3-0.123-4.6-0.191-6.91-0.0359-1.54-0.0359-1.54-0.0725-3.1-0.0134-2.49-0.0134-2.49-1.17-4.49-1.07 0.00114-2.13 0.00228-3.23 0.00345-47.1 0.0501-94.2 0.0963-141 0.124-0.714 4.14e-4 -1.43 8.28e-4 -2.16 0.00126-15.5 0.00898-31 0.0173-46.6 0.0249-7.61 0.00374-15.2 0.00763-22.8 0.0116-1.14 5.88e-4 -1.14 5.88e-4 -2.3 0.00119-24.5 0.0128-49 0.0353-73.5 0.0629-25.2 0.0284-50.4 0.0468-75.6 0.0529-3.57 8.64e-4 -7.14 0.00184-10.7 0.00289-1.05 3.03e-4 -1.05 3.03e-4 -2.13 6.13e-4 -11.3 0.00353-22.5 0.0174-33.8 0.0353-11.3 0.0178-22.7 0.0241-34 0.02-6.14-0.00191-12.3 9.08e-4 -18.4 0.0171-44.8 0.113-44.8 0.113-63.7-2.81-5.85-0.838-11.2-0.00617-17 1.01-10.2 1.6-20.8 0.204-31-0.679-10.3-0.816-19.8-0.827-30 0.715-3.9 0.418-6.97 0.0492-10.8-0.59-2.48-0.0909-4.96-0.13-7.44-0.125-0.682 0.00121-1.36 0.00242-2.07 0.00366-6.41 0.0477-12.8 0.485-19.2 1-2.79 0.101-4.72 0.0103-7.33-0.879v-2c-0.738 0.137-1.48 0.274-2.24 0.415-15.6 2.81-29.2 4.11-44.8 0.935-3.98-0.696-7.18-0.623-11 0.65-2.19 0.0668-4.36-0.00134-6.55-0.0625-2.52-0.00115-2.52-0.00115-5.22 0.585-3.25 0.481-6.02 0.435-9.29 0.172-1.19-0.0885-2.38-0.177-3.61-0.268-1.28-0.0997-2.57-0.199-3.89-0.302-12.6-0.923-25.2-1.44-37.9-1.75-1.25-0.0304-1.25-0.0304-2.52-0.0615-4.68-0.113-9.36-0.217-14-0.314-0.66-1.32-1.32-2.64-2-4z" fill="#FBFCFE"/>
<path transform="translate(439,987)" d="m0 0c6.28 3.84 7.77 8.31 10 15 0.944 0.159 1.89 0.317 2.86 0.48 17.8 3.23 34.5 10.2 46.1 24.5 3.4 5.13 4.72 9.74 3.68 15.9-1.58 4.95-4.41 8.3-8.68 11.1-4.43 0.777-6.66 0.848-10.5-1.58-3.21-2.57-6.27-5.27-9.27-8.08-7.06-6.46-14.8-9.99-24.2-11.3v59c3.83 1.28 7.63 2.47 11.5 3.6 17 5.03 33.1 13.2 42.1 29.2 6.31 13.3 9.5 26.4 5.15 40.8-5.77 15.3-16.8 26.3-31.4 33.3-3.1 1.33-6.12 2.23-9.4 3.03-0.99 0.33-1.98 0.66-3 1-2.77 0.266-5.53 0.444-8.31 0.621-2.74 0.386-4.47 0.715-6.69 2.38-0.48 2.19-0.48 2.19-0.375 4.69-0.294 4.96-1.61 7.35-4.96 10.9-3.37 2.78-5.15 3.4-9.61 3.19-3.61-0.59-6.2-1.44-9.06-3.81-3.23-4.91-4.04-10.3-5-16-1.11-0.182-2.22-0.364-3.37-0.551-4.56-0.76-9.1-1.59-13.6-2.45-0.922-0.17-1.84-0.34-2.79-0.516-9.68-2.33-18-9.03-26.2-14.5v-2c-0.565-0.219-1.13-0.438-1.71-0.664-3.02-1.76-4.73-3.99-6.91-6.71-1.16-1.43-1.16-1.43-2.35-2.9-3.6-4.85-4.91-8.63-4.02-14.7 1.45-4.53 3.73-7.18 7.88-9.5 3.66-1.84 6.21-1.67 10.1-0.5 2.3 1.77 4.34 3.52 6.44 5.5 10.5 9.41 22.9 18.6 37.6 18.5 0.127-7.49 0.214-15 0.275-22.5 0.0252-2.55 0.0593-5.1 0.103-7.65 0.0605-3.66 0.089-7.32 0.111-11 0.0258-1.14 0.0516-2.29 0.0782-3.47 3.78e-4 -1.06 7.55e-4 -2.12 0.00114-3.21 0.0111-0.935 0.0222-1.87 0.0336-2.83-0.395-2.6-0.395-2.6-2.96-4.14-2.83-1.32-5.56-2.18-8.58-2.98-11.2-3.33-21.4-8.44-30.1-16.2-0.844-0.74-1.69-1.48-2.56-2.24-9.05-8.41-13.7-17.6-15.4-29.8-0.182-0.785-0.364-1.57-0.551-2.38-2.36-13.8 3.16-27 10.8-38.2 9.11-12.3 25.1-21.4 40.2-24 2.55-0.239 5.05-0.4 7.61-0.41 0.147-0.888 0.147-0.888 0.297-1.79 0.954-5.04 1.9-8.52 5.7-12.2 4.25-2.52 8.17-2.8 13-2z" fill="#FBFCFE"/>
<path transform="translate(1215 1012)" d="m0 0c4.95 3.85 9.81 7.77 11.8 13.9 0.507 7.48-0.801 12.8-5.06 19-3.65 2.48-5.98 2.78-10.3 2.55-4.65-0.981-7.88-3.74-11.6-6.55-11.5-7.51-23-12-37-9.47-14.1 3.34-25.3 8.16-33.4 20.8-3.28 5.68-5.72 11.4-7.62 17.7h2v2c0.531-0.162 1.06-0.323 1.61-0.49 2.92-0.623 5.64-0.653 8.62-0.671 1.26-0.00961 2.52-0.0192 3.82-0.0291 1.37-0.00485 2.75-0.00913 4.12-0.0129 1.41-0.00576 2.83-0.0115 4.24-0.0173 2.96-0.0105 5.93-0.0163 8.89-0.0198 3.79-0.00548 7.58-0.0295 11.4-0.058 2.92-0.0187 5.84-0.0238 8.77-0.0254 1.4-0.00302 2.79-0.011 4.19-0.0242 1.96-0.0171 3.91-0.0133 5.87-0.00869 1.11-0.00365 2.22-0.00729 3.37-0.011 4.51 0.53 7.89 2.05 11 5.37 1.75 4.65 1.92 9.1 1.12 14-2.64 3.66-4.63 5.24-9 6-2.14 0.0872-4.28 0.118-6.42 0.114-1.3-7.55e-5 -2.6-1.51e-4 -3.94-2.29e-4 -1.42-0.00511-2.83-0.0103-4.25-0.0156-1.45-0.00187-2.9-0.00329-4.35-0.00429-3.81-0.00381-7.63-0.0136-11.4-0.0247-3.89-0.0102-7.79-0.0148-11.7-0.0198-7.64-0.0107-15.3-0.0278-22.9-0.0488-0.83 3.69-1.17 5.76 0.438 9.25 0.287 0.686 0.575 1.37 0.871 2.08 3.63 3.59 10.6 2.73 15.5 2.72 2.2-0.027 4.41-0.0582 6.61-0.093 2.41-0.0224 4.82-0.0438 7.22-0.0645 3.77-0.0372 7.54-0.0804 11.3-0.139 3.66-0.0545 7.31-0.0836 11-0.109 1.13-0.0238 2.25-0.0476 3.41-0.0721 6.22-0.0208 10 0.155 14.7 4.43 2.34 3.51 2.39 5.28 2.5 9.44 0.0516 1.13 0.103 2.27 0.156 3.43-0.656 3.13-0.656 3.13-2.81 5.29-5.32 3.28-12 2.45-18 2.45-1.38 0.015-2.76 0.0317-4.14 0.0501-3.62 0.0435-7.24 0.0636-10.9 0.0787-3.7 0.0196-7.4 0.0616-11.1 0.102-7.25 0.0752-14.5 0.126-21.7 0.16-0.474 1.72-0.474 1.72-0.958 3.47-0.433 1.53-0.866 3.06-1.3 4.59-0.206 0.753-0.412 1.51-0.624 2.28-1.76 6.16-4.33 11.1-7.86 16.4-0.415 0.733-0.83 1.47-1.26 2.22 0.33 0.66 0.66 1.32 1 2 1.95-0.0309 1.95-0.0309 3.94-0.0625 3.94-0.00617 7.73 0.297 11.6 0.844 2.65 0.284 2.65 0.284 6.2 0.133 4.36-0.0263 8.23 0.855 12.4 1.96 19.9 4.93 36.8 6.41 55.1-4.27 5.03-2.79 8.12-3.1 13.7-1.61 2.24 1.89 2.24 1.89 3.88 4.25 0.554 0.768 1.11 1.54 1.68 2.33 3.13 5.25 4.89 10.3 3.45 16.4-6.45 9.76-22.9 15.4-33.8 17.9-20.5 4.13-39.4 0.467-59.3-5.15-13.4-3.53-29.4-4.55-42.7-0.312-15.3 4.64-15.3 4.64-23.2 2.56-4.31-2.34-6.04-5.19-7.48-9.73-1.41-6.18-1.42-11.3 1.61-17 4.84-7.32 11.6-13.2 17.9-19.2 3.63-3.5 6.77-7.1 9.81-11.1 0.79-1.03 1.58-2.07 2.39-3.13 2.07-2.61 2.07-2.61 1.79-5.74-1.12-0.00935-2.25-0.0187-3.41-0.0283-4.18-0.04-8.37-0.106-12.6-0.179-1.81-0.0282-3.62-0.0494-5.43-0.0635-2.6-0.0215-5.21-0.0681-7.81-0.12-0.805-0.00123-1.61-0.00246-2.44-0.00372-5.04-0.131-7.68-0.851-11.4-4.61-2.52-3.49-2.43-6.8-2-11 2.49-4.98 4.81-7.09 10-9 4.32-0.389 8.61-0.327 12.9-0.25 1.73 0.00773 1.73 0.00773 3.5 0.0156 5.61 0.0515 11 0.237 16.6 1.23-0.524-1.46-0.524-1.46-1.06-2.96-0.46-1.29-0.919-2.57-1.38-3.86-0.23-0.643-0.46-1.29-0.697-1.95-0.979-2.74-1.95-5.48-2.87-8.24-0.716 0.16-1.43 0.32-2.17 0.485-4.73 0.861-9.47 0.782-14.3 0.827-1.02 0.029-2.05 0.058-3.1 0.0879-7.59 0.0639-10.7-1.15-16.4-6.09-1.74-3.79-1.12-7.36-0.0625-11.3 1.82-2.82 3.01-4.5 6-6 8.57-1.24 17.5-1.96 26 0-0.0464-0.548-0.0928-1.1-0.141-1.66-0.767-16.8 6.97-33.4 17.8-45.9 28.2-30.2 75.2-35.4 109-12.3z" fill="#FBFCFE"/>
<path transform="translate(1217,432)" d="m0 0c9.53 8 9.53 8 10.4 13.8-0.757 5.51-4.26 8.23-8.38 11.6-3.58 1.9-5.08 2.42-9.06 1.62-2.06-1.36-3.95-2.86-5.88-4.4-7.24-5.44-15.6-7.28-24.5-6.34-11.1 2.11-20.8 8.47-27.3 17.7-3.27 5.16-5.43 8.89-5.32 15.1 1.04 0.0088 1.04 0.0088 2.09 0.0178 7.19 0.0639 14.4 0.148 21.6 0.245 2.68 0.0349 5.36 0.0625 8.05 0.084 3.86 0.0335 7.71 0.0859 11.6 0.142 1.2 0.00639 2.4 0.0128 3.63 0.0194 1.68 0.0297 1.68 0.0297 3.4 0.06 0.984 0.0111 1.97 0.0222 2.98 0.0336 3.17 0.463 5.11 1.6 7.73 3.4-0.948 5.34-2.08 10.1-6 14-4.37 1.34-8.63 1.19-13.2 1.1-1.28 0.00946-2.56 0.0189-3.88 0.0287-3.39 0.0246-6.78-0.00442-10.2-0.0448-3.47-0.0317-6.93-0.0124-10.4 0.00244-6.79 0.0189-13.6-0.0132-20.4-0.084 0.33 1.65 0.66 3.3 1 5 0.674 0.0103 1.35 0.0206 2.04 0.0312 6.99 0.108 14 0.222 21 0.341 2.61 0.0434 5.22 0.0851 7.84 0.125 3.75 0.0575 7.49 0.121 11.2 0.186 1.18 0.0167 2.35 0.0334 3.56 0.0506 1.08 0.0199 2.16 0.0399 3.28 0.0604 1.44 0.0233 1.44 0.0233 2.9 0.0471 2.17 0.158 2.17 0.158 3.17 1.16 0.378 5.57 0.196 9.21-3 14-2.88 1.8-5.12 2.26-8.49 2.32-1.32 0.0298-1.32 0.0298-2.67 0.0602-0.942 0.0116-1.88 0.0231-2.85 0.035-0.971 0.0194-1.94 0.0387-2.94 0.0587-3.1 0.0597-6.19 0.106-9.29 0.152-2.1 0.0382-4.2 0.0772-6.3 0.117-5.15 0.096-10.3 0.18-15.4 0.258 3.13 11.4 10 17.8 20 24 9.23 4.09 19.9 4.31 29.5 1.2 4.1-1.93 7.46-4.75 10.9-7.66 2.64-1.55 2.64-1.55 5.73-1.52 3.28 1.1 4.5 2.13 6.66 4.79 0.572 0.687 1.14 1.37 1.73 2.08 2.65 3.68 4.19 6.5 3.52 11.1-6.85 9.75-19.4 15.1-30.8 17.6-20 2.41-38-1.35-54.1-13.9-11.1-9.66-19.6-22.6-24.1-36.7v-2c-0.909 0.126-0.909 0.126-1.84 0.254-6.1 0.741-12.1 1.08-18.2-0.254-0.66-0.66-1.32-1.32-2-2 0.224-5.72 2.02-9.28 5-14h15c-0.33-2.31-0.66-4.62-1-7-1.28-0.182-1.28-0.182-2.59-0.367-1.1-0.168-2.21-0.335-3.35-0.508-1.1-0.162-2.2-0.325-3.34-0.492-0.898-0.209-1.8-0.418-2.72-0.633-1.5-3-0.372-4.8 0.625-7.94 0.322-1.06 0.645-2.12 0.977-3.21 1.69-3.44 2.84-4.47 6.4-5.85 3.31 0.312 3.31 0.312 6 1 0.135-0.776 0.271-1.55 0.41-2.35 2.57-12.9 8.04-23.7 16.6-33.6 0.768-0.978 1.54-1.96 2.33-2.96 19-22.8 56.4-26.6 80.7-11z" fill="#102633"/>
<path transform="translate(435,409)" d="m0 0c5.27 3.9 6.54 8.23 7.58 14.5 1.11 3.79 1.11 3.79 4.8 5.28 1.39 0.45 2.78 0.874 4.18 1.28 1.46 0.484 2.91 0.976 4.37 1.48 0.702 0.241 1.4 0.483 2.13 0.731 6.18 2.32 11.6 6.28 15.1 11.9 1.55 3.55 1.37 6.01 0.812 9.86-2.3 3.84-4.89 6.23-9 8-6.63 0.615-10-0.625-15.4-4.31-7.46-4.76-14.4-8.81-23.6-7.69-6.2 1.82-10.9 3.96-15 9-1.66 3.33-1.87 6.45-1 10 7.62 10.3 23.5 12.9 35 16.5 13.1 4.25 23.8 10.2 30.4 22.8 4.22 8.85 4.02 21.5 1 30.8-2.24 5.24-5.3 9.13-9.44 13-0.659 0.617-1.32 1.23-2 1.87-5.74 4.9-14.2 10.1-22 10.1 0.0464 0.941 0.0928 1.88 0.141 2.85 0.332 11.4 0.332 11.4-1.89 14.9-3.29 3.29-4.92 4.1-9.56 4.62-4.67-0.475-6.83-1.73-10.7-4.38-2.38-3.58-2.31-5.69-2.62-9.94-0.471-4.79-0.471-4.79-2.93-8.7-2.11-1.01-4.2-1.69-6.45-2.37-7.73-3.41-14.3-7.85-21-13-0.934-0.7-0.934-0.7-1.89-1.41-3.54-2.76-6.1-5.56-8.11-9.59 0-3.86 0.358-6.08 2.56-9.25 5.01-3.6 10.2-5.34 16.4-4.75 0.66 0.33 1.32 0.66 2 1v2c0.554 0.25 1.11 0.5 1.68 0.758 2.72 1.46 5 3.23 7.45 5.12 10.2 7.4 19.4 9.63 31.9 8.12 4.66-1.55 8.52-3.52 12-7 0.474-2.65 0.474-2.65 0.5-5.69 0.0773-1.52 0.0773-1.52 0.156-3.07-0.934-4.61-3.11-7.21-6.66-10.2-2.62-1.53-5.31-2.53-8.19-3.5-1.17-0.429-1.17-0.429-2.36-0.866-3.29-1.2-6.6-2.34-9.92-3.48-15.4-5.26-31.9-11.5-39.9-26.8-3.94-9.56-3.77-18.3 0.105-27.8 1.95-3.98 4.29-7.29 7.26-10.6 0.455-0.509 0.91-1.02 1.38-1.54 5.06-4.93 16.4-12.5 23.6-12.5 0.0374-0.58 0.0748-1.16 0.113-1.76 0.508-6.04 1.24-11 6.07-15.1 3.73-1.49 6.86-1.97 10.8-1.12z" fill="#0F2533"/>
<path transform="translate(600,787)" d="m0 0 4 2c-15 6.3-30.7 10.5-46.2 15.2-1.17 0.352-2.34 0.703-3.54 1.07-2.23 0.672-4.47 1.34-6.7 1.99-9.46 2.65-9.46 2.65-17 8.6-0.845 3.28-0.978 5.81-0.562 9.19 7.49 8.78 19.3 12.3 29.9 15.7 5.94 1.91 11.7 4.09 17.5 6.47 0.811 0.325 1.62 0.65 2.46 0.984 0.755 0.317 1.51 0.634 2.29 0.961 0.666 0.276 1.33 0.552 2.02 0.836 2.22 1.35 3.36 2.95 4.8 5.09-14.2-1.54-28.4-3.23-42.6-4.94-2.12-0.255-4.23-0.509-6.35-0.764-1.05-0.126-2.1-0.252-3.17-0.382-2.11-0.254-4.22-0.507-6.32-0.759-5.49-0.659-11-1.33-16.5-2.02-1.69-0.209-1.69-0.209-3.41-0.422-2.14-0.265-4.28-0.534-6.42-0.807-4.32-0.532-8.53-0.982-12.9-0.93-3.41 0.0193-3.41 0.0193-5.41-0.981-2.61-0.208-5.2-0.374-7.81-0.5-4.48-0.219-8.78-0.603-13.2-1.5-3.97-0.577-7.96-1.06-11.9-1.56-1.61-0.208-1.61-0.208-3.25-0.42-1.04-0.131-2.08-0.262-3.15-0.396-0.942-0.119-1.88-0.239-2.86-0.362-2.79-0.316-2.79-0.316-5.53-0.173-2.83-0.0746-5.15-0.417-7.91-1-5.7-1.21-11.4-1.85-17.2-2.45-2.27-0.248-4.54-0.497-6.81-0.746-3.52-0.382-7.05-0.761-10.6-1.13-34.7-3.67-34.7-3.67-38.8-7.76-0.0408-2-0.0425-4 0-6 5.34-2.57 10.1-3.68 15.9-4.35 0.837-0.104 1.67-0.209 2.54-0.316 2.65-0.329 5.31-0.643 7.97-0.957 1.78-0.218 3.56-0.437 5.34-0.656 3.28-0.404 6.56-0.802 9.85-1.19 5.84-0.698 11.7-1.41 17.5-2.24 9.13-1.29 18.2-2.55 27.4-3.07 2.28-0.196 4.24-0.653 6.46-1.21 2.46-0.343 4.91-0.655 7.38-0.938 0.725-0.085 1.45-0.17 2.2-0.258 7.42-0.846 14.9-1.5 22.3-2.11 0.9-0.0768 1.8-0.154 2.73-0.233 0.803-0.0658 1.61-0.132 2.43-0.199 2.05-0.166 2.05-0.166 3.98-1.27 2.21-0.186 4.41-0.323 6.62-0.438 9.91-0.58 19.8-1.52 29.6-3.62 4.76-1.03 9.49-1.34 14.3-1.59 2.7-0.268 5.14-0.671 7.78-1.24 6.91-1.44 13.9-2.17 20.9-2.96 2.35-0.265 4.7-0.54 7.04-0.816 7.28-0.838 14.4-1.44 21.7-1.32l1-1z" fill="#0E2533"/>
<path transform="translate(418,1032)" d="m0 0c3 2 3 2 3.68 4.33 0.298 2.47 0.455 4.83 0.467 7.32 0.00638 0.891 0.0128 1.78 0.0193 2.7 0.00111 0.949 0.00223 1.9 0.00337 2.88 0.00333 0.985 0.00666 1.97 0.0101 2.98 0.00505 2.08 0.00741 4.15 0.00725 6.23 0.00219 3.18 0.0204 6.36 0.0393 9.55 0.00293 2.02 0.00492 4.04 0.00586 6.05 0.00719 0.953 0.0144 1.91 0.0218 2.89-0.00308 0.885-0.00615 1.77-0.00932 2.68 0.00143 0.778 0.00285 1.56 0.00432 2.36-0.247 2.04-0.247 2.04-2.25 5.04-9.69-0.618-17.4-6.1-24-13-3.79-4.74-5.39-9.98-5-16 2.1-8.9 7.36-15.8 14.9-20.8 3.91-2.24 7.73-3.94 12.1-5.19z" fill="#0F2533"/>
<path transform="translate(450,1124)" d="m0 0c8.46 0 15.6 3.08 21.9 8.71 5.37 5.9 7.63 12 7.36 19.9-0.405 3.31-1.48 5.58-3.29 8.36-0.516 0.825-1.03 1.65-1.56 2.5-6.5 6.67-14.5 9.56-23.4 11.5-4.35-4.35-3.16-12.5-3.17-18.4-0.00499-1.31-0.00499-1.31-0.0101-2.65-0.00504-1.83-0.00741-3.67-0.00725-5.5-0.0022-2.81-0.0204-5.63-0.0393-8.44-0.00293-1.78-0.00492-3.57-0.00586-5.35-0.00719-0.843-0.0144-1.69-0.0218-2.55 0.0234-5.92 0.0234-5.92 2.25-8.15z" fill="#0F2533"/>
</svg>